<?xml version="1.0" encoding="UTF-8"?><svg id="_レイヤー_2" xmlns="http://www.w3.org/2000/svg" xmlns:xlink="http://www.w3.org/1999/xlink" viewBox="0 0 552.3818359 168.0941436"><defs><style>.cls-1{filter:url(#drop-shadow-1);}.cls-2{filter:url(#drop-shadow-3);}.cls-3{filter:url(#drop-shadow-2);}.cls-4{fill:#17a5a2;}</style><filter id="drop-shadow-1" filterUnits="userSpaceOnUse"><feOffset dx="2" dy="2"/><feGaussianBlur result="blur" stdDeviation="2"/><feFlood flood-color="#0d5450" flood-opacity=".65"/><feComposite in2="blur" operator="in"/><feComposite in="SourceGraphic"/></filter><filter id="drop-shadow-2" filterUnits="userSpaceOnUse"><feOffset dx="2" dy="2"/><feGaussianBlur result="blur-2" stdDeviation="2"/><feFlood flood-color="#0d5450" flood-opacity=".65"/><feComposite in2="blur-2" operator="in"/><feComposite in="SourceGraphic"/></filter><filter id="drop-shadow-3" filterUnits="userSpaceOnUse"><feOffset dx="2" dy="2"/><feGaussianBlur result="blur-3" stdDeviation="2"/><feFlood flood-color="#0d5450" flood-opacity=".65"/><feComposite in2="blur-3" operator="in"/><feComposite in="SourceGraphic"/></filter></defs><g id="pc"><g id="intro"><path class="cls-4" d="M12.5488281,75.0219727c2.7563477-5.512207,4.75-10.9072266,6.5678711-17.4160156,8.2680664,2.4042969,8.8544922,2.9321289,8.8544922,3.8115234,0,.8208008-.6450195,1.3486328-2.9321289,1.6420898-3.1665039,4.6323242-5.746582,8.2680664-9.3823242,11.9624023,8.5615234,0,17.0644531-.293457,25.6254883-.6450195-1.8764648-2.8735352-4.1044922-5.3950195-6.8022461-7.4472656l.4106445-.762207c4.9257812,1.1142578,9.96875,3.9873047,13.1938477,7.0366211,2.2285156,2.1108398,3.1665039,4.1049805,3.1665039,5.6293945,0,2.4628906-1.5244141,4.1049805-3.6357422,4.1049805-1.5244141,0-2.7558594-.8212891-3.4008789-2.5214844-.527832-1.4077148-1.1142578-2.6977539-1.7592773-3.9291992-13.3696289,2.2871094-24.4526367,3.7529297-37.0600586,4.8085938-.527832,1.5244141-.9384766,1.9936523-1.7006836,1.9936523-.8208008,0-1.5244141-.7036133-3.6943359-8.3852539,3.987793.0585938,7.9165039.1171875,11.6694336.1171875h.8793945ZM15.7739258,108.6225586c0,1.3486328-1.6416016,2.6386719-4.984375,2.6386719-1.1137695,0-1.8759766-.527832-1.8759766-1.5834961,0-1.6416016.2929688-5.5708008.2929688-13.8974609,0-5.4536133,0-7.5058594-.1757812-10.3789062,3.9287109,1.1137695,5.980957,1.7587891,7.0952148,2.2866211h20.8754883c1.1728516-2.2866211,1.7592773-2.6972656,2.4042969-2.6972656.8212891,0,1.5249023.2929688,3.6943359,1.9350586,2.3457031,1.7006836,2.6386719,2.3457031,2.6386719,3.0493164s-.5864258,1.2900391-2.1694336,2.1108398v2.8149414c0,6.4501953.4106445,10.7895508.4106445,12.9003906,0,1.9936523-2.0527344,2.9907227-5.2192383,2.9907227-1.0551758,0-1.7592773-.4106445-1.7592773-1.6420898v-1.9350586H15.7739258v1.4077148ZM37.0014648,104.2832031v-13.6630859h-20.934082l-.293457.3515625v13.3115234h21.2275391Z"/><path class="cls-4" d="M72.355957,68.2783203l1.1142578.3520508-6.5087891,25.15625c-.8212891,3.1079102-.9384766,4.984375-.9384766,6.3330078,0,3.4599609,1.7592773,5.4536133,1.7592773,7.6816406,0,2.4628906-1.5249023,3.8706055-4.1049805,3.8706055-2.2280273,0-3.3422852-1.3491211-3.3422852-3.2255859,0-1.5830078.5864258-3.3422852.5864258-5.3359375,0-2.2871094-.8798828-3.4013672-3.3422852-4.0463867l.0585938-.762207c2.5214844,0,2.8730469-.4106445,4.2216797-3.8115234l4.222168-10.5551758c-.5864258.7036133-1.4658203,1.1728516-2.5800781,1.1728516-1.4658203,0-2.4628906-.8208008-2.9907227-2.5214844-.7036133-2.2285156-2.0522461-4.222168-3.6357422-5.1601562l.1762695-.8798828c6.9194336-.4101562,9.8510742,2.2285156,9.8510742,4.8671875,0,.1757812,0,.4106445-.0585938.5864258l5.512207-13.7216797ZM61.918457,59.1894531c6.8017578,0,9.675293,2.8730469,9.675293,5.6293945,0,2.4038086-1.8178711,3.5766602-3.6357422,3.5766602-1.4658203,0-2.6386719-.9379883-3.0493164-2.6386719-.5864258-2.5214844-1.8178711-4.6323242-3.2836914-5.746582l.293457-.8208008ZM71.5351562,81.237793c2.4042969-3.987793,4.1635742-8.2094727,5.6293945-13.3110352,5.8051758,1.7587891,6.3916016,2.1694336,6.3916016,2.8144531s-.4106445,1.0556641-1.8178711,1.2314453c-2.4628906,3.9287109-5.4536133,7.0366211-9.4995117,9.7929688l-.7036133-.527832ZM100.4443359,66.284668c-.1757812.2929688-.4106445.527832-.762207.7036133v2.4042969c0,3.2836914.2929688,5.512207.2929688,6.7436523,0,2.8730469-1.5244141,4.456543-5.1601562,4.984375-1.5244141.1757812-1.7592773,0-2.1108398-1.5834961-.527832-1.5830078-1.4663086-2.4628906-3.7529297-3.1665039l.1757812-.8793945c1.8178711.1757812,2.6386719.234375,3.5185547.234375,1.2314453,0,1.6416016-.234375,1.6416016-1.8178711v-7.6230469h-2.5800781c-.1757812.2929688-.527832.527832-.8793945.7036133-1.0556641,7.0952148-3.6943359,11.9038086-8.4443359,15.3637695l4.8671875.234375h12.8422852c.762207-1.5834961,1.2900391-2.1108398,1.8173828-2.1108398.7626953,0,1.5834961.234375,3.4599609,1.7001953,1.8764648,1.4663086,2.1694336,1.9941406,2.1694336,2.5214844,0,.7041016-.2929688,1.0556641-1.5830078,1.7592773v.762207c0,.9384766.1757812,2.2285156.1757812,3.3427734,0,1.4658203-1.6416016,2.3457031-4.0458984,2.3457031-.9970703,0-1.5834961-.2348633-1.8178711-.8212891h-19.409668l-.1171875.0585938-.5864258,3.6357422h23.5727539c1.0556641-1.9936523,1.4077148-2.2280273,1.9941406-2.2280273.6450195,0,1.0551758.1757812,3.2250977,1.7001953,2.1694336,1.5249023,2.4042969,2.0527344,2.4042969,2.6977539,0,.46875-.3520508,1.0551758-1.8178711,1.7587891-.2348633,1.9941406-.7041016,4.4570312-1.2314453,6.3920898-1.1142578,3.9873047-3.1079102,5.5117188-7.3886719,5.8051758-1.5249023.1171875-1.7592773-.0585938-2.2285156-1.5834961-.8208008-1.9936523-2.1108398-3.2836914-4.9257812-4.1044922l.0585938-.8798828c2.5805664.3520508,4.1635742.4106445,5.6298828.4106445,1.8173828,0,2.6972656-.5864258,3.0488281-1.7006836.4106445-1.2900391.8212891-3.2836914,1.1142578-5.3359375h-23.9248047l-.1757812,1.0551758c-.1762695,1.1728516-1.1728516,1.8764648-4.1049805,1.8764648-1.4658203,0-2.1108398-.5859375-2.1108398-1.8173828.996582-3.6943359,1.9350586-8.2685547,2.4628906-12.5493164,2.8144531.8798828,4.456543,1.4077148,5.3945312,1.8769531h18.940918v-3.6357422h-12.8422852l-5.8637695.2929688v-2.8144531c-2.2285156,1.4658203-4.9257812,2.6386719-8.0336914,3.5766602l-.3520508-.8208008c7.3886719-4.5737305,11.0244141-10.203125,11.9624023-19.4682617h-5.3945312l-5.8642578.2929688v-3.5180664l5.8642578.2929688h9.5581055v-.3515625c0-1.4663086-.1171875-3.6357422-.2929688-5.3364258,7.0952148.4692383,7.9746094.8798828,7.9746094,1.6420898,0,.6450195-.2929688,1.1142578-1.9350586,1.7001953v2.3457031h7.5644531c1.1728516-1.5244141,2.4042969-2.9907227,3.7529297-4.5151367,5.6293945,4.5151367,6.1572266,5.4536133,6.1572266,6.0986328,0,.7036133-.2929688,1.3486328-.9379883,1.3486328h-10.9658203ZM100.6787109,68.9819336c6.7436523.8798828,10.8486328,4.5151367,10.8486328,7.7993164,0,2.2866211-1.1142578,3.6357422-3.0493164,3.6357422-1.7592773,0-2.8149414-.9384766-3.2836914-2.5805664-.9384766-3.3422852-2.6391602-6.3330078-4.9257812-8.1508789l.4101562-.7036133Z"/><path class="cls-4" d="M156.7329102,60.8310547c1.1728516-2.0522461,1.8178711-2.6386719,2.5800781-2.6386719.8798828,0,1.7006836.4692383,3.8706055,2.1108398,1.5244141,1.1142578,2.1694336,1.8764648,2.1694336,2.5805664,0,.8208008-.8208008,1.2900391-2.2280273,2.1694336v6.9780273c0,16.3603516,1.4072266,23.8076172,3.0488281,27.6777344.6450195,1.4663086.9970703,1.6420898,1.3491211,1.6420898.5273438,0,.8208008-.2929688,1.1723633-.8793945.8212891-1.2900391,1.4077148-2.4628906,1.9355469-3.7529297l.7036133.234375c-.6450195,2.6386719-1.1728516,5.9223633-1.1728516,7.3886719,0,1.2900391,1.0556641,2.5214844,1.0556641,4.1630859,0,1.3491211-.9384766,2.7563477-3.1079102,2.7563477-2.1113281,0-4.3393555-1.5834961-6.1572266-5.277832-3.1665039-6.5087891-4.9257812-14.1318359-4.9257812-33.8349609v-8.3852539h-29.4370117l-.1171875.1171875v12.3730469c0,19.0576172-3.8120117,28.4399414-11.2001953,35.5356445l-.6450195-.5864258c3.8115234-7.3300781,5.5117188-16.3017578,5.5117188-34.9492188,0-11.7866211-.1757812-14.6601562-.3515625-17.3574219,3.3422852.8798828,5.3359375,1.4658203,6.5087891,1.9350586h29.4370117ZM139.3759766,91.6166992h-3.7529297v.8212891c0,1.2314453-1.1142578,2.4628906-3.987793,2.4628906-1.0551758,0-1.6416016-.527832-1.6416016-1.5249023,0-.996582.234375-4.6323242.234375-10.7895508,0-3.1079102-.0585938-4.5737305-.234375-6.6850586,2.5800781.7036133,4.2216797,1.1728516,5.2773438,1.5249023h4.1049805v-5.8056641c-3.3427734.293457-6.7436523.4692383-10.0864258.4692383l-.1171875-.8793945c7.0957031-1.3486328,14.425293-3.7529297,20.7583008-6.9194336,4.9257812,3.6943359,5.3364258,4.2807617,5.3364258,5.0429688,0,.4101562-.4106445.762207-1.3486328.762207-.4692383,0-1.0556641-.0585938-1.7592773-.2929688-1.9936523.4101562-4.1635742.762207-6.3330078,1.0551758-.1171875.6450195-.3520508,1.1142578-.9384766,1.4072266v5.1606445h3.8120117c.762207-1.5249023,1.230957-1.9350586,1.8173828-1.9350586.7626953,0,1.2314453.1757812,3.1079102,1.5244141,1.8178711,1.3486328,2.1699219,1.9936523,2.1699219,2.5214844,0,.7036133-.4106445,1.2314453-1.7592773,1.9350586v2.4042969c0,3.4008789.1757812,6.0400391.1757812,7.0366211,0,1.8178711-1.6416016,2.5800781-3.9873047,2.5800781-.9970703,0-1.5834961-.4101562-1.5834961-1.4658203v-.4106445h-3.7529297v9.3823242c1.8764648-.1171875,3.7529297-.234375,5.5708008-.4101562-.9379883-1.9936523-2.0522461-3.8701172-3.5766602-5.4536133l.5864258-.7036133c3.7529297,1.2314453,7.1538086,3.5185547,9.3823242,6.5087891,1.230957,1.7006836,1.8173828,2.9907227,1.8173828,4.6914062,0,2.1694336-1.2314453,3.6357422-3.1079102,3.6357422-1.7001953,0-2.8730469-1.1142578-3.2836914-3.1079102-.2929688-1.3486328-.6450195-2.6391602-1.1142578-3.9291992-7.3295898,2.4628906-14.1318359,4.1049805-21.0512695,5.3950195-.4106445,1.2900391-.8798828,1.9350586-1.5249023,1.9350586s-1.3486328-.527832-3.0493164-7.9165039c4.75-.0585938,9.3823242-.1757812,13.8393555-.3515625v-9.6757812ZM135.7402344,80.3579102l-.1171875.1176758v8.2094727h3.7529297v-8.3271484h-3.6357422ZM144.8876953,80.3579102v8.3271484h3.7529297v-8.3271484h-3.7529297Z"/><g class="cls-1"><path class="cls-4" d="M333.5761719,79.1992188c1.84375-2.1074219,5.1210938-3.8129883,7.4648438-4.0336914,2.4511719-.2304688,5.8242188.2045898,8.375,1.0395508,2.21875.7578125,3.2988281,1.9467773,3.4492188,3.5444336.0898438.9589844.0625,1.8208008-.1660156,2.8095703-.1425781.765625-.1484375,1.8413086.234375,3.6313477.2070312,1.0556641.6757812,2.6230469,1.2734375,4.394043,2.0605469-.9453125,3.578125-1.9477539,5.5976562-3.3208008.609375-.3793945,2.2226562-1.4980469,3.3828125-2.8969727.578125-.6987305,1.8066406-1.3520508,4.8945312-1.6425781,3.515625-.3305664,5.8164062,1.2792969,6.0585938,3.8359375.1386719,1.4916992-.59375,2.8500977-2.8164062,4.3491211-4.2539062,2.7646484-9.3691406,5.5019531-14.109375,7.6674805,1.5429688,3.831543,3.5820312,8.3681641,5.5410156,12.0527344,3.1816406-1.5888672,6.0429688-3.1474609,8.6738281-4.8999023.7050781-.4956055,2.4160156-1.7319336,3.5839844-3.0234375,1.1679688-1.2919922,3.4003906-2.6845703,6.1699219-2.9453125,3.4082031-.3203125,5.6132812,1.40625,5.8535156,3.9628906.1816406,1.9179688-.9472656,3.6362305-3.6914062,5.2915039-3.3554688,2.034668-9.6894531,5.5317383-16.5761719,8.8671875,4.2421875,6.2636719,7.9648438,10.4272461,11.8320312,13.8242188,1.4082031,1.2651367,3.1699219,4.0009766,3.4804688,7.3032227.4414062,4.6870117-1.2402344,6.2421875-3.4765625,6.4526367-1.2792969.1201172-3.0410156-.3588867-5.2265625-1.8730469-3.9121094-2.7480469-12.4765625-5.8115234-23.0214844-4.8193359-10.6542969,1.0024414-15.9667969,5.0483398-15.4863281,10.1616211.5410156,5.7524414,7.5664062,9.6054688,20.9882812,8.3427734,2.34375-.2207031,4.6757812-.5473633,6.0507812-.7841797.9492188-.1967773,2.7304688-.6865234,3.5820312-.7666016,5.0078125-.4707031,9.5078125,1.684082,9.8789062,5.6259766.4316406,4.5800781-3.3339844,5.6865234-10.5761719,6.3681641-22.4785156,2.1142578-34.9570312-4.8789062-36-15.9575195-.921875-9.8007812,8.328125-16.581543,23.0292969-17.9643555,6.4980469-.6113281,11.7363281-.8891602,16.3886719-.5737305-2.9785156-4.234375-5.2265625-7.5688477-8.03125-12.2490234-8.3007812,3.1455078-15.5117188,5.328125-20.5175781,5.7993164-8.5214844.8017578-10.6347656-2.2236328-10.984375-5.9521484-.2207031-2.34375.8066406-5.1269531,3.6054688-8.5068359,2.4121094-2.9135742,5.6777344-5.9072266,9.1640625-8.8149414-3.2207031,1.1635742-5.7480469,1.7236328-8.0917969,1.9443359-1.171875.1098633-2.3515625.1132812-3.5332031.1171875-3.7597656.0307617-8.7734375-1.8613281-13.0703125-6.4008789l.8378906-1.3686523c3.0273438,1.3276367,6.4003906,1.762207,10.234375,1.4018555,4.1542969-.3911133,10.5820312-1.7480469,19.3867188-5.2626953-1.3554688-2.9892578-2.8691406-6.5004883-4.3496094-9.6928711-1.3457031-2.8828125-2.8710938-4.2431641-8.9335938-3.565918l-.3535156-1.4716797ZM338.46875,110.6572266c-2.6054688,3.1469727-3.8085938,5.1943359-3.6777344,6.5791016s1.1679688,2.1469727,3.9394531,1.8867188c3.1933594-.3007812,9.2714844-1.9472656,17.8632812-5.4423828-1.9882812-4.0039062-3.9765625-8.0083008-5.9960938-12.331543-5.1914062,3.0673828-9.9082031,6.6274414-12.1289062,9.3081055Z"/></g><g class="cls-3"><path class="cls-4" d="M440.0214844,54.612793c3.1347656-4.784668,4.4550781-5.7744141,6.1044922-5.7744141,1.9804688,0,3.4648438.4946289,10.3945312,5.609375,4.9501953,3.6298828,5.7753906,5.9399414,5.7753906,6.9296875,0,2.1450195-1.4853516,3.9599609-5.6103516,5.1147461-9.5693359,31.84375-32.6679688,59.7280273-59.8925781,72.4321289l-1.484375-1.9799805c7.0947266-6.2695312,13.1992188-13.0341797,18.8085938-20.7890625,8.9101562-12.3745117,16.0048828-26.2338867,21.1191406-40.753418,1.4853516-4.1245117,2.640625-8.2495117,3.7949219-12.5390625h-21.7783203l-16.5.824707v-9.8994141l16.5.824707h22.7685547ZM423.6875,11.8798828c21.1191406.824707,32.6679688,10.0644531,32.6679688,20.2939453,0,7.0947266-4.6191406,10.5595703-9.8994141,10.5595703-5.4443359,0-8.2490234-2.6396484-9.5693359-7.5898438-2.4746094-8.7446289-7.4248047-16.4990234-14.1894531-20.9541016l.9902344-2.3095703ZM551.3916016,120.6103516c-6.2695312.3300781-12.8691406,3.9599609-17.3242188,8.909668-1.484375,1.9799805-2.3095703,2.8046875-3.2998047,2.8046875-.8251953,0-1.8144531-.6601562-3.4648438-1.8149414-22.1083984-17.1591797-36.6279297-42.5683594-42.8984375-70.4521484.1650391,54.612793.9902344,66.8222656.9902344,71.9370117,0,11.5498047-8.5791016,18.6445312-23.7587891,18.6445312-3.1347656,0-3.4648438-.3300781-4.125-3.4648438-1.6494141-8.0849609-5.609375-11.8798828-16.1689453-15.5097656l.1650391-2.4746094c6.7646484.824707,12.0439453,1.3198242,18.6435547,1.3198242,5.2802734,0,6.2705078-.9897461,6.2705078-6.4345703V26.5639648c0-13.0341797-.1650391-20.4589844-.6601562-26.5639648,22.2734375,1.8149414,25.0791016,3.2998047,25.0791016,5.2797852,0,2.3100586-1.6503906,3.4648438-6.6005859,5.2797852v39.2685547c3.1357422,7.2597656,6.9296875,14.1894531,11.3847656,20.4589844,9.8994141-11.3842773,20.1298828-25.7387695,27.71875-39.2680664,17.4892578,11.2192383,19.7998047,13.5292969,19.7998047,15.6743164,0,2.6396484-1.8154297,3.7949219-11.2197266,4.4545898-8.4150391,7.4248047-20.2939453,16.0043945-33.3291016,23.2641602,13.2001953,17.6542969,32.0087891,33.3286133,53.7880859,43.8881836l-.9902344,2.3100586Z"/></g><g class="cls-2"><path class="cls-4" d="M223.4594727,104.5043945c4.2358398,3.0610352,7.5283203,5.1416016,10.1645508,5.8813477.8828125.2036133,1.637207.3964844,2.402832.4619141,1.6591797.1416016,3.3623047-.2270508,5.5449219-1.7109375,3.0029297-2.0571289,6.6401367-7.0161133,8.9780273-11.8295898,4.0708008-8.5209961,7.859375-19.765625,8.644043-28.9526367.5234375-6.1254883-.9101562-7.4042969-5.1210938-7.7636719-1.9140625-.1635742-5.5307617.0415039-9.0522461.640625-12.8701172,21.2651367-22.7519531,37.6445312-33.7836914,53.9257812-3.2426758,4.8642578-5.7763672,5.9326172-7.9453125,5.7475586-3.7001953-.315918-5.1274414-4.6791992-4.8222656-8.2524414.2177734-2.5517578,1.4462891-4.8891602,3.8662109-7.6386719,11.972168-13.7587891,22.4667969-28.2861328,30.8120117-41.7119141-6.1386719,1.1459961-11.3959961,2.496582-14.9609375,3.6064453-.9262695.3061523-1.7358398.7509766-2.6728516,1.1850586-.6694336.3286133-1.9785156.6020508-3.1269531.5043945-2.4248047-.2075195-6.7749023-4.9487305-8.3374023-10.737793-.4013672-1.3198242-.5581055-2.4897461-.4277344-4.0214844.0654297-.7651367.2700195-1.6469727.4838867-2.6572266l1.4262695-.1352539c2.9902344,4.1108398,4.5830078,5.0185547,7.2626953,5.2475586,1.4042969.1196289,3.840332.199707,7.328125-.0166016,6.2011719-.3701172,11.7646484-.7944336,17.3276367-1.2192383,3.2353516-6.2792969,5.8222656-12.4848633,6.6669922-14.8544922.6635742-1.7431641,1.0493164-3.2519531,1.1474609-4.4008789.1196289-1.4033203-.3037109-2.4677734-1.2587891-3.3208008-1.6772461-1.4287109-4.6743164-2.4555664-6.9492188-2.9072266l.0136719-1.6699219c2.8320312-1.5566406,5.5556641-1.8388672,7.7255859-1.6533203,4.4658203.3813477,10.0117188,3.168457,13.355957,6.1533203,1.7939453,1.5673828,2.3964844,3.546875,2.2763672,4.9501953-.1416016,1.6591797-1.1333008,2.730957-2.7954102,4.1313477-.9697266.8168945-1.8334961,1.9003906-3.1455078,3.7158203-2.4960938,3.6435547-3.840332,5.8422852-5.8046875,9.2729492,2.5844727-.1645508,4.5200195-.2563477,8.3491211.0708008,8.6767578.7407227,12.2333984,8.7568359,11.5253906,17.0507812-1.5039062,17.6088867-5.9414062,28.9272461-11.6186523,38.2099609-7.1713867,11.7270508-15.7524414,15.878418-23.5366211,15.2133789-3.9550781-.3378906-5.7602539-1.7773438-5.3242188-6.8813477.1308594-1.53125-.453125-2.2241211-1.0878906-3.8208008-.9404297-2.5224609-2.159668-4.8115234-4.6835938-8.3691406l1.1533203-1.4438477ZM276.2749023,62.4873047c11.9819336,2.6938477,20.168457,9.1772461,26.925293,17.3383789,5.2529297,6.2319336,8.0986328,13.5444336,7.5869141,19.5419922-.4794922,5.6142578-3.3232422,7.300293-6.0029297,7.0712891-2.4248047-.2075195-3.8261719-1.8696289-5.2470703-3.2768555-2.2509766-2.2480469-5.2255859-3.5307617-8.4160156-3.8032227-3.7011719-.315918-8.3271484-.3256836-14.0073242-.0395508l-.1035156-1.8085938c6.7270508-1.9960938,10.9741211-3.5615234,14.3061523-4.9472656,2.2666016-.9638672,3.7363281-1.6088867,3.8242188-2.6298828.0976562-1.1484375.0449219-2.0527344-1.0234375-4.5859375-3.7460938-8.8032227-10.8359375-16.0927734-18.7700195-21.0117188l.9277344-1.8486328Z"/></g></g></g></svg>