<?xml version="1.0" encoding="UTF-8"?><svg id="_レイヤー_2" xmlns="http://www.w3.org/2000/svg" xmlns:xlink="http://www.w3.org/1999/xlink" viewBox="0 0 552.3818359 211.0741241"><defs><style>.cls-1{filter:url(#drop-shadow-1);}.cls-2{filter:url(#drop-shadow-3);}.cls-3{filter:url(#drop-shadow-2);}.cls-4{fill:#17a5a2;}</style><filter id="drop-shadow-1" filterUnits="userSpaceOnUse"><feOffset dx="2" dy="2"/><feGaussianBlur result="blur" stdDeviation="2"/><feFlood flood-color="#0d5450" flood-opacity=".65"/><feComposite in2="blur" operator="in"/><feComposite in="SourceGraphic"/></filter><filter id="drop-shadow-2" filterUnits="userSpaceOnUse"><feOffset dx="2" dy="2"/><feGaussianBlur result="blur-2" stdDeviation="2"/><feFlood flood-color="#0d5450" flood-opacity=".65"/><feComposite in2="blur-2" operator="in"/><feComposite in="SourceGraphic"/></filter><filter id="drop-shadow-3" filterUnits="userSpaceOnUse"><feOffset dx="2" dy="2"/><feGaussianBlur result="blur-3" stdDeviation="2"/><feFlood flood-color="#0d5450" flood-opacity=".65"/><feComposite in2="blur-3" operator="in"/><feComposite in="SourceGraphic"/></filter></defs><g id="pc"><g id="intro"><path class="cls-4" d="M144.3095093-.4711914c3.4164429,6.4536743,4.352478,10.2505493,3.8110352,13.5950928-.4871826,2.7525024-2.1363525,4.8555298-4.5042114,6.2232056-3.6784058,2.1246948-7.446228,1.3241577-9.9605103-2.7457275-1.5387573-2.5240479-2.3499146-6.4256592-1.7260742-11.8469849-.4007568.4417725-1.1470947.991333-1.6774292,1.2790527-1.3963623.7765503-2.8748779,1.0764771-4.4348755.048584.1162109-.1998291.2327881-.3995361.3496704-.5991821,1.2211914.2744751,2.0101318-.005188,2.742981-.4521484.7334595-.4468994,1.6511841-1.2758789,2.8066406-2.5678101.6090088-.6638794.8656006-1.0822144,1.0176392-1.5429077.0847168-.286499.3532715-.5429688.7583008-.7744751,1.2775269-.7310181,2.4231567-.7963257,2.7164917-.2562256.2806396.5158081.0377197.8848267-.5940552,1.5784912-.6646729.7796021-1.09729,1.604187-1.3105469,2.3031616-1.3829956,4.3927002-.9169312,8.9724121.8068848,11.8304443,1.8226318,3.0111084,4.6483154,3.4709473,7.1467896,2.0256958,2.2212524-1.2861328,3.5405884-3.2176514,3.777771-6.1785278.2287598-3.3879395-.7587891-7.5639648-3.1237183-12.117981-.3209839-.6260986-.7705688-1.1190186-1.2392578-1.567749-.2543335-.2636719-.5275269-.4838867-.6620483-.744873-.1604004-.3120117.0198975-.7398682.5576782-1.0201416.6948853-.3634033,1.7282104-.3654785,2.0864868.2739258.2227783.4458618.5665283.8956909.9761963,1.2453003,1.6401978,1.4664307,4.6880493,2.7797852,7.5586548,3.286438,1.1900024.2088623,1.8162231.4313965,2.4294434.7909546.5144653.309082.7340698.6265869.9178467,1.0259399.2211914.4793091-.0377197.9568481-.4605713,1.1576538-.3629761.1715088-.8400269.3342285-1.5296631.2116089-1.1211548-.1704102-1.9860229-.0275879-4.8156128,1.3424683-.1032715-.1558228-.206665-.3117065-.3101196-.4675293.9171143-.6661377,1.8885498-1.3803711,2.6080933-1.9959717-2.9069824-1.017395-4.5922852-1.8302612-6.6269531-3.3880615-.0309448.0160522-.0619507.0321655-.0929565.0482788Z"/><path class="cls-4" d="M171.3242798-4.5189819c.7841187-.9526978,1.6585083-1.5872192,2.7261963-1.9714966,1.2260132-.4407959,2.3565063-.3371582,3.3790894.2091064.8109131.4348755,1.4591064,1.2362671,2.367981,3.2512207,1.0149536,2.2254028,1.9104614,2.694397,3.25,2.2572632,1.8273315-.593689,3.1078491-1.7283325,4.3154907-3.8029175,1.3395386-2.3269043,2.0739136-4.7871094,2.5199585-8.2549438.2720337-.0140991.5440063-.027771.8158569-.0406494.0561523,3.204895-.3724365,6.2391968-1.4674683,8.7234497-1.2042847,2.6984253-3.1723022,4.6768188-5.2807617,5.3621216-2.8267212.9189453-4.9013062.1687012-6.109375-3.3250122-1.1087036-3.2449951-2.1140747-3.8312988-3.8356323-3.2103882-1.5348511.5541382-2.5525513,2.3189087-2.8947754,3.7373657-.4561768,1.8704834-.739624,3.6807861-.9456787,5.9719238-.0649414.6257935-.3134766,1.0411987-.8679199,1.2979126-.6122437.2809448-1.3936157.0645142-1.6820679-.640686-.1995239-.4885864-.1168823-1.3153687.0455322-2.0476685.3554688-1.3804932.708374-2.7227783.9519653-3.7336426.809021-3.7283325,1.7271118-8.5651245,2.6368408-13.6264648.1166382-.8205566.1323853-1.4165039-.0125122-1.8326416-.2107544-.6073608-.8118286-.9595337-2.4910889-.7509155-.059021-.1657715-.117981-.3314209-.177063-.4970703.565918-.3007812,1.0435791-.536499,1.506958-.7027588.8633423-.3108521,2.6102905.0077515,3.9735718.6895752.4076538.2324829.5982056.477478.6904297.7556763.09198.2783813-.0974731.5900269-.4300537,1.0142822-.2997437.4127808-.5007935.7929077-.7248535,1.7404175-.8925781,3.3552856-1.6264648,6.4318237-2.302124,9.4115601.013855.005127.0276489.0102539.0415039.0153809Z"/><path class="cls-4" d="M325.7449951-6.8840332c1.5616455.8937988,2.6143799,1.362915,3.77948,1.819519,4.1529541,1.6292114,8.1383057,1.4390259,8.9736328-.406311.4537354-1.015564-.4577637-2.3814087-2.5231934-3.2433472-2.2999268-.9450073-5.8161621-1.059021-12.9625244-.0032349,1.4384766,5.1177979,1.9780273,7.9370117,2.2687988,10.6212158.177124,1.6386719.1375732,2.4118652-.1201782,3.0667114-.2911377.7358398-1.1383057,1.19104-1.8336792.9251099-.6080322-.2330322-.7687988-.7633057-.7258911-1.8432007.1008911-4.2496948-.1863403-7.8607788-1.3691406-12.4927979-1.0964966.1474609-1.6487427.2393799-2.7988281.4717407-.7828979.1723022-1.3096313.3074341-1.7018433.4569702-.2405396.1068726-.5336304.1658325-.8414917.0664673-.5562744-.1793823-1.1402588-.7971802-1.8614502-1.7573853-.4864502-.734436-.6655273-1.3713989-.5766602-2.5390015.2044067-.0297852.4088745-.0593262.6136475-.0884399.4251709.9584961.9432373,1.4891357,1.5687866,1.6872559.3755493.1189575,1.0785522.1895142,1.7046509.1779785.6188354.0166016,1.8215942-.0526123,3.3806763-.2021484-.1747437-.7094727-.3357544-1.260498-.5563965-1.9517212-.2212524-.6929321-.2036743-1.0574341-.0048828-1.6400146.3458862-1.02771,2.0245972-2.1715088,3.6380615-1.9216309,1.0014038.1312866,2.5995483.6231079,5.0830688,1.5797729-.2988281-1.7069092-.2404785-2.5577393.050293-3.3261108.1445312-.3840942.3658447-.6780396.7888184-1.3023682.2141113.0892944.4281006.178894.6419678.2687988-.3734741,1.3626709-.2290649,2.2593994.413147,3.7268677.5780029,1.2556763.635376,1.8458862.3863525,2.5667114-.2810059.7084351-1.0212402,1.1130981-1.494812.9319458-.3153076-.119812-.5994873-.4160767-.7575684-.7575684-.2316284-.4318237-.7196655-.8660278-1.4422607-1.2565918-.850708-.5322266-1.852417-.9549561-2.7582397-1.2435913-1.3557129-.4470825-2.300293-.2086792-2.5800171.5933228-.1157227.331604-.1435547.8184204-.0554199,1.3754272.0541382.4526367.2265015.9764404.5617676,2.2119751,3.494751-.2984619,6.4268799-.4089355,8.4710083-.3358765,2.1054688.0965576,4.2525635.4313965,5.946106,1.1447754,3.1738281,1.3366089,4.5645752,3.6211548,3.7025146,5.4804688-1.2507935,2.6921997-5.1340942,2.8942261-9.9768677.9396973-1.9437866-.7820435-3.6500854-1.7888794-5.4030762-3.28302.1236572-.1728516.2475586-.3457031.3716431-.5183716Z"/><path class="cls-4" d="M351.5638428,13.2583008c.5334473.8950195,1.2790527,1.9840088,1.9595337,2.4050903.9885254.5961304,1.6079102.482605,2.6695557.0148926,1.4783936-.664978,2.6049805-1.4614868,3.3566284-2.0723267,1.4124146-1.2073364,2.8953247-2.6742554,3.7675171-4.1000366.7335205-1.2003174.2351074-1.9464111-.5253296-2.3954468-.4682617-.2772217-1.5100098-.7182617-2.5377197-1.0374756-5.3487549,3.2472534-9.930542,6.0305786-13.1555786,7.9078979-.680603.4025879-1.1813354.4051514-1.6014404.1867065-.5587769-.2906494-.5988159-1.0361328-.3295898-1.5568237.1895142-.3640137.5050659-.630127,1.0623779-.8702393,4.1483154-2.0119629,8.0240479-4.1397705,11.6898804-6.4202881-1.4237671-.4283447-2.6290894-.7529297-3.8741455-.9901733-.3947144-.0465698-.7012329-.043396-.9190063-.0596924-.1902466-.0018311-.4534302-.0758057-.6600342-.1846313-.4717407-.2501831-.9237671-1.24823-1.0608521-2.5065918-.0455322-.4196777.0439453-.736084.2474976-1.1258545.0681763-.130127.1227417-.2332764.2618408-.4258423.1351318.0584717.2702637.1173096.4052734.1761475.1008911,1.0424194.437439,1.4833374,1.124939,1.8460083.3877563.2053833.9811401.4539185,1.7680664.7781372,1.4069824.5261841,2.855957,1.059021,4.2156372,1.5593872,1.3378906-.8939819,2.2425537-1.5569458,3.0606079-2.2033691.3719482-.2931519.7288818-.628479.8328857-.8052979.1482544-.253418.1760864-.6433105-.0982056-1.0707397-.2739258-.4277344-.8364258-.9173584-1.4911499-1.3187256.0675049-.1412354.1351318-.2823486.2026978-.4237061.7417603.1130981,1.3637085.3660278,1.7284546.574707.7910767.4509277,1.8394165,1.5013428,2.4071045,2.6561279.3128052.628479.3399048.9857788.1729126,1.2616577-.1376343.2253418-.3781128.3543701-.8277588.3609619-.4487915.0068359-.8981323.217041-1.3633423.4544067-.8355103.4606323-1.4622192.84198-2.395813,1.4177246.6928101.3010254,1.3853149.6053467,2.0025635.9714355,1.7064209,1.0118408,2.2026367,2.8011475.9907227,4.7390747-1.4577026,2.34021-3.6965942,4.6081543-6.2663574,6.1081543-2.5714111,1.5010986-4.6580811,1.6326904-6.5021362.5894165-.5789795-.3276367-.7514648-.7919922-.4760742-1.4110107.1451416-.3219604.1225586-.6705933.0838013-.9936523-.0376587-.3894653-.156189-.9596558-.4489746-1.8884888.1741943-.0494385.3485107-.0985107.5230103-.147522ZM364.4442749,17.6099243c1.8372803.5404663,3.130249.8640747,4.1985474,1.1132812.3859253.0790405.6932983.0379028.809021-.1321411.1298828-.1949463.2346191-.4082031.2025146-.9564819-.0710449-2.2265015-.9122314-4.4985962-2.5427856-6.8676147.1959229-.1192627.3920898-.2381592.588623-.3570557,2.0321045,2.0026855,3.1671143,4.0488281,3.8858643,6.399353.6231079,2.0771484.5324097,4.1199951-.1726074,5.1286011-.5540161.7924805-1.1222534.8630371-1.5834961.5487671-.2977905-.2035522-.5073853-.5933228-.673584-1.1647949-.1724243-.5055542-.6393433-.9949341-1.2024536-1.3325195-.8126831-.5028076-2.0648804-1.114624-3.7318726-1.7914429.0740967-.1959229.1481934-.3919678.222229-.5879517Z"/><path class="cls-4" d="M12.5488281,118.0019531c2.7563477-5.512207,4.75-10.9072266,6.5678711-17.4160156,8.2680664,2.4042969,8.8544922,2.9321289,8.8544922,3.8115234,0,.8208008-.6450195,1.3486328-2.9321289,1.6420898-3.1665039,4.6323242-5.746582,8.2680664-9.3823242,11.9624023,8.5615234,0,17.0644531-.293457,25.6254883-.6450195-1.8764648-2.8735352-4.1044922-5.3950195-6.8022461-7.4472656l.4106445-.762207c4.9257812,1.1142578,9.96875,3.9873047,13.1938477,7.0366211,2.2285156,2.1108398,3.1665039,4.1049805,3.1665039,5.6293945,0,2.4628906-1.5244141,4.1049805-3.6357422,4.1049805-1.5244141,0-2.7558594-.8212891-3.4008789-2.5214844-.527832-1.4077148-1.1142578-2.6977539-1.7592773-3.9291992-13.3696289,2.2871094-24.4526367,3.7529297-37.0600586,4.8085938-.527832,1.5244141-.9384766,1.9936523-1.7006836,1.9936523-.8208008,0-1.5244141-.7036133-3.6943359-8.3852539,3.987793.0585938,7.9165039.1171875,11.6694336.1171875h.8793945ZM15.7739258,151.6025391c0,1.3486328-1.6416016,2.6386719-4.984375,2.6386719-1.1137695,0-1.8759766-.527832-1.8759766-1.5834961,0-1.6416016.2929688-5.5708008.2929688-13.8974609,0-5.4536133,0-7.5058594-.1757812-10.3789062,3.9287109,1.1137695,5.980957,1.7587891,7.0952148,2.2866211h20.8754883c1.1728516-2.2866211,1.7592773-2.6972656,2.4042969-2.6972656.8212891,0,1.5249023.2929688,3.6943359,1.9350586,2.3457031,1.7006836,2.6386719,2.3457031,2.6386719,3.0493164s-.5864258,1.2900391-2.1694336,2.1108398v2.8149414c0,6.4501953.4106445,10.7895508.4106445,12.9003906,0,1.9936523-2.0527344,2.9907227-5.2192383,2.9907227-1.0551758,0-1.7592773-.4106445-1.7592773-1.6420898v-1.9350586H15.7739258v1.4077148ZM37.0014648,147.2631836v-13.6630859h-20.934082l-.293457.3515625v13.3115234h21.2275391Z"/><path class="cls-4" d="M72.355957,111.2583008l1.1142578.3520508-6.5087891,25.15625c-.8212891,3.1079102-.9384766,4.984375-.9384766,6.3330078,0,3.4599609,1.7592773,5.4536133,1.7592773,7.6816406,0,2.4628906-1.5249023,3.8706055-4.1049805,3.8706055-2.2280273,0-3.3422852-1.3491211-3.3422852-3.2255859,0-1.5830078.5864258-3.3422852.5864258-5.3359375,0-2.2871094-.8798828-3.4013672-3.3422852-4.0463867l.0585938-.762207c2.5214844,0,2.8730469-.4106445,4.2216797-3.8115234l4.222168-10.5551758c-.5864258.7036133-1.4658203,1.1728516-2.5800781,1.1728516-1.4658203,0-2.4628906-.8208008-2.9907227-2.5214844-.7036133-2.2285156-2.0522461-4.222168-3.6357422-5.1601562l.1762695-.8798828c6.9194336-.4101562,9.8510742,2.2285156,9.8510742,4.8671875,0,.1757812,0,.4106445-.0585938.5864258l5.512207-13.7216797ZM61.918457,102.1694336c6.8017578,0,9.675293,2.8730469,9.675293,5.6293945,0,2.4038086-1.8178711,3.5766602-3.6357422,3.5766602-1.4658203,0-2.6386719-.9379883-3.0493164-2.6386719-.5864258-2.5214844-1.8178711-4.6323242-3.2836914-5.746582l.293457-.8208008ZM71.5351562,124.2177734c2.4042969-3.987793,4.1635742-8.2094727,5.6293945-13.3110352,5.8051758,1.7587891,6.3916016,2.1694336,6.3916016,2.8144531s-.4106445,1.0556641-1.8178711,1.2314453c-2.4628906,3.9287109-5.4536133,7.0366211-9.4995117,9.7929688l-.7036133-.527832ZM100.4443359,109.2646484c-.1757812.2929688-.4106445.527832-.762207.7036133v2.4042969c0,3.2836914.2929688,5.512207.2929688,6.7436523,0,2.8730469-1.5244141,4.456543-5.1601562,4.984375-1.5244141.1757812-1.7592773,0-2.1108398-1.5834961-.527832-1.5830078-1.4663086-2.4628906-3.7529297-3.1665039l.1757812-.8793945c1.8178711.1757812,2.6386719.234375,3.5185547.234375,1.2314453,0,1.6416016-.234375,1.6416016-1.8178711v-7.6230469h-2.5800781c-.1757812.2929688-.527832.527832-.8793945.7036133-1.0556641,7.0952148-3.6943359,11.9038086-8.4443359,15.3637695l4.8671875.234375h12.8422852c.762207-1.5834961,1.2900391-2.1108398,1.8173828-2.1108398.7626953,0,1.5834961.234375,3.4599609,1.7001953,1.8764648,1.4663086,2.1694336,1.9941406,2.1694336,2.5214844,0,.7041016-.2929688,1.0556641-1.5830078,1.7592773v.762207c0,.9384766.1757812,2.2285156.1757812,3.3427734,0,1.4658203-1.6416016,2.3457031-4.0458984,2.3457031-.9970703,0-1.5834961-.2348633-1.8178711-.8212891h-19.409668l-.1171875.0585938-.5864258,3.6357422h23.5727539c1.0556641-1.9936523,1.4077148-2.2280273,1.9941406-2.2280273.6450195,0,1.0551758.1757812,3.2250977,1.7001953,2.1694336,1.5249023,2.4042969,2.0527344,2.4042969,2.6977539,0,.46875-.3520508,1.0551758-1.8178711,1.7587891-.2348633,1.9941406-.7041016,4.4570312-1.2314453,6.3920898-1.1142578,3.9873047-3.1079102,5.5117188-7.3886719,5.8051758-1.5249023.1171875-1.7592773-.0585938-2.2285156-1.5834961-.8208008-1.9936523-2.1108398-3.2836914-4.9257812-4.1044922l.0585938-.8798828c2.5805664.3520508,4.1635742.4106445,5.6298828.4106445,1.8173828,0,2.6972656-.5864258,3.0488281-1.7006836.4106445-1.2900391.8212891-3.2836914,1.1142578-5.3359375h-23.9248047l-.1757812,1.0551758c-.1762695,1.1728516-1.1728516,1.8764648-4.1049805,1.8764648-1.4658203,0-2.1108398-.5859375-2.1108398-1.8173828.996582-3.6943359,1.9350586-8.2685547,2.4628906-12.5493164,2.8144531.8798828,4.456543,1.4077148,5.3945312,1.8769531h18.940918v-3.6357422h-12.8422852l-5.8637695.2929688v-2.8144531c-2.2285156,1.4658203-4.9257812,2.6386719-8.0336914,3.5766602l-.3520508-.8208008c7.3886719-4.5737305,11.0244141-10.203125,11.9624023-19.4682617h-5.3945312l-5.8642578.2929688v-3.5180664l5.8642578.2929688h9.5581055v-.3515625c0-1.4663086-.1171875-3.6357422-.2929688-5.3364258,7.0952148.4692383,7.9746094.8798828,7.9746094,1.6420898,0,.6450195-.2929688,1.1142578-1.9350586,1.7001953v2.3457031h7.5644531c1.1728516-1.5244141,2.4042969-2.9907227,3.7529297-4.5151367,5.6293945,4.5151367,6.1572266,5.4536133,6.1572266,6.0986328,0,.7036133-.2929688,1.3486328-.9379883,1.3486328h-10.9658203ZM100.6787109,111.9619141c6.7436523.8798828,10.8486328,4.5151367,10.8486328,7.7993164,0,2.2866211-1.1142578,3.6357422-3.0493164,3.6357422-1.7592773,0-2.8149414-.9384766-3.2836914-2.5805664-.9384766-3.3422852-2.6391602-6.3330078-4.9257812-8.1508789l.4101562-.7036133Z"/><path class="cls-4" d="M156.7329102,103.8110352c1.1728516-2.0522461,1.8178711-2.6386719,2.5800781-2.6386719.8798828,0,1.7006836.4692383,3.8706055,2.1108398,1.5244141,1.1142578,2.1694336,1.8764648,2.1694336,2.5805664,0,.8208008-.8208008,1.2900391-2.2280273,2.1694336v6.9780273c0,16.3603516,1.4072266,23.8076172,3.0488281,27.6777344.6450195,1.4663086.9970703,1.6420898,1.3491211,1.6420898.5273438,0,.8208008-.2929688,1.1723633-.8793945.8212891-1.2900391,1.4077148-2.4628906,1.9355469-3.7529297l.7036133.234375c-.6450195,2.6386719-1.1728516,5.9223633-1.1728516,7.3886719,0,1.2900391,1.0556641,2.5214844,1.0556641,4.1630859,0,1.3491211-.9384766,2.7563477-3.1079102,2.7563477-2.1113281,0-4.3393555-1.5834961-6.1572266-5.277832-3.1665039-6.5087891-4.9257812-14.1318359-4.9257812-33.8349609v-8.3852539h-29.4370117l-.1171875.1171875v12.3730469c0,19.0576172-3.8120117,28.4399414-11.2001953,35.5356445l-.6450195-.5864258c3.8115234-7.3300781,5.5117188-16.3017578,5.5117188-34.9492188,0-11.7866211-.1757812-14.6601562-.3515625-17.3574219,3.3422852.8798828,5.3359375,1.4658203,6.5087891,1.9350586h29.4370117ZM139.3759766,134.5966797h-3.7529297v.8212891c0,1.2314453-1.1142578,2.4628906-3.987793,2.4628906-1.0551758,0-1.6416016-.527832-1.6416016-1.5249023,0-.996582.234375-4.6323242.234375-10.7895508,0-3.1079102-.0585938-4.5737305-.234375-6.6850586,2.5800781.7036133,4.2216797,1.1728516,5.2773438,1.5249023h4.1049805v-5.8056641c-3.3427734.293457-6.7436523.4692383-10.0864258.4692383l-.1171875-.8793945c7.0957031-1.3486328,14.425293-3.7529297,20.7583008-6.9194336,4.9257812,3.6943359,5.3364258,4.2807617,5.3364258,5.0429688,0,.4101562-.4106445.762207-1.3486328.762207-.4692383,0-1.0556641-.0585938-1.7592773-.2929688-1.9936523.4101562-4.1635742.762207-6.3330078,1.0551758-.1171875.6450195-.3520508,1.1142578-.9384766,1.4072266v5.1606445h3.8120117c.762207-1.5249023,1.230957-1.9350586,1.8173828-1.9350586.7626953,0,1.2314453.1757812,3.1079102,1.5244141,1.8178711,1.3486328,2.1699219,1.9936523,2.1699219,2.5214844,0,.7036133-.4106445,1.2314453-1.7592773,1.9350586v2.4042969c0,3.4008789.1757812,6.0400391.1757812,7.0366211,0,1.8178711-1.6416016,2.5800781-3.9873047,2.5800781-.9970703,0-1.5834961-.4101562-1.5834961-1.4658203v-.4106445h-3.7529297v9.3823242c1.8764648-.1171875,3.7529297-.234375,5.5708008-.4101562-.9379883-1.9936523-2.0522461-3.8701172-3.5766602-5.4536133l.5864258-.7036133c3.7529297,1.2314453,7.1538086,3.5185547,9.3823242,6.5087891,1.230957,1.7006836,1.8173828,2.9907227,1.8173828,4.6914062,0,2.1694336-1.2314453,3.6357422-3.1079102,3.6357422-1.7001953,0-2.8730469-1.1142578-3.2836914-3.1079102-.2929688-1.3486328-.6450195-2.6391602-1.1142578-3.9291992-7.3295898,2.4628906-14.1318359,4.1049805-21.0512695,5.3950195-.4106445,1.2900391-.8798828,1.9350586-1.5249023,1.9350586s-1.3486328-.527832-3.0493164-7.9165039c4.75-.0585938,9.3823242-.1757812,13.8393555-.3515625v-9.6757812ZM135.7402344,123.3378906l-.1171875.1176758v8.2094727h3.7529297v-8.3271484h-3.6357422ZM144.8876953,123.3378906v8.3271484h3.7529297v-8.3271484h-3.7529297Z"/><g class="cls-1"><path class="cls-4" d="M333.5761719,122.1791992c1.84375-2.1074219,5.1210938-3.8129883,7.4648438-4.0336914,2.4511719-.2304688,5.8242188.2045898,8.375,1.0395508,2.21875.7578125,3.2988281,1.9467773,3.4492188,3.5444336.0898438.9589844.0625,1.8208008-.1660156,2.8095703-.1425781.765625-.1484375,1.8413086.234375,3.6313477.2070312,1.0556641.6757812,2.6230469,1.2734375,4.394043,2.0605469-.9453125,3.578125-1.9477539,5.5976562-3.3208008.609375-.3793945,2.2226562-1.4980469,3.3828125-2.8969727.578125-.6987305,1.8066406-1.3520508,4.8945312-1.6425781,3.515625-.3305664,5.8164062,1.2792969,6.0585938,3.8359375.1386719,1.4916992-.59375,2.8500977-2.8164062,4.3491211-4.2539062,2.7646484-9.3691406,5.5019531-14.109375,7.6674805,1.5429688,3.831543,3.5820312,8.3681641,5.5410156,12.0527344,3.1816406-1.5888672,6.0429688-3.1474609,8.6738281-4.8999023.7050781-.4956055,2.4160156-1.7319336,3.5839844-3.0234375,1.1679688-1.2919922,3.4003906-2.6845703,6.1699219-2.9453125,3.4082031-.3203125,5.6132812,1.40625,5.8535156,3.9628906.1816406,1.9179688-.9472656,3.6362305-3.6914062,5.2915039-3.3554688,2.034668-9.6894531,5.5317383-16.5761719,8.8671875,4.2421875,6.2636719,7.9648438,10.4272461,11.8320312,13.8242188,1.4082031,1.2651367,3.1699219,4.0009766,3.4804688,7.3032227.4414062,4.6870117-1.2402344,6.2421875-3.4765625,6.4526367-1.2792969.1201172-3.0410156-.3588867-5.2265625-1.8730469-3.9121094-2.7480469-12.4765625-5.8115234-23.0214844-4.8193359-10.6542969,1.0024414-15.9667969,5.0483398-15.4863281,10.1616211.5410156,5.7524414,7.5664062,9.6054688,20.9882812,8.3427734,2.34375-.2207031,4.6757812-.5473633,6.0507812-.7841797.9492188-.1967773,2.7304688-.6865234,3.5820312-.7666016,5.0078125-.4707031,9.5078125,1.684082,9.8789062,5.6259766.4316406,4.5800781-3.3339844,5.6865234-10.5761719,6.3681641-22.4785156,2.1142578-34.9570312-4.8789062-36-15.9575195-.921875-9.8007812,8.328125-16.581543,23.0292969-17.9643555,6.4980469-.6113281,11.7363281-.8891602,16.3886719-.5737305-2.9785156-4.234375-5.2265625-7.5688477-8.03125-12.2490234-8.3007812,3.1455078-15.5117188,5.328125-20.5175781,5.7993164-8.5214844.8017578-10.6347656-2.2236328-10.984375-5.9521484-.2207031-2.34375.8066406-5.1269531,3.6054688-8.5068359,2.4121094-2.9135742,5.6777344-5.9072266,9.1640625-8.8149414-3.2207031,1.1635742-5.7480469,1.7236328-8.0917969,1.9443359-1.171875.1098633-2.3515625.1132812-3.5332031.1171875-3.7597656.0307617-8.7734375-1.8613281-13.0703125-6.4008789l.8378906-1.3686523c3.0273438,1.3276367,6.4003906,1.762207,10.234375,1.4018555,4.1542969-.3911133,10.5820312-1.7480469,19.3867188-5.2626953-1.3554688-2.9892578-2.8691406-6.5004883-4.3496094-9.6928711-1.3457031-2.8828125-2.8710938-4.2431641-8.9335938-3.565918l-.3535156-1.4716797ZM338.46875,153.637207c-2.6054688,3.1469727-3.8085938,5.1943359-3.6777344,6.5791016s1.1679688,2.1469727,3.9394531,1.8867188c3.1933594-.3007812,9.2714844-1.9472656,17.8632812-5.4423828-1.9882812-4.0039062-3.9765625-8.0083008-5.9960938-12.331543-5.1914062,3.0673828-9.9082031,6.6274414-12.1289062,9.3081055Z"/></g><g class="cls-3"><path class="cls-4" d="M440.0214844,97.5927734c3.1347656-4.784668,4.4550781-5.7744141,6.1044922-5.7744141,1.9804688,0,3.4648438.4946289,10.3945312,5.609375,4.9501953,3.6298828,5.7753906,5.9399414,5.7753906,6.9296875,0,2.1450195-1.4853516,3.9599609-5.6103516,5.1147461-9.5693359,31.84375-32.6679688,59.7280273-59.8925781,72.4321289l-1.484375-1.9799805c7.0947266-6.2695312,13.1992188-13.0341797,18.8085938-20.7890625,8.9101562-12.3745117,16.0048828-26.2338867,21.1191406-40.753418,1.4853516-4.1245117,2.640625-8.2495117,3.7949219-12.5390625h-21.7783203l-16.5.824707v-9.8994141l16.5.824707h22.7685547ZM423.6875,54.8598633c21.1191406.824707,32.6679688,10.0644531,32.6679688,20.2939453,0,7.0947266-4.6191406,10.5595703-9.8994141,10.5595703-5.4443359,0-8.2490234-2.6396484-9.5693359-7.5898438-2.4746094-8.7446289-7.4248047-16.4990234-14.1894531-20.9541016l.9902344-2.3095703ZM551.3916016,163.590332c-6.2695312.3300781-12.8691406,3.9599609-17.3242188,8.909668-1.484375,1.9799805-2.3095703,2.8046875-3.2998047,2.8046875-.8251953,0-1.8144531-.6601562-3.4648438-1.8149414-22.1083984-17.1591797-36.6279297-42.5683594-42.8984375-70.4521484.1650391,54.612793.9902344,66.8222656.9902344,71.9370117,0,11.5498047-8.5791016,18.6445312-23.7587891,18.6445312-3.1347656,0-3.4648438-.3300781-4.125-3.4648438-1.6494141-8.0849609-5.609375-11.8798828-16.1689453-15.5097656l.1650391-2.4746094c6.7646484.824707,12.0439453,1.3198242,18.6435547,1.3198242,5.2802734,0,6.2705078-.9897461,6.2705078-6.4345703v-97.5112305c0-13.0341797-.1650391-20.4589844-.6601562-26.5639648,22.2734375,1.8149414,25.0791016,3.2998047,25.0791016,5.2797852,0,2.3100586-1.6503906,3.4648438-6.6005859,5.2797852v39.2685547c3.1357422,7.2597656,6.9296875,14.1894531,11.3847656,20.4589844,9.8994141-11.3842773,20.1298828-25.7387695,27.71875-39.2680664,17.4892578,11.2192383,19.7998047,13.5292969,19.7998047,15.6743164,0,2.6396484-1.8154297,3.7949219-11.2197266,4.4545898-8.4150391,7.4248047-20.2939453,16.0043945-33.3291016,23.2641602,13.2001953,17.6542969,32.0087891,33.3286133,53.7880859,43.8881836l-.9902344,2.3100586Z"/></g><g class="cls-2"><path class="cls-4" d="M223.4594727,147.484375c4.2358398,3.0610352,7.5283203,5.1416016,10.1645508,5.8813477.8828125.2036133,1.637207.3964844,2.402832.4619141,1.6591797.1416016,3.3623047-.2270508,5.5449219-1.7109375,3.0029297-2.0571289,6.6401367-7.0161133,8.9780273-11.8295898,4.0708008-8.5209961,7.859375-19.765625,8.644043-28.9526367.5234375-6.1254883-.9101562-7.4042969-5.1210938-7.7636719-1.9140625-.1635742-5.5307617.0415039-9.0522461.640625-12.8701172,21.2651367-22.7519531,37.6445312-33.7836914,53.9257812-3.2426758,4.8642578-5.7763672,5.9326172-7.9453125,5.7475586-3.7001953-.315918-5.1274414-4.6791992-4.8222656-8.2524414.2177734-2.5517578,1.4462891-4.8891602,3.8662109-7.6386719,11.972168-13.7587891,22.4667969-28.2861328,30.8120117-41.7119141-6.1386719,1.1459961-11.3959961,2.496582-14.9609375,3.6064453-.9262695.3061523-1.7358398.7509766-2.6728516,1.1850586-.6694336.3286133-1.9785156.6020508-3.1269531.5043945-2.4248047-.2075195-6.7749023-4.9487305-8.3374023-10.737793-.4013672-1.3198242-.5581055-2.4897461-.4277344-4.0214844.0654297-.7651367.2700195-1.6469727.4838867-2.6572266l1.4262695-.1352539c2.9902344,4.1108398,4.5830078,5.0185547,7.2626953,5.2475586,1.4042969.1196289,3.840332.199707,7.328125-.0166016,6.2011719-.3701172,11.7646484-.7944336,17.3276367-1.2192383,3.2353516-6.2792969,5.8222656-12.4848633,6.6669922-14.8544922.6635742-1.7431641,1.0493164-3.2519531,1.1474609-4.4008789.1196289-1.4033203-.3037109-2.4677734-1.2587891-3.3208008-1.6772461-1.4287109-4.6743164-2.4555664-6.9492188-2.9072266l.0136719-1.6699219c2.8320312-1.5566406,5.5556641-1.8388672,7.7255859-1.6533203,4.4658203.3813477,10.0117188,3.168457,13.355957,6.1533203,1.7939453,1.5673828,2.3964844,3.546875,2.2763672,4.9501953-.1416016,1.6591797-1.1333008,2.730957-2.7954102,4.1313477-.9697266.8168945-1.8334961,1.9003906-3.1455078,3.7158203-2.4960938,3.6435547-3.840332,5.8422852-5.8046875,9.2729492,2.5844727-.1645508,4.5200195-.2563477,8.3491211.0708008,8.6767578.7407227,12.2333984,8.7568359,11.5253906,17.0507812-1.5039062,17.6088867-5.9414062,28.9272461-11.6186523,38.2099609-7.1713867,11.7270508-15.7524414,15.878418-23.5366211,15.2133789-3.9550781-.3378906-5.7602539-1.7773438-5.3242188-6.8813477.1308594-1.53125-.453125-2.2241211-1.0878906-3.8208008-.9404297-2.5224609-2.159668-4.8115234-4.6835938-8.3691406l1.1533203-1.4438477ZM276.2749023,105.4672852c11.9819336,2.6938477,20.168457,9.1772461,26.925293,17.3383789,5.2529297,6.2319336,8.0986328,13.5444336,7.5869141,19.5419922-.4794922,5.6142578-3.3232422,7.300293-6.0029297,7.0712891-2.4248047-.2075195-3.8261719-1.8696289-5.2470703-3.2768555-2.2509766-2.2480469-5.2255859-3.5307617-8.4160156-3.8032227-3.7011719-.315918-8.3271484-.3256836-14.0073242-.0395508l-.1035156-1.8085938c6.7270508-1.9960938,10.9741211-3.5615234,14.3061523-4.9472656,2.2666016-.9638672,3.7363281-1.6088867,3.8242188-2.6298828.0976562-1.1484375.0449219-2.0527344-1.0234375-4.5859375-3.7460938-8.8032227-10.8359375-16.0927734-18.7700195-21.0117188l.9277344-1.8486328Z"/></g></g></g></svg>