<?xml version="1.0" encoding="UTF-8"?><svg id="_レイヤー_2" xmlns="http://www.w3.org/2000/svg" viewBox="0 0 452.5 210.3154297"><defs><style>.cls-1{fill:#17a5a2;}</style></defs><g id="ice_x5F_02"><polygon class="cls-1" points="452.5 210.3154297 0 210.3154297 0 0 1 0 1 209.3154297 452.5 209.3154297 452.5 210.3154297"/><path class="cls-1" d="M65.3300781,94.5664062l-12.5292969,30.9619141c-1.0078125,2.4482422-1.2958984,4.0322266-1.2958984,5.8330078,0,3.5283203,1.7280273,4.2480469,1.7280273,8.2802734,0,2.8808594-2.0161133,4.6083984-4.8242188,4.6083984-2.0883789,0-3.7446289-1.2958984-3.7446289-3.8164062,0-2.3759766.8642578-4.3203125.8642578-6.6962891,0-2.4482422-1.1523438-3.671875-3.6723633-4.1044922l.0722656-.9355469c2.5200195,0,3.3842773-.4326172,5.6162109-4.5371094l16.4892578-30.1699219,1.2963867.5761719ZM43.2958984,93.9902344c7.5610352.1435547,12.3134766,3.5996094,12.3134766,7.2724609,0,2.8798828-1.800293,4.3925781-4.2485352,4.3925781-2.0161133,0-3.3125-1.0087891-3.8881836-3.0966797-1.1523438-4.0322266-2.3764648-5.9765625-4.5366211-7.5605469l.3598633-1.0078125ZM68.9301758,108.1035156c1.2241211-2.4482422,1.9443359-2.8085938,2.6645508-2.8085938.8637695,0,1.8720703.2880859,4.6801758,2.6640625,2.1601562,1.8007812,2.4482422,2.3759766,2.4482422,3.0966797,0,.8642578-.7919922,1.5839844-2.4482422,2.2324219-3.3120117,14.2568359-11.8808594,27.7216797-23.3300781,34.7783203l-.7197266-.7919922c8.3525391-9.3603516,13.7529297-21.9619141,16.2729492-35.5712891h-2.3759766l-5.2563477.3603516v-4.3203125l5.2563477.3603516h2.8081055ZM87.5800781,104.7910156c.7919922,2.8798828,1.7280273,5.6884766,2.8798828,8.4248047,3.6005859-4.4648438,6.769043-9.0009766,10.1533203-14.6894531,8.0644531,4.8964844,8.784668,5.6162109,8.784668,6.5527344,0,1.0078125-.8642578,1.4394531-3.8164062,1.5839844-4.1762695,3.3837891-8.5688477,6.1201172-14.1132812,8.7851562,3.3125,6.984375,7.8486328,13.3925781,13.5371094,18.6494141,1.800293,1.5839844,3.6723633,3.0244141,5.6166992,4.4638672l-.4321289,1.0087891c-2.7363281.359375-5.3286133,1.5839844-7.128418,3.0957031-.7202148.6484375-1.1523438.9365234-1.512207.9365234-.4321289,0-.7924805-.3603516-1.3681641-1.0800781-6.4804688-8.2089844-10.7290039-18.7216797-12.6010742-33.2675781.0717773,28.8027344.5039062,33.2675781.5039062,36.3632812,0,5.0410156-2.7363281,8.1367188-9.3608398,8.1367188-1.2958984,0-1.4399414-.1435547-1.800293-1.5117188-1.0078125-3.7441406-3.2402344-5.3291016-7.4165039-6.7685547l.0722656-1.0800781c2.5200195.2880859,4.6801758.5761719,7.5605469.5761719,2.3041992,0,2.9521484-.5761719,2.9521484-2.7363281v-42.7724609c0-5.6884766-.0717773-8.9287109-.2880859-11.5927734,9.5766602.7919922,10.6567383,1.4404297,10.6567383,2.3046875,0,1.0078125-.7197266,1.5117188-2.8798828,2.3037109v12.3134766Z"/><path class="cls-1" d="M125.8486328,126.3359375h-2.0878906l-5.7607422.359375v-4.3203125l5.7607422.3603516h2.0878906v-6.984375c0-4.6806641-.144043-7.9931641-.3598633-10.8730469,8.8564453.8642578,10.2246094,1.3681641,10.2246094,2.3037109,0,.9365234-.6479492,1.3681641-2.6640625,2.2324219v13.3212891h.3598633c1.2241211-1.65625,2.2324219-3.2402344,3.6723633-5.1123047,4.824707,5.4726562,5.5444336,6.4082031,5.5444336,7.2001953,0,.8642578-.3598633,1.5126953-1.0800781,1.5126953h-8.496582v19.7294922c2.8803711-.6484375,5.7602539-1.2958984,8.5688477-2.0878906l.4321289.9355469c-5.6166992,4.1767578-12.5292969,8.1367188-18.1459961,11.0175781-.3598633,1.3681641-.8637695,2.2314453-1.5839844,2.2314453-.9360352,0-1.5839844-1.5117188-4.5361328-9.5761719,2.7358398-.3603516,5.4003906-.7207031,8.0644531-1.1523438v-21.0976562ZM150.690918,141.0966797c-.0722656.3603516-.2163086.7207031-.5039062,1.0800781,7.4882812,1.5839844,8.5683594,2.0166016,8.5683594,2.9521484,0,.8642578-.7197266,1.3681641-2.5200195,1.8730469-3.8881836,14.7607422-13.609375,21.4570312-29.5224609,23.2578125l-.2880859-1.0087891c2.5922852-.8632812,5.0405273-1.7998047,7.4165039-3.0957031,4.0322266-2.2324219,7.5605469-5.1845703,10.152832-9.0009766,2.8803711-4.2480469,4.4643555-9.1445312,5.2563477-14.1855469-.9360352.5048828-2.3759766.8642578-4.1040039.8642578-1.2241211,0-1.8720703-.5761719-1.8720703-1.7998047,0-.8642578.2158203-4.6083984.2158203-20.5214844,0-4.1767578,0-7.0566406-.2158203-11.0898438,3.9599609,1.1523438,6.1923828,1.8730469,7.4882812,2.3769531h6.1928711c.5756836-2.9521484,1.0078125-6.1210938,1.3676758-9.6494141,8.5688477,1.65625,9.8652344,2.3769531,9.8652344,3.2402344.0717773.8642578-.7202148,1.4404297-3.2402344,1.9443359-1.2963867,1.5839844-2.7363281,3.2402344-4.0327148,4.4648438h12.097168c1.0083008-1.9443359,1.8720703-2.7363281,2.5205078-2.7363281.9360352,0,2.0161133.359375,4.6083984,2.1601562,2.4477539,1.65625,2.6640625,2.3037109,2.6640625,2.9521484,0,.8642578-.5039062,1.5117188-2.3041992,2.3759766v3.6728516c0,14.1132812.2158203,17.8574219.2158203,18.6494141,0,2.0878906-2.5200195,3.0957031-5.8325195,3.0957031-1.2241211,0-1.8720703-.5039062-1.8720703-1.7275391v-.1445312h-5.1123047c-.2163086.4326172-.6479492.6484375-1.1523438.7207031v12.3125c.5761719,0,1.2241211,0,1.800293-.0712891,1.1523438-3.4570312,1.9443359-7.1289062,2.7363281-11.2333984,6.7685547,1.9443359,7.2724609,2.3037109,7.2724609,3.0244141,0,.7919922-.4321289,1.0800781-2.4482422,1.4394531-1.5839844,2.6650391-3.0961914,4.6806641-4.8964844,6.6972656,1.7285156-.0722656,3.5283203-.1445312,5.2568359-.2880859-.3603516-1.1523438-.9360352-2.1601562-1.65625-2.9521484l.7919922-.7919922c4.6083984,1.7275391,6.6245117,4.1044922,6.6245117,6.5517578,0,.3603516,0,.7207031-.0717773,1.0087891.5039062-1.1523438.9360352-2.3759766,1.3681641-3.6005859l1.0800781.2158203c-.2880859,2.5927734-.5761719,4.8242188-.5761719,6.2646484s2.3041992,1.7998047,2.3041992,3.6728516c0,3.5996094-3.3125,5.4716797-14.4731445,5.4716797-11.6650391,0-12.5292969-1.2236328-12.5292969-4.4638672,0-2.5205078.2158203-7.7763672.2158203-17.1376953v-6.8408203h-8.8564453ZM150.8349609,116.3984375l-.144043.1445312v8.4248047h7.3447266v-8.5693359h-7.2006836ZM158.0356445,137.4970703v-8.9287109h-7.3447266v8.9287109h7.3447266ZM173.0126953,116.3984375h-6.984375c-.2163086.2880859-.5043945.5048828-.7919922.6484375v7.9208984h7.7763672v-8.5693359ZM173.0126953,128.5683594h-7.7763672v8.9287109h7.7763672v-8.9287109ZM166.7480469,160.8984375c0,1.5126953.2880859,1.8007812,4.96875,1.8007812,6.7685547,0,7.9204102-.4326172,9.1445312-2.5205078.2163086-.3603516.4321289-.7197266.5761719-1.1523438-.4321289.5039062-1.1523438.7919922-2.0161133.7919922-1.2963867,0-1.9443359-.8642578-2.0883789-2.1601562-.0717773-.7197266-.2158203-1.3681641-.2880859-2.015625-2.4482422,1.2958984-4.4643555,2.2314453-6.4082031,2.9521484-.5043945,1.5839844-1.0800781,2.0878906-1.65625,2.0878906-.6479492,0-1.0083008-.4316406-2.2324219-5.6162109v5.8320312Z"/><path class="cls-1" d="M264.6860352,161.3300781c-1.800293,1.296875-2.9526367,2.9521484-3.6005859,4.8964844-.5039062,1.8720703-.7919922,2.0888672-2.6640625,2.2324219-4.6806641.3603516-10.152832.5039062-18.9375.5039062-18.0737305,0-23.762207-2.0878906-28.8027344-10.9443359-2.3759766,3.3115234-5.1123047,6.4804688-7.7045898,9-.2880859,1.7285156-.7919922,2.5927734-1.65625,2.5927734s-1.65625-1.1523438-5.0405273-8.3525391c3.0961914-1.1523438,6.0488281-2.3769531,8.784668-3.7451172v-17.28125h-2.2319336l-5.7607422.3603516v-4.3203125l5.7607422.359375h2.1601562c1.3681641-2.8798828,2.1601562-3.4560547,2.9521484-3.4560547,1.0083008,0,1.65625.1445312,4.3925781,2.3046875,2.6640625,2.0878906,2.9521484,2.8798828,2.9521484,3.5996094,0,.8642578-.5039062,1.5126953-2.5922852,2.5205078v15.4091797c4.6083984,3.8886719,11.2329102,4.8242188,26.4262695,4.8242188,9.1450195,0,16.8496094-.5039062,25.5625-1.5839844v1.0800781ZM200.5283203,106.5332031c7.4887695.9365234,11.5927734,4.1044922,11.5927734,8.0654297,0,2.8798828-1.6557617,4.4638672-4.1762695,4.4638672-1.7280273,0-3.0239258-1.0800781-3.4560547-3.0244141-.8642578-4.2480469-2.1601562-6.7685547-4.3925781-8.5683594l.4321289-.9365234ZM222.2021484,117.7666016l-.144043.1435547v4.3212891c0,1.2958984.5039062,1.5839844,4.2485352,1.5839844,4.6801758,0,5.5444336-.4326172,6.4082031-1.5839844.5761719-.7929688,1.0805664-1.8730469,1.8725586-3.5283203l1.0800781.2158203v3.2402344c0,.9355469,2.0161133,1.2236328,2.0161133,2.9521484,0,2.4482422-2.4482422,3.9599609-12.1689453,3.9599609-8.7851562,0-9.9370117-1.1513672-9.9370117-4.1757812,0-1.3681641.144043-4.3203125.144043-7.7773438,0-2.015625,0-3.1679688-.144043-4.8964844,3.168457.8642578,5.1123047,1.4404297,6.3364258,1.9443359h6.7685547v-4.9677734h-7.7763672l-6.480957.359375v-4.3203125l6.480957.3603516h7.7763672c1.0083008-2.0878906,1.512207-2.4482422,2.2324219-2.4482422.8637695,0,1.512207.2158203,3.8164062,2.015625,2.3041992,1.7285156,2.5917969,2.2324219,2.5917969,2.953125,0,.7919922-.6479492,1.4394531-2.3037109,2.0878906v1.5117188c0,1.7285156.2158203,3.6728516.2158203,4.8964844,0,1.3681641-1.7280273,2.4482422-4.8242188,2.4482422-1.0805664,0-1.65625-.359375-1.7285156-1.2958984h-6.4804688ZM221.2661133,148.8730469l-6.4804688.3603516v-4.3203125l6.4804688.3603516h5.4726562v-6.0488281h-2.6645508l-6.4804688.3603516v-4.3212891l6.4804688.3603516h2.6645508c0-2.1601562,0-3.8164062-.144043-5.7607422,8.2807617.7207031,8.8564453,1.2246094,8.8564453,1.8720703,0,.7207031-.4316406,1.2246094-2.0878906,1.8007812v2.0878906h8.1367188c0-2.1601562,0-3.8164062-.144043-5.7607422,8.2807617.7207031,8.9287109,1.2246094,8.9287109,1.8720703,0,.7207031-.5039062,1.2246094-2.1601562,1.8007812v2.0878906h2.0161133c1.3681641-1.7285156,2.3759766-2.8798828,4.0322266-4.6806641,6.0488281,5.1132812,6.6245117,5.9052734,6.6245117,6.7685547,0,.8642578-.3598633,1.5126953-1.0800781,1.5126953h-11.5927734v6.0488281h4.0322266c1.3681641-1.7285156,2.8081055-3.2412109,4.4643555-5.0410156,6.3364258,5.5449219,6.9848633,6.2646484,6.9848633,7.1289062s-.3603516,1.5117188-1.0800781,1.5117188h-32.2587891c6.1923828,3.3847656,7.2001953,4.0322266,7.2001953,4.96875,0,.8642578-.9360352,1.4404297-3.5283203,1.3681641-4.7519531,2.0878906-10.9448242,3.8886719-16.3452148,4.3203125l-.3598633-.9365234c4.3203125-2.0878906,9.4326172-5.8320312,12.8168945-9.7207031h-8.784668ZM233.3632812,145.2734375h8.1367188v-6.0488281h-8.1367188v6.0488281ZM246.6123047,117.7666016l-.144043.1435547v4.3212891c0,1.2958984,1.0083008,1.5839844,5.6884766,1.5839844,4.6806641,0,5.3286133-.4326172,6.1923828-1.5839844.5761719-.7929688,1.3681641-2.4482422,2.0161133-4.3212891l1.0805664.2167969c-.0722656,1.65625-.144043,3.0957031-.144043,4.0322266,0,.9355469,2.0161133,1.2236328,2.0161133,2.9521484,0,1.9443359-1.5844727,3.9599609-11.4492188,3.9599609-10.5849609,0-11.8808594-1.1513672-11.8808594-4.1757812,0-1.3681641.144043-3.7441406.144043-7.7773438,0-2.015625,0-3.0234375-.144043-4.7519531,2.8081055.7919922,4.6801758,1.3681641,5.9042969,1.7998047h7.2006836v-4.9677734h-7.7763672l-6.480957.359375v-4.3203125l6.480957.3603516h7.7763672c1.0083008-2.0878906,1.512207-2.4482422,2.2324219-2.4482422.8637695,0,1.512207.2158203,3.8164062,2.015625,2.3041992,1.7285156,2.5917969,2.2324219,2.5917969,2.953125,0,.7919922-.6479492,1.4394531-2.3041992,2.0878906v1.5117188c0,2.4482422.144043,4.0322266.144043,5.0410156,0,1.3681641-1.6557617,2.3037109-4.7524414,2.3037109-1.0800781,0-1.6557617-.359375-1.7280273-1.2958984h-6.4804688ZM240.4916992,148.9453125c5.1123047,0,10.5131836.9365234,13.6811523,2.5917969,2.8081055,1.4404297,4.5366211,2.8808594,4.5366211,5.0410156s-1.3681641,3.6005859-3.3842773,3.6005859c-1.65625,0-2.8085938-.5048828-4.0327148-2.0166016-3.6000977-4.5361328-7.128418-6.7685547-11.0888672-8.2802734l.2880859-.9365234Z"/><path class="cls-1" d="M286.6811523,144.6074219c.0722656,3.3837891.0722656,6.7685547.0722656,10.1523438,2.3759766-1.0078125,4.6801758-2.0878906,6.984375-3.1679688l.5761719.9365234c-.5761719.5751953-1.1523438,1.1513672-1.800293,1.7275391l6.9125977.3603516h13.0332031v-4.7529297h-8.0649414l-7.0566406.3603516v-4.3203125l7.0566406.3603516h8.0649414v-4.7529297h-10.0087891c-.2880859,1.2958984-1.800293,2.2324219-4.6806641,2.2324219-1.2958984,0-1.8720703-.5039062-1.8720703-1.5117188,0-1.8730469.2158203-5.1845703.2158203-11.0175781,0-2.4482422,0-4.6806641-.2158203-6.984375,3.5283203,1.0078125,5.4003906,1.5839844,6.6245117,2.0878906h27.8666992c1.0800781-2.2324219,1.5839844-2.5195312,2.3041992-2.5195312.9360352,0,1.4399414.2158203,3.8881836,2.0878906s2.5922852,2.2324219,2.5922852,2.9521484c0,.8642578-.5761719,1.5117188-2.1601562,2.2324219v1.5839844c0,3.9599609.2158203,6.1923828.2158203,7.9208984,0,1.4394531-1.8720703,2.5195312-5.0405273,2.5195312-1.2241211,0-1.7998047-.4316406-1.7998047-1.4394531v-.1445312h-1.512207c6.0483398,5.3291016,6.4804688,6.2646484,6.4804688,6.8408203,0,.8642578-.4321289,1.5117188-1.1523438,1.5117188h-.1435547c5.9760742,5.3291016,6.4804688,6.0488281,6.4804688,6.8408203,0,.8642578-.3603516,1.5126953-1.0800781,1.5126953h-12.3852539c3.456543,1.2958984,3.8164062,1.7998047,3.8164062,2.4482422,0,.7197266-.7202148,1.2236328-2.9521484,1.5117188-1.5844727,1.5839844-3.2402344,3.0244141-4.824707,4.2480469h5.4003906c1.3681641-1.7275391,2.7363281-3.3837891,4.5366211-5.1123047,6.2646484,5.5449219,6.6967773,6.4091797,6.6967773,7.2011719,0,.8632812-.3603516,1.5117188-1.0800781,1.5117188h-17.9296875c-.2163086.4316406-.5761719.7197266-1.1523438.8642578v5.328125h5.2568359c1.5117188-1.7998047,2.8798828-3.3837891,4.6083984-5.0400391,6.1201172,5.6884766,6.5522461,6.5527344,6.5522461,7.1279297,0,.8642578-.4321289,1.5126953-1.1518555,1.5126953h-15.1933594c.0717773,4.7519531.2158203,6.6962891.2158203,7.7041016,0,1.5849609-2.4482422,2.6650391-5.7602539,2.6650391-1.3681641,0-1.9443359-.4326172-1.9443359-1.5126953,0-1.5117188.144043-4.5361328.144043-8.8564453h-9.2167969l-7.0566406.3603516v-4.3212891l7.0566406.3603516h9.2885742v-6.1923828h-12.8891602l-7.2001953.3603516v-4.3203125l7.2001953.359375h7.4169922c-.2880859-.4316406-.5039062-1.0078125-.6479492-1.7275391-.5761719-2.5205078-2.0166016-5.1123047-3.6005859-6.4804688h-3.2402344l-7.0566406.359375v-4.1757812c-1.800293,1.65625-3.6723633,3.3115234-5.6162109,4.7519531.2158203,16.3457031.5039062,19.8740234.5039062,23.0419922,0,3.7441406-2.7363281,6.8408203-7.3447266,6.8408203-1.2958984,0-1.4399414-.1445312-1.7280273-1.5126953-.6479492-3.0957031-2.4482422-4.6083984-5.1845703-5.4716797l.0717773-1.0800781c1.512207.2158203,2.8085938.2880859,4.3925781.2880859,1.7280273,0,2.1601562-.2880859,2.1601562-2.8085938v-14.1132812c-.8637695.5761719-1.7280273,1.1523438-2.5200195,1.65625-.2163086,2.1601562-.7202148,2.8085938-1.65625,2.8085938-.8642578,0-1.512207-1.0800781-3.8881836-8.28125,2.7358398-.9355469,5.4003906-1.8720703,8.0644531-2.8798828v-13.0332031h-1.512207l-5.472168.359375v-4.3203125l5.472168.3603516h1.512207v-6.7685547c0-4.3925781-.144043-7.7050781-.3598633-10.5849609,9.3608398.8642578,10.0805664,1.3681641,10.0805664,2.3046875,0,.9355469-.6479492,1.4394531-2.6640625,2.2314453v12.8173828h.5039062c.8642578-1.4404297,1.7285156-2.8085938,2.8803711-4.4638672,4.8964844,5.0400391,5.3286133,5.5439453,5.3286133,6.6240234,0,.7919922-.4321289,1.4404297-1.1523438,1.4404297h-7.5605469ZM302.4506836,130.0615234v7.8486328h5.0405273v-7.9921875h-4.8964844l-.144043.1435547ZM307.9951172,158.2167969c3.5283203,1.0800781,4.9682617,3.1679688,4.9682617,5.6884766,0,1.0800781-.2880859,1.8720703-.8637695,2.5195312h7.3442383c1.0083008-2.7363281,2.0161133-5.4003906,2.8085938-8.2080078h-14.2573242ZM319.012207,137.9101562v-7.9921875h-4.3208008c-.2158203.4316406-.5756836.6484375-1.0078125.7919922v7.2001953h5.3286133ZM324.340332,146.2636719c1.2963867-1.5849609,2.8803711-3.2402344,4.3925781-4.7529297h-7.9208984c-.2158203.5039062-.6479492.7207031-1.1518555.8642578v3.8886719h4.6801758ZM328.9487305,154.6162109c1.2963867-1.65625,2.7363281-3.2402344,4.1762695-4.7529297h-13.4648438v4.7529297h9.2885742ZM326.2124023,129.9179688c-.2158203.4316406-.5756836.6484375-1.0078125.7919922v7.2001953h5.1845703v-7.9921875h-4.1767578Z"/><path class="cls-1" d="M84.5336914,70.0068359c2.2216797-.5898438,4.7158203-1.4746094,6.5976562-2.3583984,1.1796875-.5673828,1.6787109-.8847656,2.2001953-1.4960938.5214844.4306641,1.0429688.90625,1.3144531,1.2470703.1816406.2490234.1132812.5439453-.1806641.5888672-.4082031.0908203-.9980469.3398438-2.0869141.8388672-2.2216797.9980469-5.2597656,2.0185547-7.8447266,2.7216797v3.8994141c0,1.2021484.3173828,1.5869141,1.1787109,1.7685547.9521484.2041016,2.0410156.25,3.4013672.25,1.6328125,0,3.71875-.1367188,5.7597656-.4990234.2490234-.0458984.2939453.0224609.3173828.2265625.0449219.3632812.0898438.7939453.1132812,1.0888672,0,.2490234-.0908203.2939453-.3632812.3173828-2.2216797.3173828-3.8320312.3847656-6.1445312.3847656-1.7011719,0-2.9023438-.1132812-4.0136719-.4082031-1.2246094-.3398438-1.7910156-1.2011719-1.7910156-2.8115234v-8.4345703c0-2.0185547,0-3.0380859-.2041016-4.0136719.7255859.0908203,1.3828125.1816406,1.859375.3173828.3398438.0908203.2490234.3857422.1357422.6347656-.2041016.4316406-.2490234,1.2021484-.2490234,2.7216797v3.015625ZM99.2270508,64.4287109c0,1.2695312-1.0205078,2.2900391-2.2910156,2.2900391-1.2695312,0-2.2900391-1.0205078-2.2900391-2.2900391s1.0205078-2.2900391,2.2900391-2.2900391c1.2705078,0,2.2910156,1.0205078,2.2910156,2.2900391ZM95.5083008,64.4287109c0,.7939453.6347656,1.4287109,1.4277344,1.4287109.7939453,0,1.4287109-.6347656,1.4287109-1.4287109s-.6347656-1.4287109-1.4287109-1.4287109c-.7929688,0-1.4277344.6347656-1.4277344,1.4287109Z"/><path class="cls-1" d="M105.1899414,64.2470703c.1591797-.1582031.2724609-.1357422.4082031-.0449219,1.2695312.7021484,2.7666016,1.7685547,4.0820312,3.015625.1582031.1582031.1806641.2490234.0673828.4306641-.1806641.2724609-.5888672.7939453-.7705078.9746094-.1367188.1591797-.2041016.1816406-.3632812.0234375-1.3378906-1.3154297-2.8339844-2.4716797-4.3076172-3.3564453.2949219-.3623047.6347656-.7705078.8837891-1.0429688ZM107.230957,76.2646484c2.4492188-1.2919922,4.4443359-2.5166016,6.5527344-4.2177734,2.2900391-1.8818359,4.171875-3.5595703,6.1220703-6.0986328.0908203.6347656.2265625,1.0654297.3857422,1.4960938.1357422.2949219.1132812.4765625-.1591797.7939453-1.5185547,1.7910156-3.5136719,3.6044922-5.5097656,5.2148438-1.9267578,1.5419922-4.1943359,2.9931641-6.8017578,4.421875-.6123047.3623047-1.0429688.7021484-1.2470703.8837891-.2275391.2041016-.4082031.2041016-.6123047-.0224609-.3408203-.3632812-.7480469-.9072266-1.1113281-1.5419922.8847656-.2490234,1.5644531-.5214844,2.3808594-.9296875Z"/><path class="cls-1" d="M133.1938477,66.8544922c.0673828-.8388672.1357422-1.5185547.1582031-2.4257812.0458984-.8613281.0224609-1.6328125-.1132812-2.4492188.7714844.0683594,1.3603516.1816406,1.8144531.3408203.3173828.1132812.3847656.3398438.1806641.7021484-.1582031.2949219-.2265625.8388672-.2939453,1.4970703-.0458984.7929688-.1142578,1.4511719-.2041016,2.3349609h3.8544922c.9746094,0,1.9042969-.0449219,2.8564453-.0449219.2949219,0,.3408203.0449219.3408203.2714844,0,.4990234-.0234375,1.2470703-.0683594,2.0869141-.0908203,2.5390625-.4306641,5.6005859-.8388672,7.1650391-.4541016,1.7001953-.9755859,2.3574219-2.0859375,2.7207031-.5214844.1816406-1.4736328.2724609-2.3583984.2724609-.2041016,0-.3173828-.0908203-.3632812-.2724609-.1357422-.5214844-.3847656-.8847656-.7929688-1.2695312,1.4052734.0673828,2.2900391-.0224609,2.9023438-.2265625.6572266-.2275391.8164062-.4541016,1.1787109-1.859375.4541016-1.7685547.703125-4.4677734.7714844-7.4375h-5.578125c-.3857422,2.6298828-1.0205078,4.6708984-2.0410156,6.3710938-.9296875,1.6328125-2.7890625,3.4472656-4.8066406,4.6708984-.2041016.1367188-.3857422.1591797-.5439453-.0224609-.25-.2949219-.7265625-.5664062-1.2246094-.7480469,2.4033203-1.2246094,4.1269531-2.8115234,5.2148438-4.5576172.8613281-1.4511719,1.5419922-3.3554688,1.859375-5.6914062h-2.6533203c-1.0205078,0-2.0175781.0224609-3.1289062.1132812-.2041016.0224609-.2265625-.0449219-.2714844-.2949219-.0458984-.3173828-.1142578-.90625-.1367188-1.3603516,1.2695312.0908203,2.3134766.1132812,3.5146484.1132812h2.8574219Z"/><path class="cls-1" d="M159.1557617,75.6982422c0,1.3603516.0234375,2.6523438.0683594,4.1035156.0224609.2041016-.0449219.2724609-.2265625.2724609-.4082031.0224609-.9072266.0224609-1.3154297,0-.1816406,0-.2265625-.0683594-.2265625-.2724609.0449219-1.3603516.0908203-2.7207031.0908203-4.0361328v-6.7109375c-2.3808594,2.1083984-4.6035156,3.6503906-7.1201172,5.1240234-.2041016.1132812-.3623047.0683594-.5214844-.0908203-.2949219-.2949219-.703125-.5214844-1.1337891-.7255859,2.8115234-1.5419922,5.1699219-3.1748047,7.0517578-4.7841797,1.7236328-1.4736328,3.3330078-3.0839844,4.3994141-4.3759766.9521484-1.15625,1.3603516-1.8369141,1.5644531-2.5625.6123047.3173828,1.2246094.6806641,1.5644531,1.0205078.2265625.2265625.1816406.4990234-.0908203.6347656s-.703125.5439453-1.2695312,1.2021484c-.9521484,1.15625-1.7685547,2.0625-2.8349609,3.1289062v8.0722656Z"/><path class="cls-1" d="M194.7329102,68.1923828c.0908203-.1582031.2041016-.2041016.3857422-.1582031,1.4736328.5439453,2.7666016,1.2236328,3.9902344,2.0634766.2275391.1582031.2041016.2939453.1132812.4755859-.1582031.3173828-.3847656.703125-.5888672.9755859-.1367188.1806641-.25.2041016-.4306641.0449219-1.2470703-.9746094-2.6757812-1.7236328-4.1728516-2.2900391.2949219-.4306641.5449219-.8847656.703125-1.1113281ZM198.2475586,76.8769531c2.0859375-1.0888672,4.1044922-2.2675781,6.2353516-3.9003906,1.9501953-1.5185547,4.421875-3.71875,6.4628906-6.2802734.0898438.5888672.203125.9521484.4306641,1.4736328.1132812.2265625.0673828.4082031-.1132812.6123047-1.9052734,2.2216797-3.8779297,3.9453125-5.9863281,5.5546875-2.0185547,1.5654297-4.2402344,2.9023438-6.6210938,4.2402344-.4990234.2724609-.8613281.5214844-1.0888672.7714844-.203125.2041016-.4306641.1582031-.6347656-.0683594-.2949219-.3398438-.7255859-.9746094-1.0654297-1.5185547.7939453-.1816406,1.4970703-.4316406,2.3808594-.8847656ZM197.4086914,63.0224609c.1357422-.2041016.2041016-.2041016.4082031-.1132812,1.4052734.5898438,2.7207031,1.4287109,3.9453125,2.3583984.2041016.1582031.1816406.2490234.0683594.453125-.1816406.2949219-.4316406.7255859-.6582031.9755859-.1357422.1582031-.2265625.1132812-.4082031-.0458984-1.1103516-1.0205078-2.5849609-1.9267578-4.0585938-2.5615234.2265625-.3173828.4765625-.7490234.703125-1.0664062Z"/><path class="cls-1" d="M229.2670898,77.0810547c.9970703,0,1.9042969-.0224609,2.8789062-.0224609.2724609-.0234375.3408203.0224609.3632812.2949219v.8154297c-.0224609.2949219-.0683594.2949219-.3173828.2949219-1.0664062-.0224609-1.9960938-.0449219-3.0615234-.0449219h-7.9130859c-.9072266,0-1.9277344.0224609-2.9023438.1132812-.25.0224609-.2949219-.0683594-.3173828-.3398438-.0683594-.2949219-.0908203-.7939453-.0908203-1.1796875,1.2695312.0908203,2.1992188.0908203,3.2421875.0908203h5.4199219l.8613281-6.2802734h-3.8320312c-.8613281,0-1.9052734.0224609-2.6533203.0673828-.2265625.0224609-.3173828-.0224609-.3398438-.2714844-.0449219-.2949219-.0908203-.8398438-.1132812-1.2470703,1.2695312.1132812,2.2216797.1357422,3.1748047.1357422h3.3095703c.5449219,0,.703125-.0683594.9072266-.1816406.1816406-.0908203.3173828-.0908203.4765625.0224609.2490234.1816406.6123047.4990234.8388672.8164062.1582031.2265625.1357422.3857422-.0458984.5439453-.2041016.1816406-.2714844.3632812-.3173828.8623047l-.8154297,5.5097656h1.2470703Z"/><path class="cls-1" d="M248.5180664,75.3574219h3.9453125c1.4511719,0,2.6982422-.0449219,4.171875-.0908203.2265625-.0224609.3173828.0458984.3173828.2724609v1.0429688c0,.2265625-.0683594.2949219-.3173828.2949219-1.2695312-.0224609-2.7441406-.0683594-4.1494141-.0683594h-9.5917969c-1.1103516,0-2.6757812.0683594-3.6728516.1132812-.25,0-.3173828-.0449219-.3632812-.3398438-.0449219-.3173828-.1132812-.8837891-.1132812-1.3378906,1.4736328.1132812,2.7441406.1132812,4.1494141.1132812h3.96875v-8.5253906h-2.2226562c-1.3603516,0-2.3808594.0449219-3.4462891.1132812-.2041016.0224609-.2265625-.0683594-.2724609-.3398438-.0449219-.2949219-.0908203-.9072266-.0908203-1.3378906,1.2246094.0908203,2.2226562.1132812,3.7412109.1132812h5.8730469c1.40625,0,2.5625-.0224609,3.9677734-.0683594.2041016-.0224609.2275391.0458984.2275391.2275391v1.0878906c0,.2265625-.0234375.2949219-.25.2949219-1.4511719-.0683594-2.5849609-.0908203-3.9228516-.0908203h-1.9492188v8.5253906Z"/><path class="cls-1" d="M263.9135742,64.2470703c.1591797-.1582031.2724609-.1357422.4082031-.0449219,1.2695312.7021484,2.7666016,1.7685547,4.0820312,3.015625.1582031.1582031.1806641.2490234.0673828.4306641-.1816406.2724609-.5888672.7939453-.7705078.9746094-.1357422.1591797-.2041016.1816406-.3632812.0234375-1.3378906-1.3154297-2.8339844-2.4716797-4.3076172-3.3564453.2949219-.3623047.6347656-.7705078.8837891-1.0429688ZM265.9545898,76.2646484c2.4492188-1.2919922,4.4443359-2.5166016,6.5527344-4.2177734,2.2900391-1.8818359,4.171875-3.5595703,6.1220703-6.0986328.0908203.6347656.2265625,1.0654297.3857422,1.4960938.1357422.2949219.1132812.4765625-.1591797.7939453-1.5185547,1.7910156-3.5136719,3.6044922-5.5097656,5.2148438-1.9267578,1.5419922-4.1943359,2.9931641-6.8017578,4.421875-.6123047.3623047-1.0429688.7021484-1.2470703.8837891-.2275391.2041016-.4082031.2041016-.6123047-.0224609-.3408203-.3632812-.7490234-.9072266-1.1113281-1.5419922.8847656-.2490234,1.5644531-.5214844,2.3808594-.9296875Z"/><path class="cls-1" d="M296.1342773,64.6777344c.7714844,0,1.0205078-.0224609,1.2929688-.1806641.1357422-.0908203.2949219-.0458984.453125.0673828.3173828.25.6582031.5898438.9296875.9296875.1357422.1816406.0908203.3398438-.1132812.5214844-.2265625.1816406-.4306641.4541016-.6572266.8388672-.9980469,1.7011719-2.1542969,3.3789062-3.3564453,4.875,2.3359375,1.7011719,4.4443359,3.5146484,6.5078125,5.6914062.2041016.1816406.2041016.25.0224609.4765625-.2490234.2949219-.5439453.5664062-.8164062.8164062-.1582031.1357422-.2490234.1357422-.4072266-.0458984-1.9052734-2.1767578-4.0595703-4.1035156-6.2587891-5.7587891-2.5849609,2.6748047-5.3056641,4.7841797-8.0947266,6.3261719-.2490234.1357422-.3857422.1582031-.5664062-.0458984-.2949219-.3398438-.703125-.5664062-1.1796875-.8164062,3.4238281-1.7001953,6.0996094-3.7861328,8.3447266-6.1445312,1.4736328-1.5644531,2.9697266-3.5820312,4.3076172-6.0761719h-6.8251953c-1.2695312,0-2.2441406.0673828-3.2646484.1357422-.2041016,0-.2265625-.0683594-.2724609-.25-.0673828-.3173828-.1357422-.9970703-.1357422-1.4511719,1.1113281.0908203,2.1083984.0908203,3.5146484.0908203h6.5751953ZM298.9233398,61.9345703c.0908203-.0683594.1591797-.0683594.25,0,.90625.6347656,1.9042969,1.7460938,2.5615234,2.7431641.0683594.0908203.0458984.1816406-.0449219.25l-.6572266.5439453c-.1132812.0908203-.2275391.0683594-.2949219-.0458984-.6582031-1.1103516-1.6103516-2.1757812-2.6308594-2.9023438l.8164062-.5888672ZM300.8286133,60.4375c.0908203-.0673828.1582031-.0898438.2490234-.0224609.9072266.703125,1.9277344,1.7011719,2.5849609,2.6533203.0683594.1132812.0449219.1816406-.0683594.2714844l-.6123047.5449219c-.0898438.0898438-.1806641.0898438-.2714844-.0458984-.5673828-.9296875-1.5419922-2.0400391-2.6074219-2.8339844l.7255859-.5673828Z"/></g></svg>