<?xml version="1.0" encoding="UTF-8"?><svg id="_レイヤー_2" xmlns="http://www.w3.org/2000/svg" viewBox="0 0 155.0859375 79.8007812"><defs><style>.cls-1{fill:#64bcb8;}.cls-2{fill:#17a5a2;}</style></defs><g id="ice_x5F_02_x5F_02"><path class="cls-2" d="M55.1269531,50.3447266c1.6279297-2.9599609,2.5898438-8.1035156,2.7382812-13.3945312l4.7734375.7392578c-.1113281.5185547-.3330078.7402344-1.2578125.8515625-.296875,1.7021484-.6669922,3.2929688-1.1474609,4.7734375,3.0341797,1.7392578,4.0703125,3.7001953,4.0703125,5.1796875,0,1.3691406-.8876953,2.3320312-1.8876953,2.3320312-.4804688,0-.9990234-.2597656-1.4423828-.8144531.0371094-1.6279297-.4814453-3.6630859-1.2216797-5.328125-1.0722656,2.7011719-2.4785156,4.8837891-4.3291016,6.4013672l-.2958984-.2226562v3.0712891h2.109375l1.9980469-2.7382812,3.7373047,2.8125c-.2958984.4814453-.7402344.6660156-1.7392578.6660156h-6.1054688v6.734375c2.6269531-.3330078,5.4765625-.703125,8.3251953-1.109375l.0742188.5175781c-3.7001953,1.5175781-9.1767578,3.4414062-17.3173828,5.9570312-.2216797.4814453-.5917969.7773438-1.0361328.8886719l-2.0712891-4.8476562c1.7382812-.1474609,4.6992188-.4804688,8.3251953-.9248047v-7.2158203h-6.9199219c0-.1474609-.0361328-.2587891-.1845703-.7402344h7.1044922v-4.9580078c-.3330078.3701172-.7773438.5917969-1.2578125.5917969-.4814453,0-.9990234-.2216797-1.4433594-.7763672.0371094-1.3320312-.3330078-2.9609375-.8876953-4.3671875-1.1474609,3.1455078-2.7011719,5.6992188-4.8105469,7.4375l-.5185547-.3330078c1.9619141-3.0703125,3.2197266-8.6953125,3.4785156-14.5419922l4.625.7773438c-.1103516.4814453-.3701172.7402344-1.2578125.8515625-.2587891,1.5166016-.6289062,2.9599609-1.0361328,4.2919922,1.5908203.8876953,2.5537109,1.8496094,3.1083984,2.7382812v-11.8779297l5.1064453.4814453c-.0371094.4804688-.4072266.7392578-1.40625.8876953v15.2080078ZM69.7060547,38.9111328c-.0742188.5175781-.3701172.8134766-1.4804688.9619141v18.5751953c0,.0742188-.6289062,1.1103516-3.7001953,1.1103516v-21.0917969l5.1806641.4443359ZM72,34.2851562l5.4023438.4443359c-.0371094.5185547-.2587891.8144531-1.5537109.9990234v27.7519531c0,2.6269531-.6660156,4.625-5.2177734,5.1064453-.0742188-2.7382812-.9248047-3.4785156-4.2548828-3.8847656v-.5185547h4.9208984c.5185547,0,.703125-.2216797.703125-.703125v-29.1953125Z"/><path class="cls-2" d="M84.3564453,55.9316406c.5175781,0,.6660156,0,1.0732422-.7392578q.7763672-1.2587891,7.2519531-14.3574219l.6289062.1484375c-1.40625,3.9960938-4.1074219,11.5078125-4.5878906,13.1728516-.2587891,1.0361328-.5185547,2.1455078-.5185547,2.9970703v.1845703c.0371094,1.7021484,1.2587891,3.0341797,1.2587891,5.8095703,0,3.1083984-1.9980469,3.2929688-2.7753906,3.2929688s-1.5175781-.5546875-1.7392578-1.8125c.2587891-1.4804688.3701172-2.8496094.3701172-4.0332031,0-3.4042969-.703125-3.7373047-2.6640625-3.9228516v-.7402344c1.2949219,0,1.7021484-.0361328,1.7021484-.0361328v.0361328ZM83.5048828,35.5068359c4.9589844,1.1835938,6.5498047,3.3671875,6.5498047,5.0322266,0,1.3320312-.9990234,2.3310547-2.1464844,2.3310547-.5546875,0-1.1835938-.2216797-1.7021484-.8144531-.1845703-2.1083984-1.4423828-4.7724609-2.9970703-6.2900391l.2958984-.2587891ZM98.6025391,43.0917969l3.4775391,2.9609375c-.2587891.3701172-.5917969.4804688-1.40625.5546875-1.1835938,6.4755859-3.8476562,13.3945312-10.1015625,17.9091797l-.2958984-.5175781c4.1816406-4.7001953,5.9580078-11.7304688,6.6611328-18.1689453h-4.5146484l-.2216797-.7402344h4.4394531l1.9619141-1.9980469ZM106.1132812,40.7236328c.4443359,3.1455078,1.1845703,5.8095703,2.109375,8.0673828,1.8505859-2.2949219,3.8486328-5.3662109,4.8847656-7.3271484l4.5878906,2.9599609c-.1845703.2597656-.4072266.4443359-.8134766.4443359-.1855469,0-.3701172-.0371094-.5927734-.0742188-1.9609375,1.4433594-4.8837891,3.3671875-7.7333984,4.8476562,2.3681641,5.328125,5.8095703,8.3994141,9.4355469,10.4716797l-.1103516.3701172c-1.7021484.3701172-2.9980469,1.8505859-3.5527344,3.8115234-4.4404297-4.4775391-6.9189453-9.8427734-8.1777344-20.2041016h-.0371094v19.3154297c0,2.6279297-.6289062,4.5888672-5.1796875,5.0322266-.0742188-2.5898438-.9257812-3.4033203-4.2558594-3.7734375v-.5185547h4.9589844c.5175781,0,.703125-.2216797.703125-.7402344v-29.3056641l5.328125.4814453c-.0371094.5175781-.2226562.7763672-1.5546875.9619141v5.1796875Z"/><path class="cls-2" d="M52.2548828,16.6474609c.5849609,1.1396484,1.2148438,2.9394531,1.4404297,4.0195312l-.7207031.2402344c-.2246094-1.0498047-.8398438-2.8203125-1.4394531-4.0048828l.7197266-.2548828ZM63.5947266,16.7519531c-.0449219.1201172-.1650391.1650391-.3457031.1650391-1.6044922,5.265625-4.0341797,8.5800781-8.7587891,10.6201172-.1054688-.1650391-.3457031-.4501953-.5107422-.6152344,4.6503906-1.9501953,6.9746094-5.0546875,8.5498047-10.5292969l1.0654297.359375ZM57.0097656,15.7626953c.3896484,1.2900391.75,3.1494141.8544922,4.3046875l-.7792969.1201172c-.1054688-1.1855469-.4355469-2.9550781-.8105469-4.2597656l.7353516-.1650391Z"/><path class="cls-2" d="M78.5341797,18.8974609h-4.6044922l.0751953,7.6347656c.0146484.5996094-.2548828,1.0195312-.7050781,1.1699219-.4951172.1650391-1.6953125.1650391-2.8955078.1650391-.0292969-.1953125-.1044922-.5097656-.1943359-.7353516.3896484.015625.7949219.015625,1.1699219.015625.5996094,0,1.125-.015625,1.2900391-.0302734.375-.0605469.5849609-.3154297.5693359-.5849609l-.0742188-7.0644531c-1.5605469,2.3544922-4.1699219,4.8896484-6.7353516,6.3896484-.1347656-.1953125-.3447266-.4199219-.5400391-.5849609,2.5498047-1.4257812,5.25-3.9453125,6.7949219-6.375h-6.2548828v-.75h6.7197266l-.0292969-3.3300781,1.1240234.0751953c-.0146484.1503906-.1640625.2402344-.359375.2548828l.0302734,3h4.6191406v.75Z"/><path class="cls-2" d="M89.7998047,26.4716797c.5244141,0,2.1298828-.0449219,3.0898438-.1943359l.0449219.7949219c-1.0351562.1044922-2.4902344.1494141-3.0449219.1494141h-3.8847656c-2.1298828,0-3.2099609-.9443359-3.2099609-3v-8.7890625l1.1552734.0898438c-.0302734.1347656-.1357422.2246094-.390625.2548828v5.0253906c2.4453125-.7353516,5.7451172-1.9501953,7.7548828-3.0449219l.6152344.7792969c-.0449219.0302734-.1054688.0449219-.1796875.0449219-.0605469,0-.1357422-.0146484-.1953125-.0449219-1.9501953.9902344-5.3847656,2.25-7.9951172,3.0302734v2.6845703c0,1.6054688.8105469,2.2197266,2.4003906,2.2197266h3.8398438ZM91.1943359,15.0576172c.7050781.6152344,1.4697266,1.5449219,1.9052734,2.25l-.4501953.3447266c-.4648438-.6894531-1.2451172-1.6503906-1.9052734-2.2353516l.4501953-.359375ZM92.9345703,14.0820312c.7197266.6308594,1.484375,1.5458984,1.9199219,2.25l-.4501953.3457031c-.4648438-.6904297-1.2451172-1.6347656-1.9052734-2.2207031l.4355469-.375Z"/><path class="cls-2" d="M97.2402344,16.1220703c1.5742188.4951172,3.3896484,1.2753906,4.4990234,2.0703125l-.4199219.6601562c-1.0947266-.7802734-2.8642578-1.5605469-4.4248047-2.0849609l.3457031-.6455078ZM97.3447266,26.6074219c5.4003906-1.6806641,8.9697266-4.6806641,10.7998047-8.8496094.2099609.1796875.4648438.3291016.6894531.4345703-1.8740234,4.109375-5.5644531,7.3193359-10.6787109,8.984375-.0302734.1201172-.1201172.2851562-.1953125.3300781l-.6152344-.8994141Z"/><polygon class="cls-1" points="155.0859375 79.8007812 0 79.8007812 0 78.8007812 154.0859375 78.8007812 154.0859375 0 155.0859375 0 155.0859375 79.8007812"/></g></svg>