<?xml version="1.0" encoding="UTF-8"?><svg id="_レイヤー_2" xmlns="http://www.w3.org/2000/svg" viewBox="0 0 324.5498047 142.5693359"><defs><style>.cls-1{fill:#17a5a2;}</style></defs><g id="ice_x5F_01"><polygon class="cls-1" points="324.5498047 142.5693359 0 142.5693359 0 141.5693359 323.5498047 141.5693359 323.5498047 0 324.5498047 0 324.5498047 142.5693359"/><path class="cls-1" d="M168.8984375,26.1923828c.0917969-.1582031.2050781-.2041016.3867188-.1582031,1.4726562.5439453,2.765625,1.2236328,3.9902344,2.0634766.2265625.1582031.203125.2939453.1132812.4755859-.1582031.3173828-.3847656.703125-.5898438.9755859-.1367188.1806641-.25.2041016-.4296875.0449219-1.2480469-.9746094-2.6757812-1.7236328-4.1738281-2.2900391.2949219-.4306641.5449219-.8847656.703125-1.1113281ZM172.4140625,34.8769531c2.0859375-1.0888672,4.1035156-2.2675781,6.234375-3.9003906,1.9511719-1.5185547,4.421875-3.71875,6.4628906-6.2802734.0898438.5888672.2050781.9521484.4316406,1.4736328.1132812.2265625.0664062.4082031-.1132812.6123047-1.90625,2.2216797-3.8789062,3.9453125-5.9863281,5.5546875-2.0195312,1.5654297-4.2402344,2.9023438-6.6210938,4.2402344-.5.2724609-.8613281.5214844-1.0898438.7714844-.203125.2041016-.4296875.1582031-.6347656-.0683594-.2929688-.3398438-.7246094-.9746094-1.0644531-1.5185547.7929688-.1816406,1.4960938-.4316406,2.3808594-.8847656ZM171.5742188,21.0224609c.1367188-.2041016.2050781-.2041016.4082031-.1132812,1.40625.5898438,2.7207031,1.4287109,3.9453125,2.3583984.2050781.1582031.1816406.2490234.0683594.453125-.1816406.2949219-.4316406.7255859-.6582031.9755859-.1347656.1582031-.2265625.1132812-.4082031-.0458984-1.109375-1.0205078-2.5839844-1.9267578-4.0585938-2.5615234.2265625-.3173828.4765625-.7490234.703125-1.0664062Z"/><path class="cls-1" d="M203.4335938,35.0810547c.9960938,0,1.9042969-.0224609,2.8789062-.0224609.2714844-.0234375.3398438.0224609.3632812.2949219v.8154297c-.0234375.2949219-.0683594.2949219-.3183594.2949219-1.0664062-.0224609-1.9941406-.0449219-3.0605469-.0449219h-7.9140625c-.90625,0-1.9277344.0224609-2.9023438.1132812-.25.0224609-.2949219-.0683594-.3164062-.3398438-.0683594-.2949219-.0917969-.7939453-.0917969-1.1796875,1.2695312.0908203,2.1992188.0908203,3.2421875.0908203h5.4199219l.8613281-6.2802734h-3.8320312c-.8613281,0-1.9042969.0224609-2.6523438.0673828-.2265625.0224609-.3183594-.0224609-.3398438-.2714844-.0449219-.2949219-.0917969-.8398438-.1132812-1.2470703,1.2695312.1132812,2.2207031.1357422,3.1738281.1357422h3.3105469c.5449219,0,.703125-.0683594.90625-.1816406.1816406-.0908203.3183594-.0908203.4765625.0224609.25.1816406.6132812.4990234.8398438.8164062.1582031.2265625.1347656.3857422-.046875.5439453-.203125.1816406-.2714844.3632812-.3164062.8623047l-.8164062,5.5097656h1.2480469Z"/><path class="cls-1" d="M224.0214844,33.6982422c0,1.3603516.0234375,2.6523438.0683594,4.1035156.0214844.2041016-.0449219.2724609-.2265625.2724609-.4082031.0224609-.9082031.0224609-1.3164062,0-.1816406,0-.2265625-.0683594-.2265625-.2724609.0449219-1.3603516.0917969-2.7207031.0917969-4.0361328v-6.7109375c-2.3808594,2.1083984-4.6035156,3.6503906-7.1210938,5.1240234-.203125.1132812-.3613281.0683594-.5214844-.0908203-.2949219-.2949219-.703125-.5214844-1.1328125-.7255859,2.8105469-1.5419922,5.1699219-3.1748047,7.0507812-4.7841797,1.7246094-1.4736328,3.3339844-3.0839844,4.4003906-4.3759766.9511719-1.15625,1.359375-1.8369141,1.5644531-2.5625.6113281.3173828,1.2246094.6806641,1.5644531,1.0205078.2265625.2265625.1816406.4990234-.0917969.6347656-.2714844.1357422-.703125.5439453-1.2695312,1.2021484-.9511719,1.15625-1.7675781,2.0625-2.8339844,3.1289062v8.0722656Z"/><path class="cls-1" d="M248.5097656,23.5400391c.6796875-.0234375.8847656-.0683594,1.1347656-.25.1582031-.1132812.3398438-.0673828.5898438.0908203.2714844.1816406.6347656.4765625.90625.7480469.2714844.2724609.2265625.4990234.0449219.6806641-.2265625.2041016-.4082031.4082031-.5898438.7939453-1.3828125,2.9472656-2.8339844,5.3056641-4.375,7.0742188-2.0410156,2.3349609-4.4667969,4.3759766-7.0742188,5.8720703-.1816406.1142578-.3417969.0683594-.5-.0673828-.3164062-.2949219-.7480469-.4990234-1.2695312-.6582031,3.3339844-1.8134766,5.3515625-3.5595703,7.5058594-6.0087891,1.6992188-1.9726562,2.9707031-3.9677734,4.2617188-6.9384766l-6.5292969.1816406c-1.6777344,2.0859375-2.8808594,3.4921875-4.4902344,4.8525391-.25.2265625-.453125.2265625-.703125.0458984-.2480469-.1816406-.6796875-.3857422-1.15625-.4765625,2.8574219-2.2900391,4.5351562-4.3310547,5.9179688-6.5986328.7265625-1.2011719,1.0214844-1.9267578,1.1347656-2.8339844.6796875.2041016,1.359375.5214844,1.6992188.7939453.2265625.1582031.25.4306641,0,.5888672-.2480469.1591797-.4980469.4765625-.6796875.7714844-.3398438.5439453-.5898438.9746094-.90625,1.4277344l5.078125-.0898438ZM251.0273438,20.3876953c.0898438-.0673828.1582031-.0673828.25,0,.90625.6347656,1.9042969,1.7460938,2.5605469,2.7441406.0683594.0908203.046875.1806641-.0449219.2490234l-.65625.5439453c-.1152344.0908203-.2285156.0683594-.2949219-.0449219-.6582031-1.1113281-1.6113281-2.1767578-2.6308594-2.9023438l.8164062-.5898438ZM252.9316406,18.8916016c.0898438-.0683594.1582031-.0908203.25-.0224609.90625.7021484,1.9277344,1.7001953,2.5839844,2.6523438.0683594.1132812.0449219.1816406-.0683594.2724609l-.6113281.5439453c-.0917969.0908203-.1816406.0908203-.2714844-.0449219-.5683594-.9296875-1.5429688-2.0410156-2.6074219-2.8349609l.7246094-.5664062Z"/><path class="cls-1" d="M268.6230469,27.0087891c-.9980469,1.5644531-2.765625,3.4238281-3.6054688,4.1494141-1.5878906,1.3603516-3.3789062,2.5849609-5.0117188,3.5146484-.3164062.1816406-.4765625.1816406-.65625-.0224609-.25-.2949219-.703125-.5439453-1.1113281-.7255859,2.1757812-1.0429688,4.1484375-2.3808594,5.7363281-3.7646484,1.4511719-1.2695312,2.6308594-2.4707031,3.5820312-3.9677734h-4.875c-1.1777344,0-2.4707031.0458984-3.6953125.1357422-.1816406.0234375-.25-.0673828-.2714844-.2939453-.046875-.2949219-.0917969-.9072266-.1132812-1.3603516,1.3828125.1132812,2.7421875.1132812,4.0585938.1132812h5.7363281l-.1132812-2.1767578c-.0683594-1.1572266-.1132812-1.859375-.3398438-2.6308594.7246094.0224609,1.4511719.0683594,1.8808594.1816406.25.0683594.25.2949219.1367188.5214844-.0917969.2041016-.1816406.9296875-.1367188,1.9951172l.0917969,2.109375h2.3339844c1.4746094,0,2.5859375-.0234375,4.1054688-.0908203.203125,0,.2949219.0673828.2949219.2265625v1.1113281c0,.1806641-.0917969.2490234-.2949219.2490234-1.5195312-.0449219-2.6992188-.0908203-4.0820312-.0908203h-2.2441406l.4296875,8.6396484c.0683594,1.4052734-.2949219,2.0400391-.9980469,2.4033203-.7929688.3623047-1.9941406.5888672-2.765625.5888672-.2949219,0-.3847656-.0673828-.453125-.2714844-.2050781-.4765625-.453125-.8388672-.953125-1.2470703,1.2929688.0224609,2.1992188-.0683594,2.9023438-.2724609.5683594-.1582031.7480469-.3857422.703125-1.5419922l-.25-5.7587891-.0214844-1.7236328Z"/><path class="cls-1" d="M168.4990234,64.8710938c1.3681641-2.0878906,1.9443359-2.5205078,2.6640625-2.5205078.8642578,0,1.65625.1445312,4.6083984,2.4482422,2.1601562,1.65625,2.5205078,2.5927734,2.5205078,3.0244141,0,.9365234-.6484375,1.7285156-2.4482422,2.2324219-3.4570312,14.9765625-12.3857422,29.3779297-24.4824219,36.8671875l-.7197266-.7919922c5.1123047-5.8330078,9-12.6738281,11.953125-19.8017578,2.3759766-5.7607422,4.3203125-11.7373047,5.5439453-17.8574219h-8.7841797l-7.2011719.359375v-4.3203125l7.2011719.3603516h9.1445312ZM188.0126953,60.2626953c.7197266,2.3759766,1.4404297,4.7519531,2.3759766,7.0566406.9365234,2.3037109,2.0166016,4.4638672,3.1679688,6.6962891,4.3925781-4.8242188,9.2890625-10.9443359,12.7451172-16.5615234,7.6328125,4.8964844,8.640625,5.9042969,8.640625,6.8408203,0,1.1523438-.7919922,1.65625-4.8955078,1.9443359-3.6005859,3.0244141-9.5771484,6.8408203-15.4101562,9.7207031,3.9609375,6.7685547,9.0732422,12.8173828,15.1220703,17.7138672,2.5917969,2.0878906,5.328125,3.8164062,8.1367188,5.5439453l-.4326172,1.0078125c-2.6640625.1445312-5.4726562,1.8007812-7.4160156,3.8886719-.6484375.8642578-1.0087891,1.2246094-1.4404297,1.2246094-.3603516,0-.7919922-.2880859-1.5126953-.8642578-9.7207031-8.4248047-16.4169922-21.8183594-19.0810547-38.9560547.0722656,30.53125.5039062,36.3632812.5039062,38.7402344,0,5.0400391-3.7441406,8.1367188-10.3691406,8.1367188-1.3681641,0-1.5117188-.1445312-1.7998047-1.5126953-.7197266-3.5283203-2.4482422-5.1845703-7.0566406-6.7685547l.0722656-1.0800781c2.1601562.3603516,5.2558594.5761719,8.1367188.5761719,2.3037109,0,2.7363281-.4316406,2.7363281-2.8085938v-42.84375c0-5.6884766-.0722656-8.9287109-.2880859-11.5927734,9.7207031.7919922,10.9443359,1.4404297,10.9443359,2.3046875,0,1.0078125-.7197266,1.5117188-2.8798828,2.3037109v9.2890625Z"/><path class="cls-1" d="M244.7871094,91.4560547c0,1.5839844-2.1601562,3.0244141-5.1845703,3.0244141-1.5839844,0-2.4482422-.5761719-2.4482422-1.8007812,0-1.0078125.2158203-4.1044922.2158203-20.2333984,0-3.9599609-.0722656-6.625-.2880859-9.7929688,4.3925781,1.2958984,6.7685547,2.2324219,8.0644531,3.0244141h30.6035156c1.1513672-2.4482422,1.8720703-2.9521484,2.5917969-2.9521484.7919922,0,1.8720703.2158203,4.6083984,2.2324219,2.7363281,2.015625,3.0966797,2.6640625,3.0966797,3.4560547,0,.8642578-.6484375,1.5839844-2.6650391,2.4482422v3.7441406c0,10.9453125.2880859,13.5371094.2880859,15.9853516,0,1.8720703-2.015625,2.8085938-5.6162109,2.8085938-1.4404297,0-2.2324219-.5048828-2.2324219-1.7285156v-.2158203h-12.1689453c.0722656,2.4482422.0722656,4.8242188.0722656,7.2724609h15.4091797c1.65625-2.0878906,3.4560547-4.2480469,5.4726562-6.4804688,7.9921875,6.1923828,8.7841797,7.4882812,8.7841797,8.2802734,0,1.1523438-.4316406,1.8007812-1.1513672,1.8007812h-26.8583984c4.2480469,4.6083984,9.7207031,8.0644531,15.4091797,10.65625,4.3925781,1.9443359,8.9287109,3.3125,13.609375,4.3925781l-.2158203,1.0800781c-2.4482422.7919922-4.4648438,2.4482422-5.8330078,4.6806641-.5761719,1.0800781-.8642578,1.5839844-1.5117188,1.5839844-.3603516,0-.7919922-.1435547-1.4404297-.4316406-9.4326172-4.1767578-17.4257812-12.0253906-21.6738281-20.7382812.0722656,17.28125.2880859,21.1699219.2880859,22.3945312,0,1.7998047-2.7363281,2.8798828-6.2646484,2.8798828-1.3681641,0-2.0166016-.5039062-2.0166016-1.5839844,0-1.65625.1445312-5.9765625.2880859-19.1542969-7.6328125,8.5693359-18.0732422,13.8251953-28.9462891,17.0664062l-.5039062-.9365234c9.4326172-5.6884766,17.9296875-13.0332031,24.5537109-21.8896484h-17.0654297l-7.2001953.359375v-4.3203125l7.2001953.3603516h22.0341797c0-2.4482422,0-4.8242188.0722656-7.2724609h-11.3769531ZM256.1640625,69.2783203h-11.2333984l-.1435547.1435547v7.2011719h11.3769531v-7.3447266ZM256.1640625,87.8554688v-7.6328125h-11.3769531v7.6328125h11.3769531ZM275.8212891,76.6230469v-7.3447266h-11.0888672c-.2880859.359375-.6474609.5761719-1.0800781.7197266v6.625h12.1689453ZM275.8212891,87.8554688v-7.6328125h-12.1689453v7.6328125h12.1689453Z"/></g></svg>