<?xml version="1.0" encoding="UTF-8"?><svg id="_レイヤー_2" xmlns="http://www.w3.org/2000/svg" viewBox="0 0 452.5 142.5693359"><defs><style>.cls-1{fill:#17a5a2;}</style></defs><g id="ice_x5F_01"><polygon class="cls-1" points="452.5 142.5693359 0 142.5693359 0 0 1 0 1 141.5693359 452.5 141.5693359 452.5 142.5693359"/><path class="cls-1" d="M47.9882812,56.9833984c6.7685547,2.2324219,9.6484375,5.6162109,9.6484375,9.7207031,0,2.6640625-1.6557617,4.1767578-3.8881836,4.1767578-1.8720703,0-2.9521484-1.0087891-3.168457-3.0966797-.144043-1.0078125-.2158203-1.8720703-.3598633-2.6640625-.7919922.2880859-1.512207.5039062-2.3041992.7197266-.144043.7207031-.5039062,1.296875-1.1518555,1.65625v5.3291016c0,18.2167969.2875977,21.8173828.2875977,23.6171875,0,1.8007812-2.1601562,2.8085938-5.2563477,2.8085938-1.7280273,0-2.2319336-.4316406-2.2319336-1.7285156,0-1.2236328.2158203-5.1123047.2880859-20.0888672-.2880859.2158203-.7924805.4316406-1.65625.6474609-1.7285156,6.1923828-4.5366211,11.1611328-9.1450195,17.2099609l-.9360352-.5039062c1.65625-5.8330078,2.7363281-12.5292969,3.3125-21.3867188,5.5444336,1.1523438,7.6323242,1.8007812,8.4248047,2.3046875v-7.7050781c-2.0166016.5048828-4.0327148.9365234-6.1928711,1.3681641-.4321289,1.5839844-.8637695,2.0166016-1.5839844,2.0166016-.7919922,0-1.4399414-.4326172-3.3125-8.2089844,3.0244141.0722656,5.9047852.1445312,8.7128906.1445312h.2158203c3.8164062-6.4804688,6.8408203-13.0332031,9.6489258-20.9541016,8.4970703,3.3837891,9.0009766,3.9599609,9.0009766,4.96875,0,.9355469-.9360352,1.4394531-3.456543,1.7275391-3.4560547,4.8964844-7.128418,9.4326172-12.0249023,14.2578125,2.9521484-.0722656,5.9765625-.1445312,9.0009766-.2880859-.4321289-1.9443359-1.2963867-3.6728516-2.5205078-5.1845703l.6484375-.8642578ZM30.4907227,45.390625c1.7280273.2880859,3.5283203.6474609,5.184082,1.3681641,1.7285156-4.4648438,2.8803711-8.640625,3.8886719-13.3212891,9.0727539,3.0957031,9.6484375,3.6005859,9.6484375,4.6083984,0,.8642578-.7919922,1.3681641-3.2402344,1.5839844-2.3759766,3.0244141-5.1123047,5.6884766-8.2084961,8.1367188,2.3041992,1.4404297,3.4560547,3.2402344,3.4560547,5.2568359,0,2.2314453-1.5117188,3.8164062-3.671875,3.8164062-1.9443359,0-2.8803711-1.0087891-3.3842773-2.953125-.9365234-3.8876953-2.3764648-6.0478516-4.2485352-7.4882812l.5761719-1.0078125ZM47.7001953,73.5449219c6.0483398,2.0878906,9.6484375,5.6162109,9.6484375,10.296875,0,2.3759766-1.4399414,4.3203125-4.0322266,4.3203125-2.1601562,0-3.1679688-1.2958984-3.3842773-3.6005859-.5039062-5.4726562-1.0800781-7.7041016-2.9521484-10.2246094l.7202148-.7919922ZM84.8554688,61.8076172c0-3.2402344-.0722656-5.6884766-.2880859-8.5683594,8.8564453.9355469,10.0087891,1.4394531,10.0087891,2.3759766s-.6479492,1.3681641-2.5205078,2.1601562v4.1044922c0,9.2890625.3603516,13.3935547.3603516,15.3369141,0,1.5849609-2.0161133,2.7363281-5.4726562,2.7363281-1.4399414,0-2.0878906-.5761719-2.0878906-1.7275391v-2.8085938h-5.6166992v14.1855469c0,1.5839844.7202148,1.9433594,4.5361328,1.9433594,3.8164062,0,4.8964844-.4316406,6.1206055-2.6640625,1.2963867-2.3759766,2.1601562-4.6796875,2.9526367-7.1279297l1.0800781.2158203c-.4321289,3.9599609-.5043945,6.0488281-.5043945,7.3447266,0,1.5839844,2.8803711,1.8720703,2.8803711,4.0322266,0,2.8085938-2.5200195,4.8242188-12.8891602,4.8242188-10.6567383,0-11.953125-1.2958984-11.953125-5.1845703,0-1.8720703.2163086-4.9677734.2880859-17.5693359h-5.4003906v4.8964844c0,1.8720703-2.4482422,2.8798828-5.1123047,2.8798828-1.4404297,0-2.2324219-.5039062-2.2324219-1.65625,0-2.7353516.3603516-10.5126953.3603516-18.5048828,0-3.2402344-.0722656-5.6884766-.2880859-8.5693359,8.496582.9365234,9.7924805,1.4404297,9.7924805,2.3769531,0,.9355469-.6479492,1.3671875-2.5200195,2.1601562v12.8164062h5.4726562c.0717773-7.1279297.0717773-14.2568359.0717773-21.3857422-5.472168.8642578-11.2329102,1.4404297-17.0654297,1.8007812l-.2158203-1.0800781c5.6162109-1.4404297,11.6650391-3.0966797,17.28125-5.0410156,0-6.6962891-.0717773-9.0722656-.3598633-12.0253906,9.3608398.8642578,10.3686523,1.4404297,10.3686523,2.4482422,0,1.0087891-.7197266,1.296875-2.6640625,2.0888672v4.6083984c3.8164062-1.65625,7.2724609-3.4570312,10.0087891-5.4003906,6.0483398,4.8242188,6.5527344,5.6162109,6.5527344,6.4804688,0,.7197266-.5043945,1.2236328-2.3041992,1.2236328-.4321289,0-1.0083008-.0722656-1.65625-.1435547-3.6000977,1.4394531-7.9208984,2.6640625-12.6010742,3.671875v22.7539062h5.6166992v-10.0087891Z"/><path class="cls-1" d="M127.7324219,56.5664062l-12.5292969,30.9619141c-1.0078125,2.4482422-1.2958984,4.0322266-1.2958984,5.8330078,0,3.5283203,1.7280273,4.2480469,1.7280273,8.2802734,0,2.8808594-2.0161133,4.6083984-4.8242188,4.6083984-2.0883789,0-3.7446289-1.2958984-3.7446289-3.8164062,0-2.3759766.8642578-4.3203125.8642578-6.6962891,0-2.4482422-1.1523438-3.671875-3.6723633-4.1044922l.0722656-.9355469c2.5200195,0,3.3842773-.4326172,5.6162109-4.5371094l16.4892578-30.1699219,1.2963867.5761719ZM105.6982422,55.9902344c7.5610352.1435547,12.3134766,3.5996094,12.3134766,7.2724609,0,2.8798828-1.800293,4.3925781-4.2485352,4.3925781-2.0161133,0-3.3125-1.0087891-3.8881836-3.0966797-1.1523438-4.0322266-2.3764648-5.9765625-4.5366211-7.5605469l.3598633-1.0078125ZM131.3325195,70.1035156c1.2241211-2.4482422,1.9443359-2.8085938,2.6645508-2.8085938.8637695,0,1.8720703.2880859,4.6801758,2.6640625,2.1601562,1.8007812,2.4482422,2.3759766,2.4482422,3.0966797,0,.8642578-.7919922,1.5839844-2.4482422,2.2324219-3.3120117,14.2568359-11.8808594,27.7216797-23.3300781,34.7783203l-.7197266-.7919922c8.3525391-9.3603516,13.7529297-21.9619141,16.2729492-35.5712891h-2.3759766l-5.2563477.3603516v-4.3203125l5.2563477.3603516h2.8081055ZM149.9824219,66.7910156c.7919922,2.8798828,1.7280273,5.6884766,2.8798828,8.4248047,3.6005859-4.4648438,6.769043-9.0009766,10.1533203-14.6894531,8.0644531,4.8964844,8.784668,5.6162109,8.784668,6.5527344,0,1.0078125-.8642578,1.4394531-3.8164062,1.5839844-4.1762695,3.3837891-8.5688477,6.1201172-14.1132812,8.7851562,3.3125,6.984375,7.8486328,13.3925781,13.5371094,18.6494141,1.800293,1.5839844,3.6723633,3.0244141,5.6166992,4.4638672l-.4321289,1.0087891c-2.7363281.359375-5.3286133,1.5839844-7.128418,3.0957031-.7202148.6484375-1.1523438.9365234-1.512207.9365234-.4321289,0-.7924805-.3603516-1.3681641-1.0800781-6.4804688-8.2089844-10.7290039-18.7216797-12.6010742-33.2675781.0717773,28.8027344.5039062,33.2675781.5039062,36.3632812,0,5.0410156-2.7363281,8.1367188-9.3608398,8.1367188-1.2958984,0-1.4399414-.1435547-1.800293-1.5117188-1.0078125-3.7441406-3.2402344-5.3291016-7.4165039-6.7685547l.0722656-1.0800781c2.5200195.2880859,4.6801758.5761719,7.5605469.5761719,2.3041992,0,2.9521484-.5761719,2.9521484-2.7363281v-42.7724609c0-5.6884766-.0717773-8.9287109-.2880859-11.5927734,9.5766602.7919922,10.6567383,1.4404297,10.6567383,2.3046875,0,1.0078125-.7197266,1.5117188-2.8798828,2.3037109v12.3134766Z"/><path class="cls-1" d="M54.3857422,15.3720703c.0224609-.5898438.0224609-1.4511719,0-2.0185547-.0224609-.5664062-.0458984-1.0205078-.25-1.7460938.6806641.0683594,1.4511719.1816406,1.8828125.2949219.2714844.0683594.3173828.2265625.2041016.453125-.0908203.1816406-.1367188.4082031-.1591797.6357422-.0224609.2939453-.0449219.5888672-.0449219.90625,0,.5898438-.0234375.953125-.0234375,1.4746094h3.0166016c1.4052734,0,3.015625-.0458984,4.2851562-.1142578.2265625-.0224609.2490234.0458984.2490234.2724609.0224609.3173828.0224609.7255859,0,.9980469,0,.2714844-.0224609.3173828-.2714844.3173828-1.4287109-.0458984-2.8115234-.0683594-4.3085938-.0683594h-3.015625c-.1132812,1.859375-.3857422,3.4238281-1.0205078,4.8066406-.7480469,1.6328125-1.9501953,3.265625-3.6503906,4.3769531-.1591797.1132812-.2724609.1806641-.5214844,0-.3857422-.2724609-.8847656-.4990234-1.3828125-.5898438,2.1992188-1.2919922,3.2421875-2.6074219,4.0351562-4.2851562.6123047-1.2929688.8847656-2.7216797.9296875-4.3085938h-4.1943359c-1.2021484,0-2.5400391.0458984-3.7871094.1357422-.2490234,0-.3173828-.0898438-.3623047-.3847656-.0449219-.3173828-.1132812-.8388672-.1357422-1.2929688,1.5869141.1132812,2.9931641.1367188,4.3535156.1367188h4.171875ZM60.5078125,9.0908203c.1582031.1591797.2724609.3173828.2724609.453125,0,.1591797-.1591797.2724609-.5214844.3173828-.3632812.0683594-.9072266.25-1.2929688.3632812-1.609375.453125-3.1289062.8613281-4.7392578,1.15625-1.8134766.3632812-3.8085938.6572266-5.8955078.8388672-.2265625.0224609-.3398438-.1132812-.4072266-.2949219-.1367188-.2714844-.3632812-.6123047-.7939453-.9746094,2.7431641-.1816406,4.5117188-.453125,6.5986328-.8613281,1.5869141-.3173828,3.015625-.7255859,4.0585938-1.1113281.8613281-.3398438,1.1337891-.4765625,1.5185547-.8164062.4990234.3173828.953125.6806641,1.2021484.9296875Z"/><path class="cls-1" d="M81.4824219,23.0810547c.9970703,0,1.9042969-.0224609,2.8789062-.0224609.2724609-.0234375.3408203.0224609.3632812.2949219v.8154297c-.0224609.2949219-.0683594.2949219-.3173828.2949219-1.0664062-.0224609-1.9951172-.0449219-3.0615234-.0449219h-7.9130859c-.9072266,0-1.9277344.0224609-2.9023438.1132812-.25.0224609-.2949219-.0683594-.3173828-.3398438-.0683594-.2949219-.0908203-.7939453-.0908203-1.1796875,1.2695312.0908203,2.1992188.0908203,3.2421875.0908203h5.4189453l.8623047-6.2802734h-3.8320312c-.8613281,0-1.9052734.0224609-2.6533203.0673828-.2265625.0224609-.3173828-.0224609-.3398438-.2714844-.0449219-.2949219-.0908203-.8398438-.1132812-1.2470703,1.2695312.1132812,2.2216797.1357422,3.1738281.1357422h3.3105469c.5449219,0,.703125-.0683594.9072266-.1816406.1816406-.0908203.3173828-.0908203.4765625.0224609.2490234.1816406.6123047.4990234.8388672.8164062.1582031.2265625.1357422.3857422-.0458984.5439453-.2041016.1816406-.2714844.3632812-.3173828.8623047l-.8164062,5.5097656h1.2480469Z"/><path class="cls-1" d="M93.4541016,10.2470703c.1591797-.1582031.2724609-.1357422.4082031-.0449219,1.2695312.7021484,2.7666016,1.7685547,4.0820312,3.015625.1582031.1582031.1806641.2490234.0673828.4306641-.1816406.2724609-.5888672.7939453-.7705078.9746094-.1357422.1591797-.2041016.1816406-.3632812.0234375-1.3378906-1.3154297-2.8339844-2.4716797-4.3076172-3.3564453.2949219-.3623047.6347656-.7705078.8837891-1.0429688ZM95.4951172,22.2646484c2.4492188-1.2919922,4.4443359-2.5166016,6.5527344-4.2177734,2.2900391-1.8818359,4.171875-3.5595703,6.1220703-6.0986328.0908203.6347656.2265625,1.0654297.3857422,1.4960938.1357422.2949219.1132812.4765625-.1591797.7939453-1.5185547,1.7910156-3.5136719,3.6044922-5.5097656,5.2148438-1.9267578,1.5419922-4.1943359,2.9931641-6.8017578,4.421875-.6123047.3623047-1.0429688.7021484-1.2470703.8837891-.2275391.2041016-.4082031.2041016-.6123047-.0224609-.3408203-.3632812-.7490234-.9072266-1.1113281-1.5419922.8847656-.2490234,1.5644531-.5214844,2.3808594-.9296875Z"/><path class="cls-1" d="M118.5322266,15.8251953c2.2226562-.5898438,4.7167969-1.4736328,6.5986328-2.3583984,1.1796875-.5664062,1.6777344-.8837891,2.1992188-1.4960938.5214844.4306641,1.0429688.90625,1.3154297,1.2470703.1816406.2490234.1132812.5439453-.1816406.5888672-.4082031.0908203-.9970703.3408203-2.0859375.8398438-2.2216797.9970703-5.2607422,2.0175781-7.8457031,2.7207031v3.8994141c0,1.2021484.3183594,1.5878906,1.1796875,1.7685547.9521484.2041016,2.0410156.25,3.4013672.25,1.6318359,0,3.71875-.1357422,5.7587891-.4990234.25-.0449219.2949219.0224609.3173828.2265625.0458984.3632812.0908203.7939453.1132812,1.0888672,0,.2490234-.0898438.2949219-.3623047.3173828-2.2226562.3173828-3.8320312.3857422-6.1445312.3857422-1.7011719,0-2.9023438-.1142578-4.0136719-.4082031-1.2246094-.3408203-1.7910156-1.2021484-1.7910156-2.8125v-8.4345703c0-2.0175781,0-3.0380859-.2041016-4.0136719.7255859.0908203,1.3828125.1816406,1.859375.3173828.3398438.0908203.2490234.3857422.1357422.6357422-.2041016.4306641-.25,1.2011719-.25,2.7207031v3.015625ZM128.2597656,8.9775391c.1132812-.0683594.1591797-.0683594.25,0,.90625.6347656,1.9042969,1.7460938,2.5615234,2.7431641.0683594.0908203.0458984.1816406-.0449219.25l-.6572266.5439453c-.1132812.0908203-.2275391.0683594-.2949219-.0449219-.6582031-1.1113281-1.6103516-2.1767578-2.6308594-2.9023438l.8164062-.5898438ZM130.1650391,7.4804688c.0908203-.0673828.1582031-.0898438.2490234-.0224609.9072266.703125,1.9277344,1.7011719,2.5849609,2.6533203.0683594.1132812.0449219.1816406-.0683594.2714844l-.6123047.5449219c-.0898438.0908203-.1806641.0908203-.2714844-.0458984-.5673828-.9296875-1.5419922-2.0400391-2.6074219-2.8339844l.7255859-.5673828Z"/><path class="cls-1" d="M138.8037109,10.2470703c.1591797-.1582031.2724609-.1357422.4082031-.0449219,1.2695312.7021484,2.7666016,1.7685547,4.0820312,3.015625.1582031.1582031.1806641.2490234.0673828.4306641-.1816406.2724609-.5888672.7939453-.7705078.9746094-.1357422.1591797-.2041016.1816406-.3632812.0234375-1.3378906-1.3154297-2.8339844-2.4716797-4.3076172-3.3564453.2949219-.3623047.6347656-.7705078.8837891-1.0429688ZM140.8447266,22.2646484c2.4492188-1.2919922,4.4443359-2.5166016,6.5527344-4.2177734,2.2900391-1.8818359,4.171875-3.5595703,6.1220703-6.0986328.0908203.6347656.2265625,1.0654297.3857422,1.4960938.1357422.2949219.1132812.4765625-.1591797.7939453-1.5185547,1.7910156-3.5136719,3.6044922-5.5097656,5.2148438-1.9267578,1.5419922-4.1943359,2.9931641-6.8017578,4.421875-.6123047.3623047-1.0429688.7021484-1.2470703.8837891-.2275391.2041016-.4082031.2041016-.6123047-.0224609-.3408203-.3632812-.7490234-.9072266-1.1113281-1.5419922.8847656-.2490234,1.5644531-.5214844,2.3808594-.9296875Z"/></g></svg>