<?xml version="1.0" encoding="UTF-8"?><svg id="_レイヤー_2" xmlns="http://www.w3.org/2000/svg" xmlns:xlink="http://www.w3.org/1999/xlink" viewBox="0 0 111.3153924 108.7258246"><defs><style>.cls-1{filter:url(#drop-shadow-1);}.cls-2{fill:#fff;}.cls-3{fill:url(#_名称未設定グラデーション_226);}.cls-4{fill:#64bcb8;}</style><filter id="drop-shadow-1" filterUnits="userSpaceOnUse"><feOffset dx="1" dy="1"/><feGaussianBlur result="blur" stdDeviation="3"/><feFlood flood-color="#0d514e" flood-opacity=".21"/><feComposite in2="blur" operator="in"/><feComposite in="SourceGraphic"/></filter><linearGradient id="_名称未設定グラデーション_226" x1="72.3755731" y1="5.2839146" x2="37.60305" y2="106.2706544" gradientUnits="userSpaceOnUse"><stop offset=".0082778" stop-color="#30b1ab"/><stop offset=".5070544" stop-color="#9fe5e6"/><stop offset="1" stop-color="#99fffe"/></linearGradient></defs><g id="bg"><g class="cls-1"><polygon class="cls-4" points="59.9884906 3.03185 21.8850482 17.1418431 5.0453246 48.7213516 10.6109959 83.6603821 42.4865575 108.7258246 77.9709606 108.7258246 105.1535904 85.296583 111.3153924 49.4009025 93.5731908 17.8347708 59.9884906 3.03185"/><polygon class="cls-3" points="57.0299708 0 17.4793157 14.244909 0 46.126372 5.777062 81.39948 38.8632941 106.7045912 75.6954357 106.7045912 103.9104932 83.0513258 110.3063274 46.8124206 91.8902566 14.9444623 57.0299708 0"/></g><path class="cls-2" d="M21.3046337,69.8180698c.5932198-.6059752,1.1854542-1.2237936,1.755024-1.8297688.4838387-.5092561.7134404-.6424917,1.0888835-.6424917s.6050448.0967192,1.0524232.496426c1.5372473,1.3698593,3.388842,2.691359,5.4217531,3.9398259.1576664.0720459.1823018.1934383.1093811.3266739-.2177767.4362232-.4237284.7757272-.6296802,1.0550285-.0601103.084876-.1202206.1332356-.1813164.1332356-.0482853,0-.0847457-.0118432-.133031-.0483596-1.9245154-1.3333429-3.6184437-2.6795159-5.3616428-4.2309704-.0719353-.0602028-.133031-.0838891-.1931413-.0838891-.0847457,0-.133031.0355295-.1941267.0967192-.5922344.6178184-1.1371689,1.2721532-1.9718153,2.1939461-.3271578.3631904-.4237284.5210992-.4848242.6178184-.0601103.0967192-.133031.1579089-.2177767.1579089-.0482853,0-.1083956-.0246733-.1694914-.084876-.3261724-.2664712-.6897905-.6188053-1.1253439-1.0668717.4838387-.3029876.7745362-.5457725,1.2347249-1.0303553ZM29.8609918,67.0181485c0,.7273677-.5813948,1.2968265-1.3076457,1.2968265s-1.3066602-.5694588-1.3066602-1.2968265c0-.751054.5804094-1.2968265,1.3066602-1.2968265s1.3076457.5694588,1.3076457,1.2968265ZM27.8399058,67.0181485c0,.4125369.3025224.7155245.7134404.7155245.4119035,0,.7144258-.3029876.7144258-.7155245,0-.41155-.3025224-.7145376-.7144258-.7145376-.410918,0-.7134404.3029876-.7134404.7145376Z"/><path class="cls-2" d="M34.9506601,70.8967847c-1.1982646,0-1.6584534.1450788-1.7796594.1450788-.144856,0-.2414267-.0720459-.277887-.2536411-.0610957-.2793013-.133031-.8487601-.1813164-1.4665785.7863611.1204055,1.3914059.1450788,2.6133205.1450788h3.8973162c.9193922,0,1.8515947-.0246733,2.7837973-.0365164.1813164-.0118432.2177767.0246733.2177767.169752.02365.3631904.02365.7757272,0,1.1389176,0,.1460657-.0492707.1944253-.2177767.1825821-.9085526-.0128301-1.8033094-.0246733-2.6990516-.0246733h-4.3565195Z"/><path class="cls-2" d="M45.3891608,68.4610406c.0601103-.084876.121206-.1460657.2296017-.1213924.9075672.3029876,1.633818.6908512,2.3236085,1.1872772.0847457.0611897.133031.1095493.133031.1825821,0,.0355295-.02365.0838891-.0482853.1332356-.133031.3266739-.3389827.6424917-.5321241.920806-.0610957.0730328-.1093811.1213924-.1576664.1213924s-.0847457-.0246733-.144856-.0730328c-.7745362-.5694588-1.5618827-.9691656-2.4448145-1.3214997.3025224-.4845828.4956637-.83593.6415051-1.0293683ZM47.3491511,72.9574952c1.1499793-.6059752,2.1422921-1.175434,3.3159213-2.097227.9686629-.7392108,2.2634982-1.9028017,3.4854127-3.3812233.0729207.5329424.1694914.83593.3517931,1.3570292.0354749.084876.0601103.1579089.0601103.2309417,0,.0967192-.0364604.1815952-.133031.2783144-1.1253439,1.2119505-1.8880551,1.8791154-3.0744947,2.7999214-1.0524232.8004005-2.1777671,1.4912517-3.6184437,2.2788222-.289712.1579089-.5804094.2911444-.7016155.4125369-.0729207.0720459-.133031.0967192-.1941267.0967192-.0837603,0-.168506-.0483596-.2414267-.1460657-.2542371-.254628-.5813948-.7263807-.8957422-1.2356368.5084741-.0977061.9322026-.2309417,1.645643-.5941321ZM46.8534874,65.6729624c.0847457-.1450788.156681-.169752.3025224-.0967192.7745362.3148308,1.6091826.7628972,2.2753231,1.3451861.0719353.0483596.0965707.1085623.0965707.1579089,0,.0483596-.011825.0967192-.0482853.1569219-.1694914.3029876-.4119035.6908512-.6178552.9089628-.0354749.0611897-.0837603.0730328-.1202206.0730328-.0610957,0-.121206-.0365164-.1823018-.084876-.6286947-.5210992-1.5727223-1.1389176-2.3472584-1.4912517.2059517-.3148308.4355534-.6543348.6415051-.9691656ZM52.3964465,65.2969419c.0601103-.0483596.1083956-.0365164.1813164.0246733.3754431.2901575.8109965.7757272,1.1499793,1.2968265.0482853.0720459.0482853.1332356-.0364604.1934383l-.5084741.3760205c-.0847457.0602028-.1458414.0483596-.2059517-.0365164-.3626327-.5576156-.7499008-1.0175252-1.2219145-1.4053888l.6415051-.4490533ZM53.4735051,64.5093715c.0719353-.0483596.1083956-.0365164.1813164.0236863.4473784.339504.8829318.8250738,1.1499793,1.2484669.0482853.0730328.0601103.1460657-.0364604.2181116l-.4848242.3760205c-.0965707.0730328-.156681.0365164-.2049663-.0365164-.3271578-.5210992-.7144258-.9810088-1.2100896-1.3935456l.6050448-.4362232Z"/><path class="cls-2" d="M58.1148095,74.9204997c-1.0888835,0-1.4643266.0246733-1.5372473.0246733-.1202206,0-.133031-.0118432-.133031-.1332356v-1.1033881c0-.1204055.0128104-.1332356.133031-.1332356.0729207,0,.4483638.0246733,1.5372473.0246733h2.5532102v-6.8364665c0-.9819957-.011825-1.4784216-.0965707-2.0241941.4601888.0128301,1.0051233.0365164,1.4160413.084876.121206.0118432.2177767.084876.2177767.1579089,0,.0967192-.0482853.1815952-.0847457.2783144-.0482853.1332356-.0847457.4362232-.0847457,1.1635909v1.9156318h2.3718938c1.0534086,0,1.4160413-.0246733,1.488962-.0246733.121206,0,.133031.0118432.133031.1332356v1.1033881c0,.1213924-.011825.1332356-.133031.1332356-.0729207,0-.4355534-.0246733-1.488962-.0246733h-2.3718938v3.9398259h3.3040964c1.0888835,0,1.4643266-.0246733,1.5372473-.0246733.121206,0,.133031.0128301.133031.1332356v1.1033881c0,.1213924-.011825.1332356-.133031.1332356-.0729207,0-.4483638-.0246733-1.5372473-.0246733h-7.2250625Z"/><path class="cls-2" d="M70.0659222,70.0480246c-1.1007085,0-1.4761516.0246733-1.5490723.0246733-.1083956,0-.1202206-.0118432-.1202206-.1332356v-.8724464c0-.1213924.011825-.1332356.1202206-.1332356.0729207,0,.4483638.0236863,1.5490723.0236863h1.755024c.2177767-.5576156.3389827-.9691656.4483638-1.3817025.0482853-.1815952.0719353-.3513472.0965707-.6059752.3261724.0602028.7380758.1450788,1.0524232.2427849.1093811.0355295.1823018.0720459.1823018.1569219s-.0492707.1460657-.0975561.1944253c-.0719353.0720459-.121206.1815952-.156681.2783144-.1093811.3513472-.2305871.6908512-.4119035,1.1152313.9440275,0,1.2948353-.0236863,1.367756-.0236863.121206,0,.133031.0118432.133031.1332356v.8724464c0,.1213924-.011825.1332356-.133031.1332356-.0729207,0-.4483638-.0246733-1.5372473-.0246733h-2.6990516ZM70.2836989,66.7881937c-1.0642482,0-1.4150559.0236863-1.4879766.0236863-.121206,0-.133031-.0118432-.133031-.1332356v-.8477732c0-.1342225.011825-.1460657.133031-.1460657.0729207,0,.4237284.0246733,1.4879766.0246733h.5449345v-.2181116c0-.4362232-.011825-.7273677-.0729207-1.0066689.4365388.0128301.8109965.0483596,1.2229.084876.121206.0128301.1931413.0611897.1931413.1095493,0,.084876-.0354749.1450788-.0847457.2417979-.0354749.084876-.0482853.2309417-.0482853.5822889v.2062684h.6178552c1.0524232,0,1.4032309-.0246733,1.4761516-.0246733.121206,0,.133031.0118432.133031.1460657v.8477732c0,.1213924-.011825.1332356-.133031.1332356-.0729207,0-.4237284-.0236863-1.4761516-.0236863h-2.3728792ZM69.2559111,75.454429c-.121206,0-.133031-.0118432-.133031-.1213924,0-.084876.02365-.3878636.02365-2.0478805v-.8734333c0-.9454793-.02365-1.2721532-.02365-1.3570292,0-.1213924.011825-.1332356.133031-.1332356.0847457,0,.3990931.0236863,1.3431206.0236863h1.7422136c.9440275,0,1.2711853-.0236863,1.344106-.0236863.133031,0,.144856.0118432.144856.1332356,0,.0720459-.0246354.41155-.0246354,1.1872772v1.0066689c0,1.6600168.0246354,1.9630044.0246354,2.0360373,0,.1332356-.011825.1450788-.144856.1450788h-.9322026c-.121206,0-.133031-.0118432-.133031-.1450788v-.5576156h-2.2999585v.6059752c0,.1095493-.011825.1213924-.133031.1213924h-.9312171ZM70.0304472,68.7877146c-.1823018.0483596-.1941267.0246733-.2177767-.1213924-.0729207-.4480664-.1823018-.9326492-.3389827-1.3333429-.0482853-.1332356-.0246354-.1332356.133031-.1815952l.6651551-.1815952c.1458414-.0365164.1813164-.0246733.2305871.0967192.144856.3760205.3025224.8724464.3872681,1.3333429.02365.1332356,0,.1332356-.1458414.1815952l-.7134404.2062684ZM70.3201592,73.6601896h2.2999585v-1.6600168h-2.2999585v1.6600168ZM78.0054105,65.0423139c.144856,0,.2542371-.0118432.3025224-.0365164.0729207-.0236863.121206-.0355295.1813164-.0355295.0965707,0,.1941267.0483596.5084741.3631904.2542371.2911444.2906974.3997068.2906974.4974129,0,.0967192-.0482853.1569219-.1093811.2181116-.0847457.0602028-.144856.169752-.2542371.4480664-.3508077.9336361-.6897905,1.7577229-1.1007085,2.6301694,1.2337395,1.1152313,1.4761516,1.8425989,1.4761516,2.8364378,0,1.26031-.7144258,1.927475-2.1294817,2.0607105q-.3754431.0365164-.4365388-.3641773c-.0601103-.3513472-.1813164-.6178184-.3379973-.7994136,1.1371689.0236863,1.6821033-.2793013,1.6821033-.9938389,0-.7638841-.2788724-1.3580161-1.5618827-2.5452933.4966491-1.0303553.8839172-2.0370242,1.2465499-3.1759418h-1.6939283v6.7871199c0,1.6244873.0246354,2.4732474.0246354,2.5334502,0,.1213924-.0128104.1332356-.1340164.1332356h-.9676775c-.133031,0-.144856-.0118432-.144856-.1332356,0-.0730328.02365-.8724464.02365-2.5206201v-5.2366524c0-1.6600168-.02365-2.4722605-.02365-2.5571365,0-.1213924.011825-.1332356.144856-.1332356.0729207,0,.3990931.0236863,1.0770586.0236863h1.9363404Z"/><path class="cls-2" d="M81.5460064,69.5881151c.3990931-.3158177,1.2701999-1.0668717,2.1659421-1.8791154.3990931-.3631904.7016155-.5092561,1.0534086-.5092561.410918,0,.6415051.1095493,1.0524232.4490533.9075672.7273677,1.4278663,1.2119505,2.6143059,2.0843969,1.0770586.7757272,1.911705,1.2484669,2.8557326,1.7814093.121206.0493465.1813164.1460657.121206.254628-.133031.3641773-.3626327.8240868-.5932198,1.1399045-.0601103.084876-.1083956.1213924-.156681.1213924-.0492707,0-.0975561-.0128301-.1694914-.0611897-.5813948-.339504-1.9008655-1.3086696-2.6143059-1.8662853-.8711068-.6543348-1.7431991-1.4300621-2.5413852-2.1455866-.2296017-.2181116-.3872681-.2783144-.5331095-.2783144-.133031,0-.2532516.1085623-.410918.254628-.5932198.5931451-1.4643266,1.4300621-2.0329111,1.9995209-.2424121.254628-.3389827.3760205-.4355534.5329424-.0610957.0977061-.1340164.1460657-.2187621.1460657s-.156681-.0365164-.2296017-.1095493c-.2542371-.254628-.7016155-.83593-.9923129-1.26031.3626327-.1450788.6661405-.339504,1.0652336-.6543348Z"/><polygon class="cls-2" points="56.8258868 53.1419079 55.8168219 53.1419079 55.8168219 22.5707537 63.214332 29.1131149 62.5462206 29.8710774 56.8258868 24.8110856 56.8258868 53.1419079"/></g></svg>