<?xml version="1.0" encoding="UTF-8"?><svg id="_レイヤー_2" xmlns="http://www.w3.org/2000/svg" xmlns:xlink="http://www.w3.org/1999/xlink" viewBox="0 0 85 83.0346414"><defs><style>.cls-1{filter:url(#drop-shadow-1);}.cls-2,.cls-3{fill:#fff;}.cls-4{fill:url(#_名称未設定グラデーション_226);}.cls-3{filter:url(#drop-shadow-2);}.cls-5{fill:#64bcb8;}</style><linearGradient id="_名称未設定グラデーション_226" x1="55.2704987" y1="4.0273515" x2="28.717826" y2="81.1419124" gradientTransform="translate(.019241 -.0209099) rotate(.0373783)" gradientUnits="userSpaceOnUse"><stop offset=".0082778" stop-color="#30b1ab"/><stop offset=".5070544" stop-color="#9fe5e6"/><stop offset="1" stop-color="#99fffe"/></linearGradient><filter id="drop-shadow-1" filterUnits="userSpaceOnUse"><feOffset dx="1" dy="1"/><feGaussianBlur result="blur" stdDeviation="1"/><feFlood flood-color="#0d4368" flood-opacity=".2"/><feComposite in2="blur" operator="in"/><feComposite in="SourceGraphic"/></filter><filter id="drop-shadow-2" filterUnits="userSpaceOnUse"><feOffset dx="1" dy="1"/><feGaussianBlur result="blur-2" stdDeviation="1"/><feFlood flood-color="#0d4368" flood-opacity=".2"/><feComposite in2="blur-2" operator="in"/><feComposite in="SourceGraphic"/></filter></defs><g id="bg"><polygon class="cls-5" points="45.8293248 2.3166271 16.7260972 13.072188 3.8513714 37.1782515 8.0839727 63.8608438 32.4120079 83.0169645 59.5082798 83.0346414 80.2768999 65.1573618 85 37.7501035 71.467589 13.6370273 45.8293248 2.3166271"/><polygon class="cls-4" points="43.5716776 0 13.3632756 10.8578632 0 35.1941838 4.393855 62.1319865 29.6462518 81.471724 57.7716715 81.4900723 79.328776 63.4422399 84.2307567 35.7730082 70.1839222 11.4291182 43.5716776 0"/><g class="cls-1"><path class="cls-2" d="M16.2643388,53.3131482c.4529891-.4627293.9052258-.9345022,1.3401555-1.3972315.3694645-.3888735.5447909-.4906136.8314834-.4906136s.4620188.0738558.8036418.3790763c1.1738589,1.0460395,2.5877568,2.0551512,4.1401099,3.0084941.1203958.055015.1392076.1477116.0835246.2494518-.1662967.3331048-.3235637.5923538-.4808306.8056313-.0459009.0648122-.0918018.1017402-.1384551.1017402-.0368712,0-.0647127-.0090436-.1015839-.0369279-1.469581-1.0181552-2.7630832-2.0461076-4.094209-3.2308152-.0549306-.0459715-.1015839-.0640586-.1474848-.0640586-.0647127,0-.1015839.0271307-.1482373.0738558-.4522366.4717729-.8683546.9714301-1.5056997,1.6753212-.2498212.2773361-.3235637.3979171-.370217.4717729-.0459009.0738558-.1015839.1205809-.1662967.1205809-.0368712,0-.0827721-.0188408-.1294255-.0648122-.2490688-.2034803-.5267315-.4725265-.8593249-.8146749.3694645-.2313647.5914443-.4167578.9428495-.7867905ZM22.7980673,51.1750976c0,.5554259-.4439594.9902709-.9985325.9902709s-.99778-.434845-.99778-.9902709c0-.573513.443207-.9902709.99778-.9902709s.9985325.434845.9985325.9902709ZM21.2547439,51.1750976c0,.3150177.2310094.5463823.5447909.5463823.314534,0,.5455434-.2313647.5455434-.5463823,0-.314264-.2310094-.5456287-.5455434-.5456287-.3137815,0-.5447909.2313647-.5447909.5456287Z"/><path class="cls-2" d="M26.6845936,54.1368666c-.9150079,0-1.2664131.1107837-1.3589674.1107837-.1106136,0-.184356-.055015-.2121976-.1936831-.0466534-.2132775-.1015839-.6481225-.1384551-1.1198953.600474.091943,1.0624928.1107837,1.9955601.1107837h2.9760332c.7020579,0,1.4138979-.0188408,2.125738-.0278843.1384551-.0090436.1662967.0188408.1662967.1296245.0180594.2773361.0180594.5923538,0,.8696899,0,.1115374-.0376237.1484653-.1662967.1394217-.6937807-.0097972-1.3770267-.0188408-2.0610253-.0188408h-3.3266859Z"/><path class="cls-2" d="M34.6555467,52.2769059c.0459009-.0648122.0925543-.1115374.1753264-.0926966.6930282.2313647,1.2476013.5275415,1.7743328.9066178.0647127.0467251.1015839.083653.1015839.1394217,0,.0271307-.0180594.0640586-.0368712.1017402-.1015839.2494518-.2588509.4906136-.4063358.7031375-.0466534.0557687-.0835246.0926966-.1203958.0926966s-.0647127-.0188408-.1106136-.0557687c-.5914443-.434845-1.1926707-.7400654-1.8668871-1.0091116.2310094-.3700327.3784942-.6383253.4898603-.7860369ZM36.1522168,55.7104477c.8781367-.4627293,1.6358777-.8975743,2.5320737-1.6014654.7396816-.5644695,1.7284319-1.4530002,2.6614992-2.5819391.055683.4069606.1294255.6383253.2686331,1.0362423.0270891.0648122.0459009.1205809.0459009.1763496,0,.0738558-.0278415.1386681-.1015839.2125239-.8593249.9254586-1.4417395,1.434913-2.3477177,2.1380505-.8036418.6111946-1.6629667,1.1387361-2.7630832,1.7401335-.2212272.1205809-.443207.2223211-.5357612.3150177-.055683.055015-.1015839.0738558-.1482373.0738558-.0639603,0-.128673-.0369279-.184356-.1115374-.1941382-.1944367-.4439594-.5546723-.6839985-.9435457.3882764-.0746094.71184-.1763496,1.256631-.4536857ZM35.7737225,50.1478989c.0647127-.1107837.1196433-.1296245.2310094-.0738558.5914443.2404082,1.2287894.5825566,1.7374616,1.0271988.0549306.0369279.0737424.0828994.0737424.1205809,0,.0369279-.0090297.0738558-.0368712.1198273-.1294255.2313647-.314534.5275415-.471801.694094-.0270891.0467251-.0639603.0557687-.0918018.0557687-.0466534,0-.0925543-.0278843-.1392076-.0648122-.4800782-.3979171-1.2009479-.8696899-1.7923922-1.1387361.157267-.2404082.3325933-.4996572.4898603-.7400654ZM40.0063867,49.8607656c.0459009-.0369279.0827721-.0278843.1384551.0188408.2866925.2215675.6192858.5923538.8781367.9902709.0368712.055015.0368712.1017402-.0278415.1477116l-.3882764.2871333c-.0647127.0459715-.1113661.0369279-.157267-.0278843-.2769103-.4258014-.5726324-.7769933-.9330673-1.0731702l.4898603-.342902ZM40.8288403,49.2593682c.0549306-.0369279.0827721-.0278843.1384551.0180871.341623.259249.6742164.6300353.8781367.9533429.0368712.0557687.0459009.1115374-.0278415.1665524l-.370217.2871333c-.0737424.0557687-.1196433.0278843-.1565145-.0278843-.2498212-.3979171-.5455434-.749109-.9240376-1.0641267l.4620188-.3331048Z"/><path class="cls-2" d="M44.3729911,57.2094193c-.8314834,0-1.1181758.0188408-1.1738589.0188408-.0918018,0-.1015839-.0090436-.1015839-.1017402v-.8425592c0-.091943.0097822-.1017402.1015839-.1017402.055683,0,.3423755.0188408,1.1738589.0188408h1.9496592v-5.2204004c0-.7498626-.0090297-1.1289389-.0737424-1.5456967.3514052.0097972.7675231.0278843,1.0813046.0648122.0925543.0090436.1662967.0648122.1662967.1205809,0,.0738558-.0368712.1386681-.0647127.2125239-.0368712.1017402-.0647127.3331048-.0647127.8885307v1.4627974h1.811204c.8043943,0,1.0813046-.0188408,1.1369876-.0188408.0925543,0,.1015839.0090436.1015839.1017402v.8425592c0,.0926966-.0090297.1017402-.1015839.1017402-.055683,0-.3325933-.0188408-1.1369876-.0188408h-1.811204v3.0084941h2.5230441c.8314834,0,1.1181758-.0188408,1.1738589-.0188408.0925543,0,.1015839.0097972.1015839.1017402v.8425592c0,.0926966-.0090297.1017402-.1015839.1017402-.055683,0-.3423755-.0188408-1.1738589-.0188408h-5.5171366Z"/><path class="cls-2" d="M53.4989912,53.4887442c-.840513,0-1.1272055.0188408-1.1828885.0188408-.0827721,0-.0918018-.0090436-.0918018-.1017402v-.6662096c0-.0926966.0090297-.1017402.0918018-.1017402.055683,0,.3423755.0180871,1.1828885.0180871h1.3401555c.1662967-.4258014.2588509-.7400654.3423755-1.0550831.0368712-.1386681.0549306-.2682926.0737424-.4627293.2490688.0459715.5636027.1107837.8036418.1853932.0835246.0271307.1392076.055015.1392076.1198273s-.0376237.1115374-.0744949.1484653c-.0549306.055015-.0925543.1386681-.1196433.2125239-.0835246.2682926-.1760788.5275415-.314534.8516028.7208697,0,.9887503-.0180871,1.0444334-.0180871.0925543,0,.1015839.0090436.1015839.1017402v.6662096c0,.0926966-.0090297.1017402-.1015839.1017402-.055683,0-.3423755-.0188408-1.1738589-.0188408h-2.0610253ZM53.6652879,50.9995017c-.8126715,0-1.0805521.0180871-1.1362352.0180871-.0925543,0-.1015839-.0090436-.1015839-.1017402v-.6473688c0-.1024938.0090297-.1115374.1015839-.1115374.055683,0,.3235637.0188408,1.1362352.0188408h.4161179v-.1665524c0-.3331048-.0090297-.5554259-.055683-.7687034.3333458.0097972.6192858.0369279.9338198.0648122.0925543.0097972.1474848.0467251.1474848.083653,0,.0648122-.0270891.1107837-.0647127.1846395-.0270891.0648122-.0368712.1763496-.0368712.4446422v.1575088h.471801c.8036418,0,1.0715224-.0188408,1.1272055-.0188408.0925543,0,.1015839.0090436.1015839.1115374v.6473688c0,.0926966-.0090297.1017402-.1015839.1017402-.055683,0-.3235637-.0180871-1.1272055-.0180871h-1.8119565ZM52.8804579,57.6171336c-.0925543,0-.1015839-.0090436-.1015839-.0926966,0-.0648122.0180594-.2961769.0180594-1.5637839v-.6669632c0-.7219783-.0180594-.9714301-.0180594-1.0362423,0-.0926966.0090297-.1017402.1015839-.1017402.0647127,0,.3047518.0180871,1.0256216.0180871h1.3303734c.7208697,0,.970691-.0180871,1.026374-.0180871.1015839,0,.1106136.0090436.1106136.1017402,0,.055015-.0188118.314264-.0188118.9066178v.7687034c0,1.267607.0188118,1.4989716.0188118,1.5547403,0,.1017402-.0090297.1107837-.1106136.1107837h-.71184c-.0925543,0-.1015839-.0090436-.1015839-.1107837v-.4258014h-1.7562734v.4627293c0,.083653-.0090297.0926966-.1015839.0926966h-.7110876ZM53.4719022,52.5263576c-.1392076.0369279-.1482373.0188408-.1662967-.0926966-.055683-.3421484-.1392076-.7121811-.2588509-1.0181552-.0368712-.1017402-.0188118-.1017402.1015839-.1386681l.5079197-.1386681c.1113661-.0278843.1384551-.0188408.1760788.0738558.1106136.2871333.2310094.6662096.2957221,1.0181552.0180594.1017402,0,.1017402-.1113661.1386681l-.5447909.1575088ZM53.6931294,56.2470328h1.7562734v-1.267607h-1.7562734v1.267607ZM59.5616712,49.6663288c.1106136,0,.1941382-.0090436.2310094-.0278843.055683-.0180871.0925543-.0271307.1384551-.0271307.0737424,0,.1482373.0369279.3882764.2773361.1941382.2223211.2219797.3052205.2219797.3798299,0,.0738558-.0368712.1198273-.0835246.1665524-.0647127.0459715-.1106136.1296245-.1941382.3421484-.2678806.7129347-.5267315,1.3422164-.840513,2.008426.942097.8516028,1.1272055,1.4070287,1.1272055,2.1659349,0,.9623865-.5455434,1.4718409-1.6260955,1.5735811q-.2866925.0278843-.3333458-.2780898c-.0459009-.2682926-.1384551-.4717729-.2580985-.6104409.8683546.0180871,1.2844725-.2132775,1.2844725-.7589062,0-.5833102-.21295-1.036996-1.1926707-1.9436138.3792467-.7867905.6749688-1.5554939.9518791-2.4251839h-1.2935022v5.1827189c0,1.2404763.0188118,1.8885987.0188118,1.9345702,0,.0926966-.0097822.1017402-.1023364.1017402h-.7389291c-.1015839,0-.1106136-.0090436-.1106136-.1017402,0-.0557687.0180594-.6662096.0180594-1.924773v-3.9987649c0-1.267607-.0180594-1.8878451-.0180594-1.9526574,0-.0926966.0090297-.1017402.1106136-.1017402.055683,0,.3047518.0180871.8224537.0180871h1.4786107Z"/><path class="cls-2" d="M62.265309,53.1375522c.3047518-.2411619.9699385-.8146749,1.653937-1.434913.3047518-.2773361.5357612-.3888735.8043943-.3888735.3137815,0,.4898603.083653.8036418.342902.6930282.5554259,1.0903343.9254586,1.9963125,1.5916682.8224537.5923538,1.4597988.9533429,2.1806686,1.3603036.0925543.0376815.1384551.1115374.0925543.1944367-.1015839.2780898-.2769103.6292817-.4529891.8704436-.0459009.0648122-.0827721.0926966-.1196433.0926966-.0376237,0-.0744949-.0097972-.1294255-.0467251-.4439594-.259249-1.4515216-.9993144-1.9963125-1.4251158-.6651867-.4996572-1.3311258-1.092011-1.9406295-1.6383933-.1753264-.1665524-.2957221-.2125239-.4070882-.2125239-.1015839,0-.1933857.0828994-.3137815.1944367-.4529891.4529321-1.1181758,1.092011-1.5523531,1.526856-.1851085.1944367-.2588509.2871333-.3325933.4069606-.0466534.0746094-.1023364.1115374-.1670491.1115374s-.1196433-.0278843-.1753264-.083653c-.1941382-.1944367-.5357612-.6383253-.7577409-.9623865.2769103-.1107837.5086722-.259249.813424-.4996572Z"/></g><polygon class="cls-3" points="43.3887556 40.5790488 42.6182226 40.5790488 42.6182226 17.2345816 48.2670421 22.2304001 47.756865 22.8091885 43.3887556 18.9453235 43.3887556 40.5790488"/></g></svg>