<?xml version="1.0" encoding="UTF-8"?><svg id="_レイヤー_2" xmlns="http://www.w3.org/2000/svg" viewBox="0 0 342.3033488 88.1240234"><defs><style>.cls-1{opacity:.4;}.cls-2{fill:#9fe5e6;}</style></defs><g id="fruits"><g class="cls-1"><path class="cls-2" d="M9.681757,86.8334226v-48.1964364H0v-12.9255171h9.681757v-7.6835769C9.681757,6.4019802,16.1220051,0,27.8169493,0c2.0612095,0,4.5020958.1770824,7.6813258.5597606l3.1852328.3811774-2.0717144,12.6478878-3.2805271-.40819c-1.488693-.1875873-2.8948476-.3631691-4.008366-.3631691-3.6069291,0-4.8877754.8358891-4.8877754,5.5330758v7.3609267h12.2644593v12.9255171h-12.2644593v48.1964364h-14.753368Z"/><path class="cls-2" d="M34.0568541,10.1732358c-1.7213013-.2145999-3.3353026-.4291998-4.7339537-.4291998-5.593854,0-7.9612061,2.4731513-7.9612061,8.6065065v10.4343574h12.2644593v6.7786556h-12.2644593v48.1964364h-8.6065065v-48.1964364H3.0734307v-6.7786556h9.681757v-10.7570076c0-10.0051576,5.2719542-14.9544616,15.0617615-14.9544616,2.1512514,0,4.6259034.2145999,7.3151553.5372501l-1.0752505,6.562555Z"/><path class="cls-2" d="M60.6687425,86.8334226V25.7114692h14.5387681v5.7776896c5.183413-5.8572267,11.0819088-6.9602401,14.7848826-6.9602401h3.3157936l-1.1120177,14.6453177h-2.8490763c-5.8362169,0-10.979111,5.0558536-13.816932,13.5528091v34.1063772h-14.8614183Z"/><path class="cls-2" d="M89.3470928,36.1008056c-6.7779052,0-13.4477602,5.3785038-16.8903628,16.1370121v31.5221742h-8.7145568V28.7848999h8.3919066v13.986511c4.087903-10.5439084,10.650458-15.1690615,17.8583134-15.1690615l-.6453004,8.4984562Z"/><path class="cls-2" d="M135.3847742,88.1240234c-11.0398893,0-18.4578425-7.503493-18.4578425-18.6731927V25.7114692h15.0760182v41.0501096c0,6.2879272,2.5564401,7.5770273,6.3944768,7.5770273,4.2634847,0,9.5196816-3.6842151,12.7409311-8.8556225V25.7114692h14.8606679v61.1219535h-14.5380177v-4.9177893c-4.6048937,3.9738499-10.2430183,6.2083901-16.0762338,6.2083901Z"/><path class="cls-2" d="M162.925595,83.7599919h-8.3911562v-10.1132079c-4.4113035,6.9932555-11.6191589,11.4038087-19.1496645,11.4038087-8.6065065,0-15.3844117-5.2719542-15.3844117-15.599762V28.7848999h8.9291567v37.9766789c0,7.5305056,3.5506529,10.650458,9.4679075,10.650458,5.593854,0,12.0491091-4.5186035,15.8143619-11.0811585V28.7848999h8.7138064v54.975092Z"/><path class="cls-2" d="M196.851138,86.8334226V25.7114692h14.9679679v61.1219535h-14.9679679ZM195.8824371,21.315923V4.5186035h16.9053698v16.7973195h-16.9053698Z"/><path class="cls-2" d="M209.7143761,18.2424922h-10.7585083V7.5920342h10.7585083v10.650458ZM208.7456751,83.7599919h-8.8211064V28.7848999h8.8211064v54.975092Z"/><path class="cls-2" d="M262.5299628,88.1240234c-11.1389354,0-17.2737913-6.0583203-17.2737913-17.058441v-32.4285961h-8.929907v-12.9255171h8.929907V9.2202922l14.753368-3.3180446v19.8092216h13.1243596v12.9255171h-13.1243596v30.8138444c0,5.4040157,2.2547997,5.855726,4.5643748,5.855726,2.2172822,0,4.0331275-.0960447,6.2309006-.5747676l3.9791023-.8674038-.8456437,13.3367085-2.4739016.3526642c-3.3075397.4727201-5.9637763.5702655-8.9344091.5702655Z"/><path class="cls-2" d="M256.9361087,28.7848999h13.1243596v6.7786556h-13.1243596v33.8872752c0,6.1318545,2.6892519,8.9291567,7.6378055,8.9291567,2.3666017,0,4.4113035-.1065496,6.8852052-.6453004l-.4299502,6.7771549c-3.0126524.4307005-5.4865541.5387508-8.4992065.5387508-9.2518069,0-14.2003605-4.5186035-14.2003605-13.9850103v-35.5020269h-8.929907v-6.7786556h8.929907V11.6799372l8.6065065-1.9359012v19.0408639Z"/><path class="cls-2" d="M318.0363021,88.1240234c-12.467804,0-21.0165336-5.307971-24.7225088-15.3491453l-1.0775016-2.9203595,14.411959-5.1098787.9724527,3.0074c1.6657755,5.1564004,5.2419402,7.7706174,10.6309489,7.7706174,4.2904973,0,9.4056285-1.0339813,9.4056285-5.9637763,0-3.5386473,0-4.730202-9.7432857-7.2438722l-4.3025029-.9439394c-13.3757267-3.3705691-18.5516361-8.6710365-18.5516361-18.9223087,0-8.3168717,5.9044987-18.0278923,22.5457455-18.0278923,11.5028548,0,19.4963259,5.2764563,23.1152606,15.2591034l1.0872561,2.9998965-14.4307178,4.6251531-.8869129-3.0239077c-1.4316665-4.884774-4.3730357-7.2588791-8.992186-7.2588791-3.9228262,0-8.1150277,1.2560847-8.1150277,4.7797251,0,2.7642868,0,4.4330637,8.942663,6.5880669l4.4195574,1.0775016c11.7339624,2.8078071,19.5578546,7.1553309,19.5578546,19.2299519,0,9.3913719-6.3749677,19.4265434-24.2670468,19.4265434Z"/><path class="cls-2" d="M329.4401107,43.4167113c-1.8293516-6.2399048-6.0245545-9.4679075-11.9418091-9.4679075-7.1005554,0-11.1884584,3.2280027-11.1884584,7.8531558,0,5.2719542,2.3666017,7.423956,11.2957584,9.5759578l4.4113035,1.0760009c12.5871095,3.0119021,17.213013,7.2078554,17.213013,16.2435617,0,9.2533076-6.8852052,16.3531127-21.193616,16.3531127-10.7585083,0-18.5043641-4.3040036-21.8389164-13.3397099l8.4984562-3.0134028c2.2593017,6.9932555,7.4232056,9.898608,13.5558105,9.898608,9.0364566,0,12.4790592-4.1959533,12.4790592-9.037207,0-5.8092043-2.0439515-7.6385559-12.0491091-10.2197575l-4.4105532-.9694513c-12.3717593-3.1199524-16.1377624-7.4224553-16.1377624-15.9209115,0-8.3919066,6.455255-14.9544616,19.4723147-14.9544616,10.3278078,0,17.105713,4.6266538,20.2256654,13.2331603l-8.3911562,2.6892519Z"/></g></g></svg>