<?xml version="1.0" encoding="UTF-8"?><svg id="_レイヤー_2" xmlns="http://www.w3.org/2000/svg" viewBox="0 0 401.4180993 88"><defs><style>.cls-1{opacity:.4;}.cls-2{fill:#9fe5e6;}</style></defs><g id="ice_x5F_01"><g class="cls-1"><path class="cls-2" d="M0,88V18.3224132h12.5689264v3.0917937c3.3052222-2.6636393,7.2338631-4.1141745,11.3869608-4.1141745,12.7447292,0,20.9802141,10.7181317,20.9802141,27.3045735,0,16.2958158-8.8186831,27.676938-21.4446967,27.676938-4.2244567,0-7.7171586-1.1365553-10.643529-3.510866v19.2293221H0ZM12.8478754,53.9811872c3.3765813,6.1239053,6.7745702,6.8478754,9.0619526,6.8478754,6.1634771,0,9.9922154-6.1459617,9.9922154-16.0389231s-3.6153098-16.0376257-9.4343172-16.0376257c-4.717483,0-7.8008433,3.7444048-9.6198508,7.1099578v18.1187155Z"/><path class="cls-2" d="M9.9117742,28.4203698c3.4414531-5.4868634,8.6500162-8.4631852,14.0441129-8.4631852,10.5105417,0,18.323062,8.8355498,18.323062,24.6474213s-8.3704184,25.0197859-18.7875446,25.0197859c-6.046059,0-10.1381771-2.6973727-13.3006812-8.2776516v23.9961077H2.6571521V20.9795654h7.2546221v7.4408044ZM10.1907233,54.6493675c3.1625041,6.046059,6.975673,8.8368472,11.7191048,8.8368472,7.0690886,0,12.6493675-6.3250081,12.6493675-18.6960753,0-12.3697697-5.2085631-18.6947778-12.0914693-18.6947778-4.7434317,0-9.1144989,2.8829063-12.2770029,9.1144989v19.439507Z"/><path class="cls-2" d="M78.7311061,72.281544c-9.5445994,0-15.9578333-6.4871878-15.9578333-16.1440156V18.3224132h13.0347065v35.490107c0,5.4362634,2.2095362,6.5507622,5.527084,6.5507622,3.6853714,0,8.2302952-3.1852092,11.0158936-7.656179V18.3224132h12.8478754v52.8433344h-12.5689264v-4.2517029c-3.9811872,3.4356147-8.8556601,5.3674992-13.8987999,5.3674992Z"/><path class="cls-2" d="M102.5416802,68.5085955h-7.2546221v-8.7434317c-3.8138177,6.046059-10.0454103,9.859228-16.555952,9.859228-7.4408044,0-13.3006812-4.5578982-13.3006812-13.4868634V20.9795654h7.7204022v32.8329549c0,6.5105417,3.0690886,9.2079144,8.1842361,9.2079144,4.8368472,0,10.4171262-3.9065845,13.6730457-9.5802789V20.9795654h7.5335712v47.5290302Z"/><path class="cls-2" d="M126.2912747,71.1657476V18.3224132h12.5695751v4.9951346c4.4813493-5.0638988,9.5809277-6.0175154,12.7823548-6.0175154h2.8666883l-.9614012,12.6616932h-2.4631852c-5.0457347,0-9.4920532,4.3710671-11.9455076,11.7171586v29.4868634h-12.8485242Z"/><path class="cls-2" d="M151.0853065,27.3045735c-5.8598767,0-11.626338,4.6500162-14.6026597,13.9513461v27.252676h-7.5342199V20.9795654h7.2552708v12.0921181c3.5342199-9.1157963,9.2079144-13.1144989,15.439507-13.1144989l-.5578982,7.3473889Z"/><path class="cls-2" d="M190.5163801,72.281544c-14.4962699,0-23.8631203-10.7544599-23.8631203-27.397989,0-16.2958158,9.5452481-27.676938,23.2118067-27.676938,13.605579,0,22.747324,10.8232241,22.747324,26.9322089v4.332144h-33.1897502c.6915342,8.1894259,4.6824522,12.8225754,11.1865066,12.8225754,5.2455401,0,8.0071359-2.2393772,9.5309763-7.7275381l.7486215-2.6947778,12.2062926,4.0713591-.9179371,2.5572494c-3.5173532,9.808628-10.8057087,14.7817061-21.6607201,14.7817061ZM199.5861174,37.7619202c-.908855-4.8121959-3.397989-9.4738891-9.6276354-9.4738891-5.1287707,0-8.8271164,3.5601687-10.0713591,9.4738891h19.6989945Z"/><path class="cls-2" d="M176.6578008,45.8138177c0,11.626338,5.4875122,18.1368797,13.9513461,18.1368797,6.4177749,0,10.2315926-2.9763218,12.0914693-9.6736945l6.975673,2.3263055c-3.0690886,8.5566007-9.2079144,13.0210834-19.1599092,13.0210834-12.8355498,0-21.2059682-9.3013299-21.2059682-24.7408368,0-15.1605579,8.742783-25.0197859,20.5546546-25.0197859,11.626338,0,20.0901719,9.0223808,20.0901719,24.2750568v1.6749919h-33.2974376ZM202.6078495,40.4190723c-.7440804-9.5802789-5.3947454-14.7881933-12.6493675-14.7881933-7.3480376,0-12.4638339,5.7658125-13.1144989,14.7881933h25.7638664Z"/><path class="cls-2" d="M266.348362,71.1657476V18.3224132h12.9406422v52.8433344h-12.9406422ZM265.510866,14.5222186V0h14.6156341v14.5222186h-14.6156341Z"/><path class="cls-2" d="M277.469348,11.8650665h-9.3013299V2.6571521h9.3013299v9.2079144ZM276.6318521,68.5085955h-7.626338V20.9795654h7.626338v47.5290302Z"/><path class="cls-2" d="M320.5287058,72.281544c-14.2607849,0-23.1196886-10.4988647-23.1196886-27.397989,0-16.8134934,9.074927-27.676938,23.1196886-27.676938,10.4956211,0,18.0434642,5.8773922,20.7084009,16.1271489l.6675316,2.5650341-12.7252676,3.3396043-.5585469-2.7557574c-1.0775219-5.3143042-3.7690561-8.0090821-7.9993513-8.0090821-9.1858579,0-10.1777489,11.3460915-10.1777489,16.2244567,0,4.934155.991891,16.4099903,10.1777489,16.4099903,3.4116121,0,7.0963347-.9834577,8.5553033-8.281544l.5786572-2.8932858,12.456698,3.8819332-.7129419,2.4949724c-2.9425884,10.2990594-10.38988,15.9714564-20.9704833,15.9714564Z"/><path class="cls-2" d="M331.2247811,35.9545897c-1.3953941-6.8829063-5.3013299-10.1381771-10.6033085-10.1381771-7.9052871,0-12.8349011,6.6973727-12.8349011,18.8816088,0,12.2763542,4.929614,19.0671424,12.8349011,19.0671424,6.2315926,0,9.7664612-3.4421018,11.1612066-10.4171262l7.1618553,2.2315926c-2.6039572,9.1144989-8.9289653,14.0447616-18.4158287,14.0447616-12.5566007,0-20.4625365-9.3013299-20.4625365-24.7408368s8.1855336-25.0197859,20.4625365-25.0197859c9.1151476,0,15.718456,4.8368472,18.1368797,14.1381771l-7.4408044,1.9526435Z"/><path class="cls-2" d="M378.8394421,72.281544c-14.4962699,0-23.8631203-10.7544599-23.8631203-27.397989,0-16.2958158,9.5452481-27.676938,23.2118067-27.676938,13.605579,0,22.747324,10.8232241,22.747324,26.9322089v4.332144h-33.1897502c.6915342,8.1894259,4.6824522,12.8225754,11.1865066,12.8225754,5.2455401,0,8.0071359-2.2393772,9.5309763-7.7275381l.7486215-2.6947778,12.2062926,4.0713591-.9179371,2.5572494c-3.5173532,9.808628-10.8057087,14.7817061-21.6607201,14.7817061ZM387.9091794,37.7619202c-.908855-4.8121959-3.397989-9.4738891-9.6276354-9.4738891-5.1287707,0-8.8271164,3.5601687-10.0713591,9.4738891h19.6989945Z"/><path class="cls-2" d="M364.9808628,45.8138177c0,11.626338,5.4875122,18.1368797,13.9513461,18.1368797,6.4177749,0,10.2315926-2.9763218,12.0914693-9.6736945l6.975673,2.3263055c-3.0690886,8.5566007-9.2079144,13.0210834-19.1599092,13.0210834-12.8355498,0-21.2059682-9.3013299-21.2059682-24.7408368,0-15.1605579,8.742783-25.0197859,20.5546546-25.0197859,11.626338,0,20.0901719,9.0223808,20.0901719,24.2750568v1.6749919h-33.2974376ZM390.9309114,40.4190723c-.7440804-9.5802789-5.3947454-14.7881933-12.6493675-14.7881933-7.3480376,0-12.4638339,5.7658125-13.1144989,14.7881933h25.7638664Z"/></g></g></svg>