<?xml version="1.0" encoding="UTF-8"?><svg id="_レイヤー_2" xmlns="http://www.w3.org/2000/svg" viewBox="0 0 525.772993 188.4878884"><defs><style>.cls-1{opacity:.4;}.cls-2{fill:#9fe5e6;}</style></defs><g id="ice_x5F_02"><g class="cls-1"><path class="cls-2" d="M.8819404,74.884384V19.2798175h13.6168319v55.6045665H.8819404ZM0,15.2810507V0h15.3793474v15.2810507H0Z"/><path class="cls-2" d="M12.5833507,12.4850539H2.7959968V2.7959968h9.7873539v9.6890571ZM11.7027755,72.0883873H3.6779371V22.0758143h8.0248384v50.012573Z"/><path class="cls-2" d="M57.8926967,76.0584842c-15.0052736,0-24.3270832-11.0474638-24.3270832-28.8296209,0-17.6920518,9.5484382-29.123146,24.3270832-29.123146,11.0447333,0,18.9862925,6.1845046,21.7904806,16.9698436l.7017297,2.6990652-13.3902033,3.5141092-.5870501-2.8997545c-1.1331432-5.5919935-3.9660013-8.427582-8.4180254-8.427582-9.6658482,0-10.708886,11.9389608-10.708886,17.0722361,0,5.1919803,1.0430379,17.2674644,10.708886,17.2674644,3.5905623,0,7.4678234-1.0348465,9.0037103-8.7142809l.6088938-3.0444691,13.1076001,4.0847765-.750878,2.6253427c-3.096348,10.8372179-10.9327842,16.8060157-22.0662577,16.8060157Z"/><path class="cls-2" d="M69.1476758,37.8333312c-1.4676253-7.24256-5.5783412-10.6679291-11.1580476-10.6679291-8.3169982,0-13.5048828,7.0473317-13.5048828,19.8682329,0,12.9178327,5.1878846,20.0634612,13.5048828,20.0634612,6.5585783,0,10.2774725-3.6219626,11.7450977-10.9614541l7.536085,2.3482004c-2.7400222,9.5907604-9.3955321,14.778645-19.3781143,14.778645-13.212723,0-21.5310864-9.7873539-21.5310864-26.0336242s8.6118885-26.3271492,21.5310864-26.3271492c9.5907604,0,16.5397953,5.0895879,19.0845892,14.8769418l-7.8296101,2.0546754Z"/><path class="cls-2" d="M119.2503542,76.0584842c-15.253746,0-25.1093616-11.3164146-25.1093616-28.8296209,0-17.1473239,10.0440177-29.123146,24.4240147-29.123146,14.3158311,0,23.9352614,11.388772,23.9352614,28.3395024v4.5585123h-34.9240201c.7276691,8.6173494,4.9271252,13.4925957,11.7724024,13.4925957,5.5196362,0,8.4248516-2.3563918,10.0290001-8.1313265l.7863741-2.8355885,12.8454754,4.2841005-.9652196,2.6922391c-3.7025113,10.3197947-11.3723892,15.552732-22.7939267,15.552732ZM128.7946966,39.7351005c-.9570282-5.0636484-3.5755447-9.9689299-10.1313926-9.9689299-5.3967652,0-9.2876787,3.7461988-10.596937,9.9689299h20.7283295Z"/><path class="cls-2" d="M104.6669374,48.2077352c0,12.2338511,5.7749347,19.0845892,14.6817135,19.0845892,6.7524414,0,10.7662258-3.131844,12.7226044-10.1791757l7.3408567,2.4478624c-3.2301408,9.0037103-9.6904224,13.7014763-20.1617579,13.7014763-13.506248,0-22.3133648-9.7873539-22.3133648-26.0336242,0-15.9527452,9.1989386-26.3271492,21.6280179-26.3271492,12.2338511,0,21.1392646,9.4938289,21.1392646,25.5435056v1.7625155h-35.0373344ZM131.9743238,42.5310973c-.7836436-10.080879-5.676638-15.5609234-13.3110197-15.5609234-7.7326785,0-13.1144262,6.0670945-13.7997731,15.5609234h27.1107928Z"/></g><g class="cls-1"><path class="cls-2" d="M17.8463231,187.2154915L0,131.610925h14.5711296l8.2023186,29.4494366c.8491748,3.0745043,1.5782091,5.8745967,2.3031477,8.7019938.081914-.316734.1624627-.6361985.2443767-.955663.6580422-2.5734638,1.3379281-5.2343025,2.1529721-8.0630649l8.2036839-29.1327026h13.9758881l-17.8435926,55.6045665h-13.963601Z"/><path class="cls-2" d="M29.7702663,184.4194947h-9.8842854L3.8335737,134.4069217h8.6132537l7.6330166,27.4043179c1.5672872,5.676638,2.7413875,10.4713355,4.2103779,16.1479735h1.46626c1.665584-5.676638,2.7413875-10.6679291,4.404241-16.4414985l7.6343818-27.1107928h8.0248384l-16.0496767,50.012573Z"/><path class="cls-2" d="M79.6777164,188.3895917c-11.0324462,0-18.1616919-6.8220683-18.1616919-17.3794135,0-7.2343686,3.2519845-16.4374028,18.7473767-19.1938079,3.6260583-.6321028,8.1067523-1.1181257,13.353342-1.4526077v-.0040957c0-6.4848558-1.7434023-8.3606856-7.7736355-8.3606856-4.8820725,0-8.1449789,2.5639072-9.4337586,7.4159445l-.7481476,2.8192057-12.9983814-4.0520109.8409834-2.674491c3.0581215-9.717727,11.0611161-15.0708048,22.5358977-15.0708048,17.2756558,0,20.9017141,10.5682671,20.9017141,19.4340888v18.3009456c0,5.7230559.3208297,11.066577.9542977,15.8831183l.4150308,3.1605139h-12.6830127l-.4778315-2.2021205c-.1447147-.6648684-.2730466-1.3297367-.3918218-2.0273707-4.128464,3.553701-9.2467217,5.4035914-15.0803615,5.4035914ZM93.6167432,161.3866522c-3.4840741.2047849-6.9558611.6662336-10.5395972,1.4007288-7.237099,1.5440783-8.2378147,4.6772876-8.2378147,7.8323405,0,5.1305448,3.6956852,6.2077135,6.7961289,6.2077135,4.4820593,0,8.7156462-2.7932663,11.981283-7.8855846v-7.5551983Z"/><path class="cls-2" d="M66.1714683,146.3472477c2.7400222-8.7101852,9.8856507-13.1144262,19.8682329-13.1144262,12.0386228,0,18.1057173,5.2848161,18.1057173,16.6380921v18.3009456c0,7.1456284.4887533,12.5273761.9775067,16.2476355h-7.2411947c-.4887533-2.2512689-.7836436-4.5025378-1.0758034-7.9279068-4.2103779,6.1653913-10.2774725,9.102007-17.1282106,9.102007-9.6890571,0-15.3656951-5.8718663-15.3656951-14.5834167,0-8.5135917,4.8943596-14.3868232,16.4414985-16.4414985,4.5025378-.7836436,9.9825822-1.272397,15.6592202-1.565922v-2.6430907c0-8.0248384-3.0335473-11.1566824-10.5696323-11.1566824-5.9687978,0-10.4713355,3.2301408-12.1355543,9.4938289l-7.536085-2.3495656ZM96.41274,158.4828021c-5.3817477.0982968-10.080879.7836436-13.8967046,1.565922-7.3408567,1.565922-10.4727008,4.9912911-10.4727008,10.5709975,0,5.4800444,3.4267343,9.0037103,9.5921256,9.0037103,5.3817477,0,10.7662258-3.2301408,14.7772798-9.8842854v-11.2563444Z"/><path class="cls-2" d="M128.744183,187.2154915v-55.6045665h13.2263753v5.2561463c4.7155141-5.3285036,10.080879-6.3319497,13.4502735-6.3319497h3.0157992l-1.0116375,13.3233068h-2.5912118c-5.3093903,0-9.9880431,4.5994693-12.5696983,12.3294174v31.0276457h-13.5199004Z"/><path class="cls-2" d="M154.8337817,141.0624316c-6.1653913,0-12.2338511,4.8929943-15.3656951,14.6803482v28.6767149h-7.9279068v-50.012573h7.6343818v12.7239696c3.7188941-9.5921256,9.6890571-13.7997731,16.2462703-13.7997731l-.5870501,7.7313133Z"/><path class="cls-2" d="M174.3456888,187.2154915v-55.6045665h13.6181971v55.6045665h-13.6181971ZM173.4664789,127.6121581v-15.2810507h15.3779822v15.2810507h-15.3779822Z"/><path class="cls-2" d="M186.0484643,124.8161613h-9.7859887v-9.6890571h9.7859887v9.6890571ZM185.1678892,184.4194947h-8.0262036v-50.012573h8.0262036v50.012573Z"/><path class="cls-2" d="M225.0941223,188.3895917c-11.0324462,0-18.1616919-6.8220683-18.1616919-17.3794135,0-7.2343686,3.2519845-16.4374028,18.7473767-19.1938079,3.6260583-.6321028,8.1067523-1.1181257,13.353342-1.4526077v-.0040957c0-6.4848558-1.7434023-8.3606856-7.7736355-8.3606856-4.8820725,0-8.1449789,2.5639072-9.4337586,7.4159445l-.7481476,2.8192057-12.9983814-4.0520109.8409834-2.674491c3.0581215-9.717727,11.0611161-15.0708048,22.5358977-15.0708048,17.2756558,0,20.9017141,10.5682671,20.9017141,19.4340888v18.3009456c0,5.7230559.3208297,11.066577.9542977,15.8831183l.4150308,3.1605139h-12.6830127l-.4778315-2.2021205c-.1447147-.6648684-.2730466-1.3297367-.3918218-2.0273707-4.128464,3.553701-9.2467217,5.4035914-15.0803615,5.4035914ZM239.0331491,161.3866522c-3.4840741.2047849-6.9558611.6662336-10.5395972,1.4007288-7.237099,1.5440783-8.2378147,4.6772876-8.2378147,7.8323405,0,5.1305448,3.6956852,6.2077135,6.7961289,6.2077135,4.4820593,0,8.7156462-2.7932663,11.981283-7.8855846v-7.5551983Z"/><path class="cls-2" d="M211.5878742,146.3472477c2.7400222-8.7101852,9.8856507-13.1144262,19.8682329-13.1144262,12.0386228,0,18.1057173,5.2848161,18.1057173,16.6380921v18.3009456c0,7.1456284.4887533,12.5273761.9775067,16.2476355h-7.2411947c-.4887533-2.2512689-.7836436-4.5025378-1.0758034-7.9279068-4.2103779,6.1653913-10.2774725,9.102007-17.1282106,9.102007-9.6890571,0-15.3656951-5.8718663-15.3656951-14.5834167,0-8.5135917,4.8943596-14.3868232,16.4414985-16.4414985,4.5025378-.7836436,9.9825822-1.272397,15.6592202-1.565922v-2.6430907c0-8.0248384-3.0335473-11.1566824-10.5696323-11.1566824-5.9687978,0-10.4713355,3.2301408-12.1355543,9.4938289l-7.536085-2.3495656ZM241.8291459,158.4828021c-5.3817477.0982968-10.080879.7836436-13.8967046,1.565922-7.3408567,1.565922-10.4727008,4.9912911-10.4727008,10.5709975,0,5.4800444,3.4267343,9.0037103,9.5921256,9.0037103,5.3817477,0,10.7662258-3.2301408,14.7772798-9.8842854v-11.2563444Z"/><path class="cls-2" d="M292.2253492,188.3895917c-10.1354883,0-15.7165599-5.5114448-15.7165599-15.5186012v-29.5013155h-8.1231351v-11.7587501h8.1231351v-15.0025432l13.4229688-3.0185297v18.0210729h11.940326v11.7587501h-11.940326v28.032325c0,4.9162033,2.0519449,5.3271384,4.1530382,5.3271384,2.0150836,0,3.6670153-.0873749,5.6698118-.5228842l3.6192321-.7877393-.7713565,12.1314586-2.2499036.3208297c-3.0076078.4300483-5.4240699.5187885-8.1272308.5187885Z"/><path class="cls-2" d="M287.1357614,134.4069217h11.940326v6.1667565h-11.940326v30.8283217c0,5.5783412,2.4464972,8.1231351,6.9490349,8.1231351,2.1516069,0,4.011054-.0969315,6.2636881-.5870501l-.3918218,6.1653913c-2.7400222.3918218-4.9926563.4901186-7.7313133.4901186-8.4180254,0-12.9205632-4.1107159-12.9205632-12.7226044v-32.2973122h-8.1231351v-6.1667565h8.1231351v-15.5609234l7.8309753-1.7611503v17.3220737Z"/><path class="cls-2" d="M318.2958347,187.2154915v-55.6045665h13.6168319v55.6045665h-13.6168319ZM317.4138943,127.6121581v-15.2810507h15.3807127v15.2810507h-15.3807127Z"/><path class="cls-2" d="M329.9986102,124.8161613h-9.7887191v-9.6890571h9.7887191v9.6890571ZM329.1166698,184.4194947h-8.0248384v-50.012573h8.0248384v50.012573Z"/><path class="cls-2" d="M375.2096594,188.4878884c-14.4933113,0-24.2301516-11.5853655-24.2301516-28.8296209,0-17.4190052,9.776432-29.123146,24.3284484-29.123146,14.4905809,0,24.2274212,11.5853655,24.2274212,28.8296209,0,17.4190052-9.776432,29.123146-24.3257179,29.123146ZM375.3079562,142.2925063c-9.2344346,0-10.6133197,10.7566692-10.6133197,17.1691676,0,6.4493597,1.366598,17.2674644,10.515023,17.2674644,9.2317042,0,10.6105893-10.8181047,10.6105893-17.2674644,0-6.4124984-1.3652328-17.1691676-10.5122925-17.1691676Z"/><path class="cls-2" d="M396.7393806,159.3647424c0,16.1479735-8.808482,26.3271492-21.5297212,26.3271492-12.7239696,0-21.4341549-9.9839474-21.4341549-26.0336242,0-16.1493387,8.808482-26.3271492,21.5324516-26.3271492,12.5273761,0,21.4314244,9.8842854,21.4314244,26.0336242ZM361.8986397,159.461674c0,12.9191979,4.9912911,20.0634612,13.3110197,20.0634612,8.3169982,0,13.406586-7.0459665,13.406586-20.0634612,0-12.8209012-4.9912911-19.9651644-13.3082893-19.9651644-8.4180254,0-13.4093165,7.1442632-13.4093165,19.9651644Z"/><path class="cls-2" d="M449.5274719,187.2154915v-36.7575278c0-6.8111464-2.9024849-7.3818137-5.6220286-7.3818137-3.6738415,0-8.0384907,2.973477-11.7846895,7.9961685v36.143173h-13.5212656v-55.6045665h13.2263753v4.9052814c4.5598775-3.8950092,9.6289869-5.9810849,14.7226705-5.9810849,10.1409492,0,16.6940666,6.7060235,16.6940666,17.0845232v39.5958467h-13.7151287Z"/><path class="cls-2" d="M429.0298667,143.5089288c4.8929943-6.2636881,11.0611161-10.1778105,17.5186672-10.1778105,8.2214319,0,13.8980699,5.1865194,13.8980699,14.2885264v36.79985h-8.1231351v-33.961531c0-7.1442632-3.0335473-10.1778105-8.4180254-10.1778105-4.6964008,0-10.0781485,3.5223006-14.5806862,9.8842854v34.2550561h-7.9292721v-50.012573h7.6343818v9.102007Z"/><path class="cls-2" d="M503.6971787,188.3895917c-11.3409888,0-19.1187201-4.8288284-22.4922103-13.9622358l-.9816024-2.6581083,13.113061-4.6486177.8846709,2.7359265c1.5154084,4.6909399,4.7687582,7.0691754,9.6699439,7.0691754,3.9032006,0,8.5572792-.9406454,8.5572792-5.4254351,0-3.2192189,0-4.3032138-8.8630913-6.5899787l-3.9154877-.8587314c-12.1669547-3.0663129-16.8742773-7.8869499-16.8742773-17.2142203,0-7.5661201,5.3708258-16.4005416,20.508527-16.4005416,10.4672398,0,17.7384697,4.8001585,21.030046,13.8816871l.9884285,2.7291004-13.1294438,4.2076475-.8054873-2.7509441c-1.3024321-4.4438327-3.9769231-6.603631-8.1791097-6.603631-3.5687185,0-7.383179,1.1426998-7.383179,4.3482665,0,2.5147588,0,4.0328977,8.134057,5.993372l4.0206106.9802371c10.6761205,2.5543506,17.793079,6.5080647,17.793079,17.494093,0,8.5436268-5.7995089,17.6729385-22.0758143,17.6729385Z"/><path class="cls-2" d="M514.0702175,147.7179415c-1.6628535-5.676638-5.4800444-8.6132537-10.8617921-8.6132537-6.4602816,0-10.1791757,2.9366157-10.1791757,7.1442632,0,4.7960628,2.1516069,6.7538066,10.274742,8.7115505l4.0137844.9788719c11.4515727,2.7400222,15.6592202,6.5572131,15.6592202,14.7772798,0,8.4180254-6.2636881,14.8769418-19.2798175,14.8769418-9.7887191,0-16.8333204-3.9154877-19.8695981-12.1355543l7.7326785-2.7413875c2.0560406,6.3619848,6.7524414,9.0050755,12.3307826,9.0050755,8.2214319,0,11.3532759-3.8171909,11.3532759-8.2214319,0-5.2848161-1.8594471-6.9490349-10.9600889-9.2972353l-4.0137844-.8819404c-11.2549792-2.838319-14.678983-6.7524414-14.678983-14.4837547,0-7.6343818,5.870501-13.6045448,17.7125303-13.6045448,9.3955321,0,15.5636539,4.2090127,18.4006076,12.0386228l-7.6343818,2.4464972Z"/></g></g></svg>