<?xml version="1.0" encoding="UTF-8"?><svg id="_レイヤー_2" xmlns="http://www.w3.org/2000/svg" viewBox="0 0 187.328125 79.8017578"><defs><style>.cls-1{fill:#64bcb8;}.cls-2{fill:#17a5a2;}</style></defs><g id="ice_x5F_02_x5F_02"><path class="cls-2" d="M66.3251953,36.9677734l3.6630859,3.4785156c-.2587891.2958984-.6289062.4072266-1.4052734.4443359-1.1103516,1.2207031-3.0341797,2.9599609-4.5517578,3.9589844l-.4072266-.2587891.1484375-.5917969c-.2587891.1103516-.6289062.1474609-1.1103516.1474609h-6.8828125l-.1845703-.7402344h4.0703125l1.5908203-1.9238281,2.7011719,1.8134766c.2597656-1.1103516.4814453-2.4423828.6289062-3.515625h-10.2861328v10.1015625c0,.2226562-1.2216797.9257812-3.2197266.9257812h-.6660156v-11.0273438h-9.8427734c.0371094.2958984.0371094.5917969.0371094.8886719,0,2.8486328-1.7392578,4.1435547-3.3671875,4.1435547-1.1464844,0-2.0351562-.6289062-2.0351562-1.6650391,0-.8876953.7402344-1.5908203,1.5917969-1.9609375,1.3691406-.5175781,2.7011719-2.0722656,2.5898438-3.921875l.5546875-.0371094c.2597656.6289062.4072266,1.2578125.5185547,1.8125h9.953125v-3.9960938h-11.6181641l-.2226562-.703125h21.8691406l2.1826172-2.8115234,4.1445312,2.8857422c-.2958984.4814453-.7773438.6289062-1.8134766.6289062h-10.65625v3.9960938h9.9902344l2.0351562-2.0722656ZM45.9375,45.7011719l3.1445312,2.1455078c-.2958984.5185547-.7763672.6660156-1.6650391.6660156h-8.1777344l-.2216797-.7392578h5.2539062l1.6660156-2.0722656ZM60.3681641,52.5097656l1.5908203-2.0722656,4.2558594,3.0341797c-.2226562.2958984-.7402344.6289062-1.5175781.7763672v10.8046875c0,.0742188-1.0361328,1.1103516-3.9589844,1.1103516v-2.3681641h-21.1660156l-.2216797-.7402344h21.3876953v-4.6621094h-19.5371094l-.2597656-.7402344h19.796875v-4.4033203h-20.1669922l-.2216797-.7392578h20.0185547ZM46.0107422,41.5566406l2.9609375,1.9609375c-.2597656.4814453-.7773438.6289062-1.6650391.6289062h-7.1416016l-.2226562-.7402344h4.5146484l1.5537109-1.8496094ZM62.7363281,45.7011719l3.2929688,2.1455078c-.2587891.5185547-.7402344.6660156-1.6650391.6660156h-8.5107422l-.2216797-.7392578h5.4023438l1.7021484-2.0722656Z"/><path class="cls-2" d="M88.0429688,36.8945312v3.4775391c0,.2597656-.8134766.703125-1.9238281.9257812l2.8486328,1.109375c-.1845703.4443359-.5546875.703125-1.4794922.5927734-.8515625,1.7021484-1.7763672,3.2929688-2.8125,4.7363281l1.40625.5175781c-.1113281.3330078-.4443359.5917969-1.1474609.703125v16.1699219s-.6289062,1.0361328-3.8476562,1.0361328v-14.171875c-1.8134766,1.8134766-3.8115234,3.2929688-5.9208984,4.4404297l-.4072266-.3701172c3.4414062-3.2558594,6.9941406-9.2138672,9.0292969-15.6894531l.4072266.1484375v-3.6259766h-8.9179688l-.1855469-.7402344h9.1035156v-4.7363281l5.2539062.4072266c-.0371094.5175781-.3330078.7763672-1.40625.9248047v3.4042969h8.4736328v-4.7363281l5.2919922.4072266c-.0371094.5546875-.296875.7763672-1.3691406.9248047v3.4042969h3.2558594l2.0722656-2.9228516,3.9589844,2.9970703c-.2958984.4804688-.703125.6660156-1.6650391.6660156h-7.6220703v3.2929688c0,.1474609-.7402344,1.0732422-3.9228516,1.0732422v-4.3662109h-8.4736328ZM107.9873047,56.3203125v5.5878906c1.4433594.5917969,1.6650391.8134766,1.6650391,1.40625,0,1.5537109-1.1835938,2.3681641-5.328125,2.3681641h-6.5126953c-4.2919922,0-5.2539062-.8886719-5.2539062-4.8476562v-19.5371094l5.2910156.4433594c-.0742188.4814453-.2958984.7402344-1.40625.8886719v8.6582031c2.7011719-1.6650391,5.7724609-4.0703125,8.3261719-6.6601562l3.5888672,3.8115234c-.1845703.1845703-.4072266.2587891-.703125.2587891-.2216797,0-.5175781-.0742188-.8876953-.2226562-3.3671875,2.0351562-7.0673828,3.3671875-10.3242188,4.1445312v8.2890625c0,1.2578125.1484375,1.40625,1.4433594,1.40625h6.4755859c.703125,0,1.1474609-.0742188,1.5175781-.6298828.40625-.6289062,1.0351562-2.7744141,1.8125-5.3652344h.2958984Z"/><path class="cls-2" d="M116.7539062,53.5449219c.5185547,0,.6660156,0,1.0732422-.7392578q.7773438-1.2587891,7.2529297-14.3574219l.6289062.1484375c-1.40625,3.9960938-4.1074219,11.5078125-4.5878906,13.1728516-.2597656,1.0361328-.5185547,2.1455078-.5185547,2.9970703v.1845703c.0371094,1.7021484,1.2578125,3.0341797,1.2578125,5.8095703,0,3.1083984-1.9980469,3.2929688-2.7744141,3.2929688-.7773438,0-1.5175781-.5546875-1.7392578-1.8125.2587891-1.4804688.3701172-2.8496094.3701172-4.0332031,0-3.4042969-.703125-3.7373047-2.6640625-3.9228516v-.7402344c1.2949219,0,1.7011719-.0361328,1.7011719-.0361328v.0361328ZM115.9033203,33.1201172c4.9580078,1.1835938,6.5498047,3.3671875,6.5498047,5.0322266,0,1.3320312-.9990234,2.3310547-2.1464844,2.3310547-.5546875,0-1.1845703-.2216797-1.7021484-.8144531-.1845703-2.1083984-1.4433594-4.7724609-2.9970703-6.2900391l.2958984-.2587891ZM131,40.7050781l3.4785156,2.9609375c-.2587891.3701172-.5917969.4804688-1.40625.5546875-1.1835938,6.4755859-3.8476562,13.3945312-10.1015625,17.9091797l-.2958984-.5175781c4.1816406-4.6992188,5.9570312-11.7304688,6.6601562-18.1689453h-4.5136719l-.2226562-.7392578h4.4404297l1.9609375-1.9990234ZM138.5117188,38.3369141c.4443359,3.1455078,1.1845703,5.8095703,2.109375,8.0673828,1.8496094-2.2949219,3.8486328-5.3662109,4.8837891-7.3271484l4.5888672,2.9599609c-.1855469.2597656-.4072266.4443359-.8144531.4443359-.1845703,0-.3701172-.0371094-.5917969-.0742188-1.9609375,1.4433594-4.8837891,3.3671875-7.7333984,4.8476562,2.3681641,5.328125,5.8095703,8.3994141,9.4355469,10.4716797l-.1113281.3701172c-1.7021484.3701172-2.9970703,1.8505859-3.5517578,3.8115234-4.4404297-4.4775391-6.9199219-9.8427734-8.1777344-20.2041016h-.0371094v19.3154297c0,2.6279297-.6289062,4.5888672-5.1806641,5.0322266-.0732422-2.5898438-.9248047-3.4033203-4.2548828-3.7734375v-.5185547h4.9580078c.5185547,0,.703125-.2216797.703125-.7402344v-29.3056641l5.3291016.4814453c-.0371094.5175781-.2226562.7763672-1.5546875.9619141v5.1796875Z"/><path class="cls-2" d="M31.7900391,18.4443359c1.3652344.2998047,3.1044922.8701172,4.109375,1.3349609l-.3300781.7050781c-.9746094-.4658203-2.7744141-1.0507812-4.0791016-1.3505859l.2998047-.6894531ZM32.8701172,25.9140625c4.9648438-1.7255859,8.2939453-4.3798828,10.2597656-8.8945312.1796875.1650391.4941406.359375.6748047.4794922-1.9951172,4.5-5.4453125,7.2597656-10.1396484,8.9550781.0449219.1347656-.0449219.2998047-.1503906.359375l-.6445312-.8994141ZM33.3945312,14.7246094c1.3505859.3447266,3.0751953.9443359,4.0654297,1.4541016l-.3457031.6904297c-1.0498047-.5400391-2.6689453-1.125-4.0195312-1.4853516l.2998047-.6591797Z"/><path class="cls-2" d="M57.7099609,25.2539062v.6601562h-10.2001953v-.6601562h6.1953125c.2548828-1.5751953.6894531-4.7695312.8398438-6.375h-5.8496094v-.6601562h6.0888672l.1201172-.0449219.5849609.2998047c-.0146484.0449219-.0898438.1054688-.1650391.1054688-.1943359,1.6347656-.6748047,5.0097656-.9443359,6.6748047h3.3300781Z"/><path class="cls-2" d="M62.4794922,16.2988281h10.2753906v.75h-4.7705078v7.6650391h5.8496094v.75h-12.4042969v-.75h5.7753906v-7.6650391h-4.7255859v-.75Z"/><path class="cls-2" d="M88.2490234,15.9541016c-.0292969.0449219-.0898438.0898438-.1650391.1201172-1.1240234,5.6992188-4.1542969,9.1191406-9.0595703,10.7841797-.1044922-.1796875-.3291016-.4648438-.4794922-.6298828,4.6943359-1.5292969,7.6796875-4.9345703,8.609375-9.7792969h-10.0791016v-.75h10.3642578l.1503906-.0898438.6591797.3447266Z"/><path class="cls-2" d="M102.8447266,17.7695312c-.0302734.0449219-.0898438.0898438-.1347656.0898438-.6455078,1.4550781-2.0253906,3.0742188-3.1806641,3.9892578-.1201172-.1347656-.375-.3300781-.5244141-.4345703,1.1542969-.8251953,2.4150391-2.3398438,2.8046875-3.3300781h-8.9697266v-.6601562h9.2695312l.1054688-.0751953.6298828.4208984ZM97.9394531,19.8837891c-.0146484.0898438-.1044922.1650391-.2548828.1953125-.3300781,2.7294922-1.3798828,5.3398438-3.8544922,6.9150391-.1347656-.1201172-.390625-.3300781-.5556641-.4501953,2.4902344-1.5449219,3.4501953-3.8847656,3.75-6.7802734l.9150391.1201172Z"/><path class="cls-2" d="M106.2802734,19.9443359h12.5244141v.7792969h-11.984375c-.0751953.1503906-.2705078.2548828-.4501953.2705078l-.0898438-1.0498047Z"/><path class="cls-2" d="M129.9345703,25.7333984c.5253906,0,2.1298828-.0449219,3.0898438-.1943359l.0449219.7949219c-1.0351562.1044922-2.4902344.1494141-3.0449219.1494141h-3.8847656c-2.1298828,0-3.2099609-.9443359-3.2099609-3v-8.7890625l1.1552734.0898438c-.0302734.1347656-.1347656.2246094-.3896484.2548828v5.0244141c2.4443359-.734375,5.7441406-1.9492188,7.7539062-3.0439453l.6152344.7792969c-.0449219.0302734-.1044922.0449219-.1796875.0449219-.0605469,0-.1347656-.0146484-.1953125-.0449219-1.9501953.9902344-5.3847656,2.25-7.9941406,3.0302734v2.6845703c0,1.6054688.8095703,2.2197266,2.3994141,2.2197266h3.8398438ZM131.3291016,14.3193359c.7050781.6152344,1.4707031,1.5449219,1.9052734,2.25l-.4501953.3447266c-.4648438-.6904297-1.2451172-1.6494141-1.9042969-2.2353516l.4492188-.359375ZM133.0693359,13.3447266c.7197266.6298828,1.4853516,1.5449219,1.9199219,2.2490234l-.4501953.3457031c-.4648438-.6904297-1.2441406-1.6357422-1.9042969-2.2207031l.4345703-.3740234Z"/><path class="cls-2" d="M137.375,15.3837891c1.5751953.4951172,3.3896484,1.2753906,4.5,2.0703125l-.4199219.6601562c-1.0957031-.7802734-2.8652344-1.5605469-4.4248047-2.0849609l.3447266-.6455078ZM137.4794922,25.8691406c5.4003906-1.6806641,8.9697266-4.6806641,10.7998047-8.8496094.2099609.1796875.4648438.3291016.6904297.4345703-1.875,4.109375-5.5654297,7.3193359-10.6796875,8.984375-.0302734.1201172-.1201172.2851562-.1953125.3300781l-.6152344-.8994141Z"/><polygon class="cls-1" points="187.328125 79.8017578 0 79.8017578 0 78.8017578 186.328125 78.8017578 186.328125 0 187.328125 0 187.328125 79.8017578"/></g></svg>