<?xml version="1.0" encoding="UTF-8"?><svg id="_レイヤー_2" xmlns="http://www.w3.org/2000/svg" viewBox="0 0 33.5838992 33.6602"><defs><style>.cls-1{fill:#fff;}.cls-2{fill:#9fe5e6;}</style></defs><g id="footer"><path class="cls-1" d="M26.0125993,33.6602H7.5702998c-4.1816999,0-7.5702998-3.3984-7.5702998-7.5898V7.5918C0,3.4004,3.3895999,0,7.5702998,0h18.4422995c4.1816999,0,7.5712998,3.4004,7.5712998,7.5918v18.4786c0,4.1914-3.3895999,7.5898-7.5712998,7.5898Z"/><path class="cls-2" d="M27.9852993,15.2403c0-5.0195-5.0214999-9.0996-11.1972997-9.0996-6.173784,0-11.1962997,4.0801-11.1962997,9.0996,0,4.5,3.9825157,8.2715,9.3632998,8.9902.3643.0801.8614.2403.9864.5508.1132.2793.0742.7305.0371,1.0098,0,0-.1319.8007-.1602.9707-.0488.2793-.2246,1.0996.9697.5996,1.1953-.5,6.4482998-3.8086,8.7988998-6.5098h0c1.6201-1.791,2.3983999-3.5996,2.3983999-5.6113Z"/><path class="cls-1" d="M24.2606994,18.1407h-3.1474838c-.1181161,0-.2138161-.0899-.2138161-.209v-.0098h0v-4.8828h0v-.0098c0-.1191.0957-.2089.2138161-.2089h3.1474838c.1172,0,.2129.0898.2129.2089v.8008c0,.1094-.0947.209-.2129.209h-2.1376999v.8301h2.1376999c.1172,0,.2129.0918.2129.2109v.8008c0,.1211-.0947.2109-.2129.2109h-2.1376999v.8301h2.1376999c.1172,0,.2129.0899.2129.209v.8008c0,.1191-.0947.209-.2129.209Z"/><path class="cls-1" d="M12.6229997,18.1407c.1182159,0,.2158-.0899.2158-.209v-.8008c0-.1191-.0975841-.209-.2158-.209h-2.1376999v-3.8926c0-.1191-.0957-.2089-.2139-.2089h-.7939c-.1182,0-.2129.0898-.2129.2089v4.8926h0v.0098c0,.1191.0947.209.2129.209h3.1454999Z"/><path class="cls-1" d="M14.5174996,12.8204h-.7939c-.1182,0-.2139.0918-.2139.2109v4.9004c0,.1191.0957.209.2139.209h.7939c.1182,0,.2139-.0899.2139-.209v-4.9004c0-.1211-.0957-.2109-.2139-.2109Z"/><path class="cls-1" d="M19.9237995,12.8204h-.794c-.1181,0-.2138.0918-.2138.2109v2.9102l-2.2363999-3.0313c-.0048,0-.0107-.0098-.0185-.0195h-.001c-.003884-.0098-.0088-.0098-.0127-.0098l-.0039-.0117c-.0039,0-.0078,0-.0117-.0098h-.0068c-.004,0-.0079-.0097-.011784-.0097h-.005816c-.0039-.0098-.0078-.0098-.0117-.0098h-.0069c-.0049-.0098-.0097-.0098-.014584-.0098h-.005916c-.0049,0-.0088,0-.0127-.0117h-.8515c-.1172,0-.2148841.0899-.2148841.2109v4.9004c0,.1192.0976841.209.2148841.209h.7939c.117216,0,.2148-.0898.2148-.209v-2.9101l2.2372999,3.0293c.0166.0195.0342.041.0567.0508q.001,0,.0019.0097h.0137c.002,0,.0039.0098.0059.0098h.0107c.0039,0,.0078,0,.0117.0098h.023516c.019484.0117.037084.0117.057584.0117h.79c.1162,0,.2139-.0899.2139-.211v-4.9004c.0019-.1191-.0947-.2089-.2119-.2089Z"/></g></svg>