<?xml version="1.0" encoding="UTF-8"?><svg id="_レイヤー_2" xmlns="http://www.w3.org/2000/svg" viewBox="0 0 33 33"><defs><style>.cls-1{fill:#fff;}</style></defs><g id="footer"><g id="footer-2"><path class="cls-1" d="M9.569999,0h13.860001c5.2853649,0,9.57,4.2846348,9.57,9.5699997v13.8600006c0,2.5400009-1.0100003,4.9699993-2.7999993,6.7700005-1.790001,1.7900009-4.2299997,2.7999992-6.7700007,2.7999992h-13.8600001c-5.2853649,0-9.57-4.2846348-9.57-9.5699997v-13.8599997c0-2.54,1.01-4.9699998,2.8-6.77C4.5999991,1.01,7.0299995,0,9.569999,0ZM8.8500001,3.9999984c-1.5560606,0-3.0431821.6204544-4.1363636,1.7136364-1.093182,1.093182-1.7136364,2.580303-1.7136364,4.1363636v14.2100017c0,3.2805713,2.6594285,5.94,5.9399998,5.94h14.2100013c1.5560606,0,3.0431821-.6204537,4.1363627-1.7136362,1.0931825-1.0931825,1.7136362-2.5901508,1.7136362-4.1363626v-14.2100012c0-3.2805711-2.6594281-5.9399996-5.9399992-5.94l-14.2100008-.0000016ZM25.06135,6.011924c.5499992,0,1.0699997.2199998,1.4599991.6100001s.6000004.9099998.6000004,1.46-.2199993,1.0699997-.6000004,1.46c-.3899994.3800001-.9099998.6000004-1.4599991.6000004s-1.0699997-.2200003-1.4599991-.6000004c-.3899994-.3900003-.6000004-.9200001-.6000004-1.46s.2199993-1.0700002.6000004-1.46c.3899994-.3899999.9099998-.6100001,1.4599991-.6100001ZM16.4013501,8.491924c2.1900005,0,4.2900009.8699999,5.8299999,2.4200001,1.5499992,1.54,2.4200001,3.6400003,2.4200001,5.8299999s-.8700008,4.2900009-2.4200001,5.8299999c-1.5499992,1.5499992-3.6499996,2.4200001-5.8299999,2.4200001s-4.29-.8700008-5.8299999-2.4200001c-1.5500002-1.539999-2.4200001-3.6399994-2.4200001-5.8299999s.8699999-4.29,2.4200001-5.8299999c1.5500002-1.5500002,3.6499996-2.4200001,5.8299999-2.4200001ZM16.4013501,11.7919242c-1.3099995,0-2.5699997.5199995-3.5,1.4499998s-1.4499998,2.1900005-1.4499998,3.5.5199995,2.5699997,1.4499998,3.5,2.1900005,1.4500008,3.5,1.4500008,2.5699997-.5200005,3.5-1.4500008,1.4500008-2.1900005,1.4500008-3.5-.5200005-2.5699997-1.4500008-3.5-2.1900005-1.4499998-3.5-1.4499998Z"/></g></g></svg>