<?xml version="1.0" encoding="UTF-8"?><svg id="_レイヤー_2" xmlns="http://www.w3.org/2000/svg" viewBox="0 0 200 200"><defs><style>.cls-1{fill:#fff;}.cls-2{fill:#9fe5e6;}</style></defs><g id="News"><rect class="cls-2" width="200" height="200"/><path class="cls-1" d="M41.5733149,79.5502129c.234375-.0898438.2880859-.0537109.3964844.0722656.4316406.5761719.7919922,1.1523438,1.0439453,1.6923828.0898438.1621094.0898438.1806641-.1621094.2705078l-1.2597656.4140625h7.1835938c.3603516-.6123047.6660156-1.1347656.9179688-1.7285156.0908203-.234375.1982422-.5224609.2880859-.9003906.6123047.1435547,1.2070312.3242188,1.7109375.5224609.1621094.0712891.234375.1259766.234375.2333984,0,.1445312-.0546875.2167969-.1621094.3066406-.1259766.0898438-.2705078.2333984-.3779297.4316406-.2529297.4140625-.4501953.7744141-.6845703,1.1347656h.3603516c1.65625,0,2.25-.0361328,2.3759766-.0361328.1806641,0,.1982422.0175781.1982422.1982422,0,.1074219-.0361328.4501953-.0361328.9541016v.7919922c0,1.5849609.0361328,1.8730469.0361328,1.9804688,0,.1806641-.0175781.1982422-.1982422.1982422h-1.4404297c-.1796875,0-.1972656-.0175781-.1972656-.1982422v-2.3408203h-11.578125v2.3232422c0,.1982422-.0175781.2158203-.1982422.2158203h-1.4394531c-.1806641,0-.1982422-.0175781-.1982422-.2158203,0-.1083984.0361328-.3964844.0361328-1.9804688v-.6484375c0-.6298828-.0361328-.9541016-.0361328-1.0800781,0-.1806641.0175781-.1982422.1982422-.1982422.1259766,0,.7197266.0361328,2.3759766.0361328h.4140625c-.0361328-.0361328-.0537109-.0537109-.0898438-.1445312-.234375-.5761719-.5761719-1.1699219-.9179688-1.65625-.1083984-.1621094-.0898438-.1982422.1259766-.2705078l1.0800781-.3779297ZM48.0010493,84.645916c1.6210938,0,2.1972656-.0361328,2.3232422-.0361328.1621094,0,.1796875.0185547.1796875.2167969,0,.0898438-.0361328.3955078-.0361328,1.2236328v1.5849609c0,.828125.0361328,1.1337891.0361328,1.2421875,0,.1796875-.0175781.1982422-.1796875.1982422-.1259766,0-.7021484-.0361328-2.3232422-.0361328h-1.3681641c-.1621094.4501953-.3417969.8457031-.5039062,1.2060547h3.4208984c1.7646484,0,2.3945312-.0175781,2.5205078-.0175781.1806641,0,.1806641.0175781.1806641.1982422,0,.1074219-.0185547.5400391-.0185547,1.3857422v1.1523438c0,2.125.0185547,2.5205078.0185547,2.6289062,0,.1621094,0,.1806641-.1806641.1806641h-1.5126953c-.1796875,0-.1972656-.0185547-.1972656-.1806641v-.5400391h-8.6787109v.6123047c0,.1796875-.0185547.1982422-.1806641.1982422h-1.5302734c-.1796875,0-.1982422-.0185547-.1982422-.1982422,0-.1083984.0361328-.5039062.0361328-2.6650391v-.9726562c0-1.0615234-.0361328-1.4941406-.0361328-1.6015625,0-.1806641.0185547-.1982422.1982422-.1982422.1259766,0,.7568359.0175781,2.5205078.0175781h1.7470703c.1796875-.3779297.3603516-.7919922.5039062-1.2060547h-.7382812c-1.6386719,0-2.2148438.0361328-2.3222656.0361328-.1621094,0-.1806641-.0185547-.1806641-.1982422,0-.1259766.0361328-.4140625.0361328-1.2421875v-1.5849609c0-.828125-.0361328-1.1337891-.0361328-1.2236328,0-.1982422.0185547-.2167969.1806641-.2167969.1074219,0,.6835938.0361328,2.3222656.0361328h3.9970703ZM41.6817133,93.4867363h8.6787109v-1.65625h-8.6787109v1.65625ZM43.3379633,87.6166192h5.3476562v-1.5664062h-5.3476562v1.5664062ZM45.8770258,79.3519707c.2158203-.0712891.2695312-.0351562.359375.1269531.3066406.4853516.6484375,1.1699219.9003906,1.7998047.0722656.1445312.0546875.1806641-.1982422.2519531l-1.2060547.3603516c-.2695312.0722656-.2880859.0546875-.3603516-.1435547-.2519531-.5947266-.5214844-1.2070312-.8457031-1.7646484-.1083984-.1806641-.0537109-.1982422.1621094-.2705078l1.1884766-.3603516Z"/><path class="cls-1" d="M58.5108149,91.4701348c-1.6201172,0-2.1601562.0361328-2.2685547.0361328-.1982422,0-.2158203-.0185547-.2158203-.1982422v-1.0625c0-.1982422.0175781-.2158203.2158203-.2158203.1083984,0,.6484375.0361328,2.2685547.0361328h4.4472656v-.9726562h-2.5380859c-1.7470703,0-2.3769531.0361328-2.4853516.0361328-.1796875,0-.1796875-.0175781-.1796875-.1982422v-1.0263672c0-.1972656,0-.2158203.1796875-.2158203.1083984,0,.7382812.0361328,2.4853516.0361328h2.5380859v-.9541016h-3.3847656c-1.7285156,0-2.3046875.0361328-2.4121094.0361328-.1982422,0-.2167969-.0185547-.2167969-.1806641v-1.0625c0-.1796875.0185547-.1972656.2167969-.1972656.1074219,0,.6835938.0361328,2.4121094.0361328h1.0986328c-.1982422-.4326172-.3779297-.7929688-.5761719-1.1347656-.0898438-.1621094-.1083984-.234375.1259766-.3066406l1.1699219-.3232422h-2.8808594c-1.6201172,0-2.1601562.0361328-2.2685547.0361328-.1982422,0-.2158203-.0185547-.2158203-.1982422v-1.1162109c0-.1982422.0175781-.2167969.2158203-.2167969.1083984,0,.6484375.0361328,2.2685547.0361328h.1259766c-.2880859-.5761719-.6123047-1.0263672-1.0263672-1.5478516-.1074219-.1269531-.0712891-.1982422.1445312-.3066406l1.0439453-.4863281c.1806641-.0898438.234375-.0712891.3427734.0722656.4316406.5224609.8818359,1.1347656,1.2060547,1.7460938.0898438.1621094.0898438.1806641-.1445312.3066406l-.4316406.2158203h1.6748047v-1.1884766c0-.6298828,0-1.0625-.1083984-1.5664062.5585938.0185547,1.2607422.0546875,1.7460938.1083984.1445312.0175781.2167969.0722656.2167969.1621094,0,.1074219-.0361328.1982422-.0722656.3056641-.0537109.1259766-.1083984.3964844-.1083984.9902344v1.1884766h1.4589844v-1.1699219c0-.6484375,0-1.0810547-.1083984-1.5849609.5400391.0185547,1.2421875.0546875,1.7285156.1259766.1621094.0185547.234375.0722656.234375.1621094s-.0361328.1982422-.0722656.2880859c-.0537109.1259766-.1083984.3964844-.1083984.9902344v1.1884766h1.1171875c.3232422-.5039062.5761719-.9541016.828125-1.4765625.1259766-.2695312.2333984-.5400391.3056641-.9716797.6298828.1259766,1.2607422.3056641,1.7470703.4677734.1621094.0537109.2333984.1445312.2333984.234375,0,.1435547-.0712891.2158203-.1796875.3056641-.1259766.1083984-.2158203.2158203-.3066406.3417969-.2333984.3789062-.4853516.7382812-.7373047,1.0986328h.2519531c1.6201172,0,2.1601562-.0361328,2.2685547-.0361328.1796875,0,.1982422.0185547.1982422.2167969v1.1162109c0,.1796875-.0185547.1982422-.1982422.1982422-.1083984,0-.6484375-.0361328-2.2685547-.0361328h-3.1513672c.4677734.0898438.8818359.1796875,1.4228516.3232422.1435547.0361328.2333984.1083984.2333984.2167969,0,.1259766-.0898438.2158203-.1982422.2695312-.0898438.0546875-.1796875.2519531-.2519531.3789062l-.3242188.5761719h1.1708984c1.7285156,0,2.3046875-.0361328,2.4130859-.0361328.1796875,0,.1972656.0175781.1972656.1972656v1.0625c0,.1621094-.0175781.1806641-.1972656.1806641-.1083984,0-.6845703-.0361328-2.4130859-.0361328h-3.6367188v.9541016h2.8623047c1.7646484,0,2.3769531-.0361328,2.484375-.0361328.1806641,0,.1982422.0185547.1982422.2158203v1.0263672c0,.1806641-.0175781.1982422-.1982422.1982422-.1074219,0-.7197266-.0361328-2.484375-.0361328h-2.8623047v.9726562h4.7353516c1.6201172,0,2.1601562-.0361328,2.2685547-.0361328.1796875,0,.1982422.0175781.1982422.2158203v1.0625c0,.1796875-.0185547.1982422-.1982422.1982422-.1083984,0-.6484375-.0361328-2.2685547-.0361328h-3.2050781c1.5117188,1.0625,3.4023438,1.7646484,5.9951172,2.3408203-.2333984.2880859-.4853516.6660156-.7021484,1.1523438-.1435547.3417969-.2158203.4677734-.3955078.4677734-.0898438,0-.2158203-.0361328-.4140625-.0898438-2.4306641-.7021484-4.5732422-1.890625-6.0498047-3.2226562,0,2.1425781.0898438,3.2587891.0898438,3.5644531,0,.1806641-.0185547.1982422-.1982422.1982422h-1.5302734c-.1621094,0-.1796875-.0175781-.1796875-.1982422,0-.3056641.0537109-1.3505859.0712891-3.4931641-1.5126953,1.4404297-3.3847656,2.4492188-5.7792969,3.2236328-.1982422.0712891-.3242188.1074219-.4140625.1074219-.1621094,0-.234375-.1259766-.3964844-.4677734-.234375-.4677734-.4863281-.8466797-.7197266-1.0800781,2.3945312-.5947266,4.2304688-1.3330078,5.7431641-2.5029297h-2.9169922ZM65.4610102,85.402752c.1621094-.3066406.3066406-.6123047.4863281-1.0449219.0898438-.1982422.1259766-.3779297.1982422-.7197266h-4.5917969c.0546875.0175781.0898438.0712891.1445312.1435547.2695312.4501953.5576172.9902344.8095703,1.6210938h2.953125Z"/><path class="cls-1" d="M79.5000727,88.3373223c0,4.4833984.0361328,5.2929688.0361328,5.4013672,0,.1796875-.0185547.1982422-.1982422.1982422h-1.2958984c-.1621094,0-.1806641-.0185547-.1806641-.1982422v-.7919922h-1.65625v1.421875c0,.1806641-.0185547.1982422-.1806641.1982422h-1.3320312c-.1796875,0-.1982422-.0175781-.1982422-.1982422,0-.1074219.0361328-1.0263672.0361328-5.5449219v-3.9257812c0-3.2587891-.0361328-4.2128906-.0361328-4.3212891,0-.1796875.0185547-.1982422.1982422-.1982422.1259766,0,.46875.0361328,1.5488281.0361328h1.5478516c1.0810547,0,1.4228516-.0361328,1.5488281-.0361328.1796875,0,.1982422.0185547.1982422.1982422,0,.1083984-.0361328.9902344-.0361328,3.6376953v4.1230469ZM76.2051508,82.0531426v3.7275391h1.65625v-3.7275391h-1.65625ZM77.8614008,91.3080254v-3.8896484h-1.65625v3.8896484h1.65625ZM82.6514399,86.5189629c-1.7109375,0-2.3046875.0361328-2.4130859.0361328-.1982422,0-.2158203-.0185547-.2158203-.2167969v-1.2421875c0-.1796875.0175781-.1982422.2158203-.1982422.1083984,0,.7021484.0361328,2.4130859.0361328h1.2958984v-1.8544922h-.8466797c-1.6015625,0-2.1601562.0361328-2.2685547.0361328-.1982422,0-.2158203-.0175781-.2158203-.1982422v-1.2607422c0-.1972656.0175781-.2158203.2158203-.2158203.1083984,0,.6669922.0361328,2.2685547.0361328h.8466797c-.0175781-.9365234-.0361328-1.4042969-.1259766-2.0341797.7021484.0175781,1.1884766.0537109,1.8544922.1259766.1796875.0175781.2880859.0898438.2880859.1796875,0,.1445312-.0537109.234375-.1083984.3779297-.0898438.1982422-.0898438.5400391-.0898438,1.3505859h1.2060547c1.6386719,0,2.1787109-.0361328,2.2871094-.0361328.1796875,0,.1982422.0185547.1982422.2158203v1.2607422c0,.1806641-.0185547.1982422-.1982422.1982422-.1083984,0-.6484375-.0361328-2.2871094-.0361328h-1.2060547v1.8544922h1.9091797c1.7099609,0,2.3046875-.0361328,2.4121094-.0361328.1982422,0,.2158203.0185547.2158203.1982422v1.2421875c0,.1982422-.0175781.2167969-.2158203.2167969-.1074219,0-.7021484-.0361328-2.4121094-.0361328h-5.0234375ZM82.722729,89.9037285c-1.7099609,0-2.2861328.0361328-2.3945312.0361328-.1982422,0-.2158203-.0185547-.2158203-.1982422v-1.2607422c0-.1796875.0175781-.1972656.2158203-.1972656.1083984,0,.6845703.0351562,2.3945312.0351562h3.546875c-.0175781-.7382812-.0712891-1.1699219-.1259766-1.5839844.6845703.0361328,1.3330078.0898438,1.8193359.1621094.1972656.0361328.3056641.1074219.3056641.1982422,0,.1259766-.0361328.1972656-.0898438.3056641-.0722656.1445312-.0898438.3603516-.0898438.9179688,1.2236328,0,1.7099609-.0351562,1.7998047-.0351562.1982422,0,.2167969.0175781.2167969.1972656v1.2607422c0,.1796875-.0185547.1982422-.2167969.1982422-.0898438,0-.5761719-.0185547-1.7998047-.0361328v1.7822266c0,.828125.0175781,1.6025391.0175781,2.2148438,0,.6660156-.1259766,1.1699219-.6298828,1.5302734-.3964844.2705078-.9902344.3964844-2.3408203.3964844-.5400391,0-.5585938,0-.6845703-.5400391s-.3056641-.9550781-.5400391-1.3144531c.6298828.0537109,1.1708984.0722656,1.7646484.0722656.4326172,0,.59375-.1445312.59375-.5585938v-3.5830078h-3.546875ZM82.4170649,90.4076348c.1796875-.1083984.234375-.1083984.3779297.0185547.6123047.6298828,1.1523438,1.3144531,1.65625,2.0703125.1083984.1621094.0898438.2158203-.0898438.3417969l-1.0986328.7568359c-.1074219.0712891-.1621094.1074219-.2158203.1074219s-.0898438-.0361328-.1435547-.1259766c-.5410156-.9179688-1.0625-1.6025391-1.5849609-2.2148438-.1259766-.1435547-.1259766-.1972656.0898438-.3242188l1.0087891-.6298828Z"/><path class="cls-1" d="M97.2842524,79.9642754c1.1699219,0,1.7099609-.0361328,1.8183594-.0361328.1621094,0,.1796875.0185547.1796875.2167969,0,.1074219-.0361328.6298828-.0361328,1.7099609v2.2333984c0,1.0976562.0361328,1.6015625.0361328,1.7099609,0,.1982422-.0175781.2158203-.1796875.2158203-.1083984,0-.6484375-.0351562-1.8183594-.0351562h-2.9169922v5.8330078c0,2.4853516.0361328,3.7089844.0361328,3.8349609,0,.1806641-.0185547.1982422-.1982422.1982422h-1.5302734c-.1806641,0-.1982422-.0175781-.1982422-.1982422,0-.1259766.0361328-1.3496094.0361328-3.8349609v-7.7958984c0-2.5029297-.0361328-3.7636719-.0361328-3.8710938,0-.1982422.0175781-.2167969.1982422-.2167969.1259766,0,.8095703.0361328,2.1240234.0361328h2.4853516ZM94.3672602,81.3148613v1.0625h3.1142578v-1.0625h-3.1142578ZM97.481518,83.6019707h-3.1142578v1.0800781h3.1142578v-1.0800781ZM96.7979243,94.6029473c-.1796875,0-.1982422-.0175781-.1982422-.2158203,0-.1083984.0361328-.5947266.0361328-3.2587891v-1.5849609c0-1.5839844-.0361328-2.125-.0361328-2.2509766,0-.1796875.0185547-.1972656.1982422-.1972656.1259766,0,.5576172.0361328,1.9267578.0361328h2.4306641c1.3681641,0,1.8007812-.0361328,1.9267578-.0361328.1796875,0,.1972656.0175781.1972656.1972656,0,.1083984-.0361328.6484375-.0361328,1.9453125v1.7822266c0,2.6103516.0361328,3.0966797.0361328,3.1865234,0,.1806641-.0175781.1982422-.1972656.1982422h-1.296875c-.1796875,0-.1982422-.0175781-.1982422-.1982422v-.5576172h-3.2949219v.7382812c0,.1982422-.0175781.2158203-.2158203.2158203h-1.2783203ZM98.2920649,89.7230645h3.2949219v-1.2060547h-3.2949219v1.2060547ZM101.5869868,92.2806817v-1.2607422h-3.2949219v1.2607422h3.2949219ZM107.5108149,89.9213067c0,1.2607422.0722656,2.7011719.0722656,3.5830078,0,.8642578-.1259766,1.296875-.5224609,1.6572266-.3779297.3417969-.8818359.4853516-2.5742188.4853516-.5400391,0-.5400391.0185547-.6484375-.5576172-.1083984-.5039062-.2519531-.9541016-.4326172-1.3144531.5585938.0722656,1.1347656.0898438,1.5126953.0898438.5947266,0,.7382812-.1621094.7382812-.7021484v-7.1835938h-2.953125c-1.4042969,0-1.8720703.0351562-1.9804688.0351562-.1796875,0-.1982422-.0175781-.1982422-.2158203,0-.1083984.0361328-.5224609.0361328-1.5839844v-2.4853516c0-1.0439453-.0361328-1.4765625-.0361328-1.5839844,0-.1982422.0185547-.2167969.1982422-.2167969.1083984,0,.5761719.0361328,1.9804688.0361328h2.6474609c1.4042969,0,1.890625-.0361328,1.9980469-.0361328.1806641,0,.1982422.0185547.1982422.2167969,0,.1074219-.0361328.8457031-.0361328,2.3769531v7.3994141ZM102.325268,81.3148613v1.0625h3.3310547v-1.0625h-3.3310547ZM105.6563227,84.6820488v-1.0800781h-3.3310547v1.0800781h3.3310547Z"/><path class="cls-1" d="M112.2774165,84.340252c.1972656-.3066406.3417969-.6123047.4501953-.9726562.5039062.1982422,1.0800781.4501953,1.4404297.6845703.1259766.0712891.2333984.1982422.2333984.2880859,0,.1259766-.0537109.2695312-.1621094.3242188-.2158203.1259766-.2880859.2519531-.5039062.5400391-.59375.8642578-1.1884766,1.6376953-2.1064453,2.4482422-.1982422.1621094-.3066406.2519531-.4140625.2519531-.1259766,0-.234375-.1259766-.4501953-.359375-.2880859-.3066406-.6660156-.5947266-.9365234-.7568359,1.1162109-.7382812,1.8544922-1.5302734,2.4492188-2.4482422ZM120.7578852,88.9134942c.3056641,0,.4316406-.0185547.5400391-.0722656.1074219-.0537109.1796875-.0898438.2880859-.0898438.1796875,0,.2695312.1259766.7382812.5761719.4140625.4316406.5039062.6123047.5039062.7744141,0,.1796875-.0722656.2695312-.2519531.359375-.1445312.0908203-.234375.1269531-.5585938.4501953-.7382812.7382812-1.4765625,1.3691406-2.25,1.9091797,1.890625.7021484,4.0146484.9541016,6.5537109,1.1523438-.2705078.3417969-.4863281.828125-.6484375,1.2958984q-.1796875.5585938-.7382812.5048828c-2.6650391-.3066406-4.9697266-.9003906-6.9140625-1.890625-1.9082031.9902344-4.0332031,1.5839844-6.5898438,1.9443359q-.5585938.0537109-.7919922-.46875c-.1621094-.4140625-.3779297-.7558594-.6298828-1.0615234,2.4482422-.234375,4.5371094-.6845703,6.3378906-1.4228516-.6484375-.4677734-1.2246094-.9726562-1.7646484-1.5488281-.7568359.5947266-1.6210938,1.1171875-2.6113281,1.6025391-.1982422.0908203-.3056641.1621094-.3955078.1621094-.1269531,0-.2167969-.1259766-.3789062-.4316406-.2333984-.3779297-.5576172-.7382812-.8095703-.9179688,2.71875-1.0986328,4.1230469-2.3232422,5.3837891-3.8720703.1611328-.1972656.3232422-.4501953.4677734-.7919922.6484375.1445312,1.0439453.2705078,1.5302734.4501953.1621094.0722656.2519531.1445312.2519531.2705078,0,.1621094-.0898438.2158203-.2695312.3056641-.1083984.0722656-.2167969.2158203-.46875.5224609-.0722656.1074219-.1435547.1982422-.2333984.2880859h3.7089844ZM117.4082758,82.9359551c-.1259766,2.8808594-1.0800781,4.2666016-3.0966797,5.4013672-.234375.1259766-.3603516.1982422-.4677734.1982422-.1083984,0-.1982422-.1083984-.3964844-.3427734-.3056641-.3242188-.6845703-.59375-.9726562-.7197266,2.1435547-1.0087891,3.0615234-1.8007812,3.1513672-4.5371094h-2.9169922c-1.6386719,0-2.1962891.0351562-2.3046875.0351562-.1796875,0-.1982422-.0175781-.1982422-.1972656v-1.3330078c0-.1621094.0185547-.1796875.1982422-.1796875.1083984,0,.6660156.0361328,2.3046875.0361328h4.2851562v-.2519531c0-.7744141-.0361328-1.2431641-.1259766-1.6933594.6308594.0185547,1.296875.0546875,1.9267578.1083984.1796875.0185547.2705078.0898438.2705078.1806641,0,.1074219-.0361328.2333984-.0908203.3417969-.0712891.1621094-.0898438.3779297-.0898438,1.0439453v.2705078h4.3935547c1.6386719,0,2.1962891-.0361328,2.3046875-.0361328.1796875,0,.1982422.0175781.1982422.1796875v1.3330078c0,.1796875-.0185547.1972656-.1982422.1972656-.1083984,0-.6660156-.0351562-2.3046875-.0351562h-2.3408203v1.5117188c0,.9726562.0361328,1.4765625.0361328,1.8730469,0,.6298828-.1796875,1.0439453-.59375,1.3144531-.3789062.2158203-.6123047.3056641-1.5488281.3242188q-.5761719.0175781-.7207031-.5410156c-.1259766-.4316406-.3056641-.828125-.4677734-1.0976562.5224609.0722656.6298828.0898438.9179688.0898438.4863281,0,.6308594-.1982422.6308594-.6298828v-2.8447266h-1.7832031ZM115.8242915,90.2816582l-.0361328.0361328c.7197266.6845703,1.4580078,1.2421875,2.2324219,1.6923828.8105469-.4863281,1.5488281-1.0439453,2.2148438-1.7285156h-4.4111328ZM122.9903071,83.583416c.0898438-.0537109.1621094-.0898438.1982422-.0898438.0722656,0,.1074219.0361328.1982422.1083984.9541016.8642578,1.7822266,1.9443359,2.4121094,3.0605469.0898438.1621094.0722656.2158203-.1435547.3417969l-1.0986328.6845703c-.0898438.0537109-.1621094.0898438-.2158203.0898438-.0361328,0-.0722656-.0361328-.1259766-.1259766-.6484375-1.2246094-1.4404297-2.3769531-2.2685547-3.1865234-.1269531-.1445312-.1269531-.1982422.0712891-.3242188l.9726562-.5585938Z"/><path class="cls-1" d="M132.0059321,90.2455254c.2158203-.1259766.2519531-.1074219.3779297.0361328.4501953.5585938.9541016,1.0263672,1.5126953,1.4228516.3056641-.3427734.5039062-.7021484.6474609-1.0810547.0722656-.1796875.1259766-.359375.1806641-.5761719h-2.1425781c-1.7646484,0-2.3955078.0361328-2.5029297.0361328-.1806641,0-.1982422-.0175781-.1982422-.2158203,0-.1083984.0361328-.6123047.0361328-1.7460938v-3.2050781c0-1.1523438-.0361328-1.6386719-.0361328-1.7470703,0-.1796875.0175781-.1982422.1982422-.1982422.1074219,0,.7382812.0361328,2.5029297.0361328h2.5019531v-1.1337891h-4.5546875c-1.6210938,0-2.1611328.0361328-2.2685547.0361328-.1982422,0-.1982422-.0185547-.1982422-.1806641v-1.3857422c0-.1806641,0-.1982422.1982422-.1982422.1074219,0,.6474609.0361328,2.2685547.0361328h10.9833984c1.6201172,0,2.1601562-.0361328,2.2685547-.0361328.1982422,0,.2158203.0175781.2158203.1982422v1.3857422c0,.1621094-.0175781.1806641-.2158203.1806641-.1083984,0-.6484375-.0361328-2.2685547-.0361328h-4.6640625v1.1337891h2.5927734c1.7646484,0,2.3955078-.0361328,2.5214844-.0361328.1796875,0,.1972656.0185547.1972656.1982422,0,.1083984-.0361328.5947266-.0361328,1.7470703v3.2050781c0,1.1337891.0361328,1.6376953.0361328,1.7460938,0,.1982422-.0175781.2158203-.1972656.2158203-.1259766,0-.7568359-.0361328-2.5214844-.0361328h-2.9169922c-.0712891.3789062-.1435547.6845703-.2158203.9365234-.1796875.5761719-.4316406,1.1162109-.7744141,1.5849609,1.9804688.8095703,4.7353516,1.1337891,8.8408203,1.1699219-.2158203.3603516-.3779297.8466797-.5039062,1.3505859q-.1445312.5576172-.7021484.5400391c-4.0517578-.1621094-6.7705078-.6845703-8.8945312-1.8007812-1.1708984.8642578-2.7910156,1.4951172-4.9521484,1.9267578-.1611328.0361328-.2695312.0361328-.3779297.0361328-.1982422,0-.2519531-.1083984-.4140625-.4863281-.1982422-.4501953-.4677734-.8642578-.7382812-1.1337891,2.0527344-.2880859,3.6552734-.7929688,4.7900391-1.4404297-.5761719-.46875-1.0986328-.9902344-1.6210938-1.5849609-.0537109-.0722656-.0898438-.1083984-.0898438-.1621094s.0537109-.0898438.1796875-.1621094l.9550781-.5761719ZM131.6817133,84.4838067v1.296875h3.3847656c.0175781-.3964844.0175781-.828125.0175781-1.296875h-3.4023438ZM131.6817133,87.1664238v1.4228516h3.2763672c.0361328-.3964844.0722656-.8818359.0908203-1.4228516h-3.3671875ZM140.3418696,88.5892754v-1.4228516h-3.546875c-.0361328.5410156-.0537109,1.0087891-.0898438,1.4228516h3.6367188ZM140.3418696,85.7806817v-1.296875h-3.4931641c0,.46875-.0175781.9003906-.0175781,1.296875h3.5107422Z"/><path class="cls-1" d="M155.1553462,83.4398613c-.4140625,3.0605469-1.1708984,5.8691406-2.2509766,7.7597656-.7744141,1.3505859-1.7099609,2.0712891-3.0605469,2.0712891-1.5849609,0-3.1875-1.6923828-3.1875-4.6279297,0-1.7285156.7382812-3.3847656,2.0351562-4.6816406,1.5117188-1.5117188,3.4208984-2.3046875,5.8515625-2.3046875,4.3212891,0,6.8603516,2.6650391,6.8603516,6.2480469,0,3.3496094-1.890625,5.4560547-5.5458984,6.5546875-.3779297.1074219-.5400391.0351562-.7744141-.3242188-.1982422-.3066406-.5761719-.7207031-1.2607422-1.1347656,3.0429688-.7197266,5.4384766-1.9804688,5.4384766-5.3837891,0-2.1425781-1.6210938-4.1767578-4.0332031-4.1767578h-.0722656ZM149.9873774,85.1859551c-.8642578.9726562-1.4042969,2.1787109-1.4042969,3.3310547,0,1.65625.6660156,2.5751953,1.2246094,2.5751953.4677734,0,.8642578-.234375,1.3505859-1.0986328.7919922-1.4580078,1.6025391-4.0507812,1.9082031-6.4462891-1.2607422.2529297-2.2685547.7568359-3.0791016,1.6386719Z"/><path class="cls-1" d="M69.7793696,108.7445488c-.8994141.0722656-1.8183594.1435547-3.0244141.1435547-.3066406,0-.3964844-.1074219-.4326172-.3779297-.0537109-.3417969-.1259766-.9365234-.1972656-1.5664062.4677734.0722656.9355469.0898438,1.4042969.0898438.7558594,0,1.5302734-.0722656,2.2861328-.1435547,0-.5947266.0185547-1.2783203.0185547-2.0527344,0-.4677734-.0185547-.9902344-.1259766-1.4589844.9003906.0546875,1.65625.1806641,2.1425781.3242188.2158203.0546875.359375.1806641.359375.3427734,0,.0712891-.0351562.1621094-.1074219.2880859-.1259766.2333984-.2158203.4677734-.2519531.7021484-.0546875.4677734-.0722656.9179688-.0898438,1.4941406.7919922-.1621094,1.5302734-.3964844,2.3046875-.6660156.1621094-.0546875.2880859-.0185547.3056641.1621094.0722656.4501953.1083984.9355469.1083984,1.4042969,0,.1796875-.0546875.234375-.234375.2880859-1.1884766.3779297-1.4941406.4677734-2.5751953.6845703-.0175781.8632812-.0175781,1.7460938-.0361328,2.6103516,1.6933594-.7207031,3.2773438-1.0087891,4.4296875-.9902344,2.2324219.0175781,3.8349609,1.4404297,3.8349609,3.6005859,0,2.3046875-1.4765625,3.6552734-3.9072266,3.6552734-.5214844,0-1.0976562-.0722656-1.4765625-.1621094-.2871094-.0712891-.3955078-.2519531-.3955078-.5400391-.0361328-.3964844-.1621094-1.0078125-.5400391-1.5302734.8642578.2880859,1.5839844.3242188,2.25.3242188,1.0087891,0,1.9453125-.5761719,1.9453125-1.8544922,0-1.1708984-.7207031-1.8183594-1.9804688-1.8183594-1.0263672,0-2.2695312.2695312-4.1240234,1.2236328.0185547.7568359.0361328,1.3691406.0722656,2.1611328.0537109.7919922.1445312,1.9267578.1445312,2.3408203,0,.2519531.0361328.5214844-.2705078.59375-.3964844.1083984-.9726562.1982422-1.3320312.2158203-.1982422.0185547-.2705078-.1259766-.4326172-.359375-.4863281-.6669922-1.421875-1.53125-2.5566406-2.3046875-.1982422.1074219-.4140625.2519531-.5761719.3955078-.0898438.0898438-.2158203.1259766-.3056641.1259766-.1445312,0-.2880859-.1074219-.3964844-.2880859-.1982422-.3242188-.5585938-1.0800781-.828125-1.6738281.4677734-.1083984,1.0625-.3066406,1.65625-.6308594.7744141-.4316406,1.6210938-.9179688,2.9345703-1.6738281v-3.0791016ZM68.1055415,114.9379082c.5039062.2705078,1.1162109.5761719,1.6923828.8105469.1435547.0361328.1982422.0175781.1796875-.1445312-.0361328-.4677734-.0722656-1.2958984-.1074219-1.8896484-.5048828.3417969-1.1171875.7558594-1.7646484,1.2236328ZM76.7119868,105.4857598c.1259766-.1982422.1796875-.2529297.3056641-.2167969,1.6572266.4863281,2.8808594,1.2431641,3.8173828,2.1972656.0722656.0712891.1083984.1259766.1083984.1796875s-.0361328.1083984-.0722656.1806641c-.234375.359375-.7021484.9179688-.9726562,1.2783203-.0537109.0712891-.3056641.0898438-.359375,0-.9550781-1.0625-2.2148438-1.7285156-3.6552734-2.2148438.2333984-.4863281.5214844-.9541016.828125-1.4042969Z"/><path class="cls-1" d="M88.0137446,111.1566582c0,.0908203-.0175781.1621094-.0361328.234375.8828125,1.7646484,1.9091797,2.8994141,3.3310547,3.9072266-.2880859.3056641-.6298828.8105469-.8457031,1.3144531-.1083984.2519531-.1806641.3603516-.2705078.3603516s-.1982422-.0898438-.3779297-.2705078c-.9902344-.9902344-1.7285156-1.9267578-2.3583984-3.1689453-.5585938,1.6210938-1.5664062,3.1689453-3.1152344,4.5917969-.1621094.1435547-.2705078.2158203-.3603516.2158203-.1259766,0-.234375-.1259766-.3779297-.3417969-.2705078-.4326172-.59375-.7744141-.9726562-1.0263672,2.0166016-1.5126953,2.9707031-3.1152344,3.4394531-5.1318359.0537109-.2158203.0898438-.4501953.1259766-.6845703h-.9541016c-1.5302734,0-2.0527344.0361328-2.1611328.0361328-.1982422,0-.2158203-.0175781-.2158203-.2158203v-1.3144531c0-.1621094.0175781-.1796875.2158203-.1796875.1083984,0,.6308594.0361328,2.1611328.0361328h1.1523438c.0722656-.8466797.0898438-1.7832031.1074219-2.7548828h-1.0615234c-.2705078.4863281-.5585938.9716797-.8642578,1.421875-.1445312.234375-.234375.3427734-.3427734.3427734-.1074219,0-.2158203-.0908203-.4140625-.2705078-.3603516-.3417969-.7197266-.5039062-1.0263672-.6484375.9902344-1.1523438,1.6748047-2.484375,2.125-3.9970703.1259766-.3955078.1621094-.7197266.1982422-1.1523438.59375.0898438,1.1337891.2158203,1.6738281.3779297.1982422.0546875.3066406.1259766.3066406.2519531,0,.1083984-.0537109.1806641-.1621094.3066406s-.2519531.2519531-.3779297.6660156c-.1083984.3417969-.234375.7021484-.3789062,1.0625h2.125c1.5664062,0,2.0888672-.0361328,2.1972656-.0361328.1972656,0,.2158203.0175781.2158203.1982422v1.3144531c0,.1796875-.0185547.1982422-.2158203.1982422-.1083984,0-.6308594-.0361328-2.1972656-.0361328-.0175781.9355469-.0361328,1.8544922-.1074219,2.7548828h.4316406c1.5488281,0,2.0703125-.0361328,2.1787109-.0361328.1796875,0,.1982422.0175781.1982422.1796875v1.3144531c0,.1982422-.0185547.2158203-.1982422.2158203-.1083984,0-.6298828-.0361328-2.1787109-.0361328h-.6123047ZM91.7774165,118.2513848c-.1806641,0-.1982422-.0185547-.1982422-.1982422,0-.1259766.0361328-1.0986328.0361328-5.4199219v-4.1953125c0-3.0068359-.0361328-4.0146484-.0361328-4.140625,0-.1621094.0175781-.1806641.1982422-.1806641.1259766,0,.59375.0361328,1.9619141.0361328h2.5214844c1.3857422,0,1.8544922-.0361328,1.9619141-.0361328.1982422,0,.2158203.0185547.2158203.1806641,0,.1074219-.0351562,1.1162109-.0351562,3.6005859v4.6455078c0,4.2314453.0351562,5.2041016.0351562,5.3115234,0,.1806641-.0175781.1982422-.2158203.1982422h-1.4765625c-.1796875,0-.1982422-.0175781-.1982422-.1982422v-1.0800781h-3.0966797v1.2783203c0,.1796875-.0175781.1982422-.1982422.1982422h-1.4755859ZM93.4512446,115.027752h3.0966797v-9.1464844h-3.0966797v9.1464844Z"/><path class="cls-1" d="M105.941479,107.3763848c.1982422.0898438.2880859.1972656.2880859.3417969,0,.0898438-.0351562.1796875-.0898438.2695312-.1621094.2880859-.2880859.6123047-.3603516.9550781-.1796875.9179688-.359375,2.25-.4316406,3.2763672,1.65625-1.6738281,3.8173828-2.8447266,6.0136719-2.8447266,2.6289062,0,4.1953125,1.5302734,4.1953125,3.8535156,0,1.9619141-1.1699219,3.2587891-2.71875,4.0332031-1.2060547.6123047-3.0605469,1.0439453-4.609375,1.2421875-.3964844.0537109-.5585938.0361328-.7207031-.234375-.3417969-.6123047-.6660156-1.0976562-1.2236328-1.5302734,2.0166016-.1259766,3.7451172-.4677734,4.9511719-1.0078125,1.4580078-.6308594,2.125-1.5664062,2.125-2.71875,0-.9726562-.6123047-1.8554688-2.1611328-1.8554688-1.5839844,0-3.4931641,1.0263672-5.1855469,2.7373047-.3242188.3242188-.5576172.6298828-.7744141.9902344-.1074219.1796875-.1796875.1796875-.4140625.1259766-.4140625-.1435547-.8457031-.3056641-1.2246094-.4863281-.1796875-.0722656-.2519531-.1074219-.2519531-.359375.1083984-2.0888672.3427734-4.2138672.5585938-5.8164062.0722656-.5400391.1621094-1.0078125.1621094-1.6201172.7021484.1982422,1.4580078.4140625,1.8720703.6484375ZM106.3916743,102.8207207c.0898438-.0898438.1982422-.1445312.3427734-.0898438,1.3320312.5214844,2.4482422,1.2060547,3.5283203,2.1425781.0908203.0722656.1259766.1259766.1259766.1982422,0,.0537109-.0351562.1259766-.0898438.2158203-.2333984.3779297-.6123047.9003906-.9179688,1.2597656-.0722656.0908203-.1445312.1445312-.1982422.1445312-.0722656,0-.1259766-.0361328-.2158203-.1259766-1.0087891-.8828125-2.2148438-1.7109375-3.6376953-2.3408203.4326172-.6484375.7744141-1.1162109,1.0625-1.4042969Z"/><path class="cls-1" d="M122.7530024,106.3314629c-.0351562-.9179688-.0712891-1.2060547-.2519531-1.9082031.9003906.0722656,1.7109375.1982422,2.1611328.3056641.1982422.0361328.3779297.2167969.3779297.3779297,0,.1259766-.0537109.2529297-.1083984.3789062-.1074219.2695312-.1611328.5039062-.1796875.7919922-.0175781.4316406-.0175781,1.1162109-.0361328,1.7285156,1.2421875-.1621094,3.1513672-.3603516,4.4472656-.5039062.0185547-.9003906.0185547-1.8730469.0185547-2.5390625,0-.6845703-.0546875-1.3681641-.234375-2.0527344,1.0986328.1259766,1.7285156.2158203,2.1787109.3603516.2519531.0722656.3417969.1621094.3417969.3417969,0,.1445312-.0722656.2880859-.1074219.3603516-.0908203.2880859-.1621094.5039062-.1806641.8105469-.0361328.9716797-.0537109,1.6738281-.0712891,2.5205078,1.4580078-.1083984,2.5380859-.1621094,3.5107422-.1982422.1435547,0,.2158203.0175781.2158203.1796875.0175781.4863281.0361328.9902344,0,1.4765625,0,.234375-.0361328.2519531-.234375.2519531-1.1875,0-2.3945312.0546875-3.5830078.1445312-.0537109,1.1884766-.1074219,2.0703125-.2158203,2.7724609-.1982422,1.4042969-1.0078125,1.9990234-2.3583984,1.9990234-.3242188,0-.7382812,0-1.1162109-.0546875-.2880859-.0175781-.3603516-.1435547-.3603516-.4677734-.0361328-.59375-.1445312-1.0439453-.3964844-1.6201172.5947266.1621094,1.0810547.2158203,1.5302734.2158203.4863281,0,.7568359-.1435547.8466797-.7744141.0722656-.5576172.1083984-1.2060547.1259766-1.9082031-1.4404297.1074219-3.0068359.2880859-4.3935547.5039062-.0175781,1.9628906-.0361328,3.0429688.0361328,4.0693359.1083984,1.4765625.5039062,1.7646484,2.7011719,1.7646484,1.6025391,0,3.3310547-.1621094,4.6630859-.3603516.2705078-.0175781.3242188.0185547.3603516.234375.0722656.3779297.1074219,1.1699219.1074219,1.5126953,0,.2158203-.0712891.3056641-.2333984.3232422-.828125.1259766-3.0615234.2705078-4.5195312.2705078-3.6367188,0-4.6992188-.7558594-4.9150391-3.1152344-.0908203-.9716797-.1269531-2.484375-.1269531-4.3925781-.9179688.1259766-1.4941406.2333984-2.1777344.3779297-.1982422.0537109-.4863281.1259766-.8105469.2695312-.234375.1083984-.3603516.0361328-.46875-.1982422-.2158203-.4492188-.4140625-1.1875-.5039062-1.7998047.3779297,0,1.1523438-.0722656,1.9267578-.1806641.5039062-.0712891,1.3681641-.2333984,2.0341797-.3417969v-1.9267578Z"/></g></svg>