<?xml version="1.0" encoding="UTF-8"?><svg id="_レイヤー_2" xmlns="http://www.w3.org/2000/svg" viewBox="0 0 101.9999913 102.0004699"><defs><style>.cls-1{stroke:#fff;stroke-miterlimit:10;stroke-width:.374998px;}.cls-1,.cls-2{fill:#fff;}.cls-3{fill:#9fe5e6;}</style></defs><g id="header"><path class="cls-3" d="M59.7734722,98.3084314c-4.9233298,4.922718-12.9824077,4.922718-17.9057376,0L3.6934664,60.1302182c-4.9246218-4.922718-4.9246218-12.9791033,0-17.9067784L42.2263661,3.6952515c4.9240098-4.927002,12.9824077-4.927002,17.9070296,0l38.1735882,38.1739156c4.9240098,4.9220244,4.9240098,12.9790897,0,17.9060916l-38.5335118,38.5331727Z"/><path class="cls-2" d="M70.5791475,52.8523912v24.9564454c.4329426-.2114797.5630944-.4183355.8366581-.6251912-1.0990146-.4389395-1.8832576-.9459468-2.7531806-1.7405259-.6182552-.5604553-1.5359821.3552996-.9143949.9177269,1.0034067.9164349,2.0618934,1.5708661,3.3202998,2.0738615.4010635.1577598.810831-.2416717.810831-.6265512v-24.9570574c-.00136-.8659789-1.3002135-.8659789-1.3002135.001292Z"/><path class="cls-2" d="M56.3841649,61.124989c1.0086982.9509108,2.3135486,1.3752303,3.6841549,1.3991663.8387109.020264.836739-1.2809824,0-1.2952624-1.0239427-.019924-2.0081055-.3057956-2.7664405-1.0203387-.6089392-.5760953-1.5287061.3399996-.9177143.9164349Z"/><path class="cls-2" d="M57.4034837,75.9169429c1.20923-1.640906,2.3441485-3.4195798,2.8880119-5.3994654.2231077-.809199-1.0306747-1.1531426-1.2518104-.3450316-.5153034,1.8716977-1.61629,3.5424557-2.7584845,5.0900658-.4980314.6750352.6308352,1.3204904,1.1222831.6544312Z"/><path class="cls-2" d="M29.1569185,30.9247981c-.011288,5.2181776-.5338673,9.8001888-4.6902261,13.4116881-.6341672.5528291.2888636,1.4685704.9177269.9223815,4.4099985-3.8342909,5.0594657-8.7716084,5.0714337-14.3340696.0013038-.838099-1.2975744-.838099-1.2989344,0Z"/><path class="cls-2" d="M16.782158,34.5655136c4.5175743-1.4533622,9.1115806-2.3946171,13.7852147-3.1825321.824159-.1434798.4734834-1.3945423-.3459156-1.2571145-4.6737021.793899-9.2670284,1.7342019-13.7846027,3.1885161-.794239.2560197-.4542394,1.5130661.3453036,1.2511305Z"/><path class="cls-2" d="M36.5300133,23.2824234c1.0452267-.1889718,3.6065115-.813483,4.1430988.6049273.4641674,1.2218905-.5306033,3.0404123-.9662108,4.1444589-1.0226507,2.5712128-.2974996,4.8190861-.2178037,7.4892388.0756839,2.5622981.4867434,5.0900522.3811395,7.662625-.0458319,1.1136333-.2284117,2.24652-.810831,3.2077533-.8420429,1.3995063-2.7697725.793219-3.969087.3592572-.788867-.2908628-1.1262146.9662108-.3453036,1.2520893,7.8817341,2.8631025,6.405524-7.4414757,6.0702164-12.0676732-.1274877-1.7494339-.5279513-3.6516635-.4489354-5.4001454.0903039-2.0100775,1.4416662-3.8093553,1.6674939-5.8291568.3797917-3.3906798-3.6815834-3.0653002-5.8484007-2.6768167-.824079.1493958-.4734834,1.4008663.3446236,1.2534425Z"/><path class="cls-2" d="M32.6764581,37.0294906c4.4830984-.833067,8.916365-1.9666256,13.4426312-2.5476849.818787-.1032239.8287272-1.4037903,0-1.3002264-4.6437822.6006433-9.1893045,1.7391659-13.7886147,2.5914768-.822119.1521158-.4721234,1.4038583.3459836,1.2564345Z"/><path class="cls-2" d="M51.3638547,40.7990319c2.6077287-.8466806,5.2759094-1.5080885,7.963402-2.0549439.820759-.167341.4721234-1.4184579-.3459836-1.2510897-2.6868126.5458557-5.3543133,1.2012865-7.963402,2.0549371-.792879.2609769-.4535594,1.5130661.3459836,1.2510965Z"/><path class="cls-2" d="M24.0257246,23.4341313c-.2197874,3.3070399-.7736467,6.544312-1.4569099,9.776008-.3427196,1.621662-.9629468,3.1639001-.1096159,4.7161614,1.4224222,2.5918304,5.9831765,4.1782753,8.750365,4.2971391.837351.034204.8340308-1.2617181,0-1.3015592-2.429161-.1022651-7.9342301-1.9015429-7.9176381-4.8928048.011968-2.0004895.9184069-4.2815467,1.2710544-6.2524563.3765155-2.0990894.6202272-4.2134788.761667-6.3424882.0557599-.833067-1.2431064-.827423-1.2989227,0Z"/><path class="cls-2" d="M52.8034809,44.1548652c1.1056786-.6059561,2.2505252-1.1338884,3.4378842-1.5572219.6142307-.2164845,1.2524099-.3947871,1.9052091-.4090671,1.1561471-.0298792.8147875,1.8776368.7443951,2.5619526-.0890119.833732,1.2112145.8227704,1.2982544,0,.1892564-1.8128859-.013328-3.9123222-2.2970371-3.852557-1.9589415.0494767-4.0646949,1.2172257-5.7447688,2.138611-.7337871.3984387-.0796959,1.5226963.6560632,1.1182824Z"/><path class="cls-2" d="M50.4939318,43.8201785c-.011968,4.360564-.1056039,8.7151291-.2948476,13.0670557-.1500758,3.4195798,2.4955289,2.9756763,4.9698418,2.404885.8167595-.1869318.4701514-1.4379942-.3453591-1.2520825-1.1202431.2609837-3.2319804,1.2129145-3.3295603-.6789792-.0544679-1.0595067.1361358-2.1286694.1699998-3.1887881.1081879-3.444189.1188639-6.9079347.1288042-10.3520911.0019596-.8383764-1.2969068-.8383764-1.2988788,0Z"/><path class="cls-2" d="M63.0048281,63.4754061c1.0558474-.1328038,2.1096974-.2463637,3.176888-.2165117,1.9031944.0452199,1.2656824,1.3799223.5929593,2.4885929-1.0538627,1.7352219-2.7059886,3.6118156-4.4803784,4.6418103-.7224991.4232995-.0690879,1.5476101.6560632,1.1229506,2.397269-1.3932503,4.7945508-4.1430989,5.7481008-6.7502157,1.2497704-3.4099918-3.9139391-2.8037046-5.6936329-2.5868528-.820759.1029519-.831435,1.4037903,0,1.3002264Z"/><path class="cls-2" d="M44.5850792,41.404986c3.2804519-2.8222617,7.0722631-5.4798141,10.8587704-7.5929115,2.1793973-1.2214825,5.0143137,1.6754499,6.8331881,2.7695006,1.9423369,1.1674226,3.8488505,2.3348383,5.9526319,3.1924737.776287.3157644,1.1103026-.9413024.3466636-1.2510897-2.6788566-1.0943771-5.0455937-2.765135-7.5530905-4.1785813-1.7404578-.9804908-2.9450763-2.7250287-5.1484776-2.1386654-1.9635655.5276114-3.8402272,2.2027213-5.4964331,3.3309759-2.3015931,1.5678061-4.5979502,3.1297098-6.7116596,4.9475787-.6361392.5468553.2868916,1.4625966.9184069.9207189Z"/><path class="cls-2" d="M63.1270366,47.7809778c-.7756197,1.7494679-1.7179625,3.4445154-3.0487209,4.8347057-.5764353.6059473-3.1190881,1.8620417-3.3010559.1819678-.1228758-1.1332186,2.2537892.9120829,2.4443929,1.1288666.822119.9360189,1.7438578,2.423857,3.0540248,2.7488966,1.864681.4581834,3.7439947.0793559,5.6325563.025568.835447-.029852.8387109-1.3261344,0-1.3012464-1.7059819.0537879-3.9073431.6700712-5.5196764-.0932959-1.324107-.6262112-2.1707739-2.3408291-3.2346326-3.3120039-1.0100027-.9207189-3.4099237-1.310848-3.6437074.5524993-.2629557,2.0990894,2.0858294,2.5473449,3.6357514,2.1432894,2.5506768-.6647672,4.1437108-4.0903106,5.1040056-6.2528235.3353076-.7590219-.7836183-1.4194371-1.1229379-.6564236Z"/><path class="cls-2" d="M79.3261677,57.3215497c-1.6980259,1.5419661-3.6868874,9.1351768-6.7064236,7.2419231.0777239.3015116.1560598.5969713.2331037.8931789,1.2245425-2.5423809,9.9768795,5.4695053,11.7412733,6.2085964.772343.3251076,1.1056786-.9316669.3459836-1.2520825-2.3527971-.9857948-10.9775663-10.2394954-13.2088475-5.6119651-.1567398.3250396-.0856799.6893152.2331037.8865149,4.4697704,2.7996926,6.0522644-5.4250333,8.2795336-7.4497309.6208392-.5621553-.2995396-1.4785902-.9177269-.9164349Z"/><path class="cls-2" d="M53.0027206,46.9831076c1.4337102-.4133783,2.8521204-.8526578,4.3296906-1.0840819-.2450717-.3147648-.4893954-.6355068-.7344671-.9512712-.9343188,1.6946871-2.9869643,2.2724212-3.5281756,4.2675932-.1181839.4389463.2105277.7832638.6262112.823105,1.56257.1477502,2.8601444-.6009765,4.2852186-1.1089834.783563-.2762497.4456034-1.5323237-.3459836-1.2510897-1.3048504.4618554-2.5068169,1.1969685-3.9398471,1.0585139.2084877.2762497.4176555.5468553.6255312.8227718.4708314-1.7388463,2.5459848-2.409883,3.3980237-3.9564799.2974996-.5378929-.1859798-1.0395895-.7324951-.955254-1.4768902.2314255-2.8959804.6690423-4.3296906,1.083087-.802807.2320905-.4615154,1.4835134.3459836,1.2520893Z"/><path class="cls-1" d="M17.7995047,56.0146593h1.7491054v.5279514h-1.7491054v-.5279514Z"/><path class="cls-1" d="M16.0523149,56.4283708c0,1.3065504-.8526509,1.8500737-1.6415179,1.8500737-.9097709,0-1.6036986-.6666712-1.6036986-1.8035618,0-1.1793906.7258197-1.8507537,1.6541545-1.8507537.9609068,0,1.591062.7291631,1.591062,1.8042418ZM14.4367049,55.1766283c-.6309032,0-.8725749.6773472-.8725749,1.2822744,0,.6873432.3246996,1.2660904.8652309,1.2660904.5346153,0,.8646189-.5787473.8646189-1.2820024.00136-.5790873-.2403797-1.2663624-.8572749-1.2663624Z"/><path class="cls-1" d="M26.9881292,57.3733656c0,.2998116.006596.6052673.0511359.832387h-.6680312l-.0505122-.4080675h-.0199357c-.1971998.2735637-.5398513.4807594-.9787908.4807594-.6554512,0-1.0312867-.4857234-1.0312867-1.0226507,0-.8745469.7570548-1.3088624,1.9596215-1.3088624,0-.2583317,0-.780231-.7065191-.780231-.3115076,0-.6289312.0926159-.8520389.2430317l-.1527278-.4917754c.2477237-.1593238.6614352-.2938276,1.1328786-.2938276,1.0299947,0,1.3162064.6819712,1.3162064,1.4270462v1.3221904ZM26.2695741,56.4440108c-.5790193,0-1.2477304.1075759-1.2477304.7337871,0,.3878035.2423517.5584833.5159834.5584833.4003835,0,.7317471-.3051836.7317471-.7138631v-.5784073h0Z"/><path class="cls-1" d="M28.9325188,56.0146593h1.7497738v.5279514h-1.7497738v-.5279514Z"/><path class="cls-1" d="M22.333739,57.890301c0,.7076071-.1215722,1.1425346-.4263595,1.4423462-.2795477.2696197-.7258311.3824995-1.0884066.3824995l-.0763639-.5787473c.764319-.0766359.8526509-.4502274.8526509-1.4791342v-2.9613964h.7384791v3.1944321ZM21.9571671,54.1589416c-.2543197,0-.4256231-.1859118-.4256231-.4243195,0-.2473837.1779558-.4339755.4315955-.4339755.2623437,0,.4263595.1856398.4263595.4339755.00068.2384077-.1640158.4243195-.4323318.4243195Z"/><path class="cls-1" d="M38.1715992,54.1589416c-.2549997,0-.4256795-.1859118-.4256795-.4243195,0-.2473837.1772758-.4339755.4322755-.4339755.2537077,0,.4256795.1856398.4256795.4339755,0,.2384077-.1653758.4243195-.4322755.4243195ZM38.5401587,58.2064326h-.7371191v-3.5105637h.7371191v3.5105637Z"/><path class="cls-1" d="M43.6534123,58.2064326h-.7377991v-2.0523055c0-.4960594-.1653078-.9164349-.6687112-.9164349-.3625755,0-.7510591.2955276-.7510591.8586349v2.1094254h-.7377311v-2.5171529c0-.3878035-.012648-.6879552-.025228-.9877668h.6428032l.037808.5229194h.019312c.1659878-.2994716.5345473-.5996233,1.0624987-.5996233.5478073,0,1.1574266.3556396,1.1574266,1.4420062l.00068,2.1402974Z"/><path class="cls-1" d="M33.3896412,55.1932203c.2105277-.3569316.5731033-.5690913,1.0625106-.5690913.801571,0,1.3546824.7071991,1.3546824,1.7773818,0,1.2769704-.7443951,1.8769337-1.4695462,1.8769337-.4515755,0-.801515-.1859118-1.0365907-.5999633h-.019244l-.037876.5279514h-.6302232c.012648-.2334437.0259199-.6149232.0259199-.9366989v-4.1659469h.7377991v2.0881414h.0125681v.001292ZM33.3770731,56.8212063c0,.4435635.3187037.8629189.8021831.8629189.5664393,0,.8771989-.5010234.8771989-1.2507905,0-.6623872-.2855316-1.2155665-.8718949-1.2155665-.4635554,0-.8074871.4492754-.8074871.9160949v.6873432h0Z"/><path class="cls-1" d="M11.4583767,58.2064326h-.7377991v-2.0470015c0-.5013634-.1719718-.9200389-.6680312-.9200389-.3625642,0-.7517391.2948476-.7517391.826743v2.1402974h-.7370511v-5.1016937h.7370511v2.0785535h.013328c.2290917-.3672675.6228792-.5578033,1.0053787-.5578033.5272713,0,1.1381826.3548916,1.1381826,1.4628822l.00068,2.1180614Z"/></g></svg>