<?xml version="1.0" encoding="UTF-8"?><svg id="_レイヤー_2" xmlns="http://www.w3.org/2000/svg" viewBox="0 0 102 102.001333"><defs><style>.cls-1{stroke:#94d8dd;stroke-miterlimit:10;stroke-width:.5px;}.cls-1,.cls-2{fill:#9fe5e6;}.cls-3{fill:#fff;}</style></defs><g id="footer"><path class="cls-3" d="M59.7735505,98.309298c-4.9236987,4.9227133-12.9826939,4.9227133-17.9063926,0L3.6931436,60.1304539c-4.9241915-4.9227133-4.9241915-12.9790479,0-17.9065902L42.2263756,3.6956567c4.9241915-4.9275423,12.9826939-4.9275423,17.9073289,0l38.1735215,38.1740152c4.9236987,4.9217771,4.9236987,12.9790479,0,17.9065902l-38.5336755,38.5330359Z"/><path class="cls-2" d="M70.5794534,52.8527202v24.9572134c.4326382-.2117365.5623311-.418644.8363517-.6255515-1.0983492-.4388962-1.8834544-.9460388-2.7537029-1.740063-.6178693-.56105-1.5352791.355128-.9135663.9172127,1.0033414.9161779,2.0617282,1.5706541,3.320321,2.0739533.4011019.1578292.8101372-.2415481.8101372-.6264877v-24.9572627c-.0009855-.8661634-1.2995407-.8661634-1.2995407.0009855Z"/><path class="cls-2" d="M56.3836971,61.125571c1.0093085.9508678,2.3136289,1.3752771,3.684816,1.3993727.838717.0202029.8367952-1.2809639,0-1.2954016-1.0242389-.0202029-2.0088111-.3060497-2.7667164-1.0201491-.6089457-.5765224-1.5290163.3397048-.9180997.9161779Z"/><path class="cls-2" d="M57.4038461,75.9178559c1.2092681-1.6409209,2.3434405-3.419468,2.8874412-5.4000936.2228235-.8084126-1.0302505-1.1529956-1.2520885-.3445338-.5143861,1.8718748-1.6156425,3.5426073-2.7575467,5.0901512-.4980312.6746791.6299325,1.3204335,1.122194.6544762Z"/><path class="cls-2" d="M29.156612,30.925157c-.0108406,5.2181688-.5336528,9.8001918-4.6905767,13.4121296-.6334848.5524268.288754,1.468654.9181489.9219924,4.4100024-3.8342192,5.0596496-8.7714195,5.0714264-14.334122.001429-.8382735-1.2975697-.8382735-1.2989987,0Z"/><path class="cls-2" d="M16.7816811,34.5659209c4.5180634-1.4532308,9.1113704-2.3944406,13.7853413-3.1826503.8242793-.1434408.4734875-1.3945437-.3455193-1.2569175-4.6737245.7939749-9.2672779,1.7342485-13.7853413,3.1884648-.7937285.2559858-.4542208,1.5129033.3455193,1.251103Z"/><path class="cls-2" d="M36.5300916,23.2826374c1.045177-.1886263,3.6066612-.8132416,4.1436648.6053486.4636324,1.2212914-.5312383,3.0402443-.9672273,4.1441616-1.0225636,2.5715365-.2971308,4.8187914-.2172553,7.4894701.0757856,2.5619278.4872354,5.0902005.380899,7.6627225-.045974,1.1134767-.2285887,2.2462694-.8101372,3.2076822-.8430532,1.3993727-2.770757.7930387-3.97017.3590207-.7889488-.2906757-1.126038.9662418-.3455153,1.2520885,7.8826346,2.8631485,6.405805-7.4413773,6.0704324-12.0676989-.1272784-1.7496224-.52744-3.6513581-.4485049-5.4000443.0897305-2.0104865,1.4412117-3.8092366,1.6681209-5.8293318.3794207-3.3905926-3.6824508-3.0652762-5.8495346-2.6764932-.8238358.149206-.4735368,1.400309.3452276,1.253074Z"/><path class="cls-2" d="M32.6763554,37.029692c4.4826837-.832459,8.9165354-1.9661879,13.4429757-2.5474901.8182677-.1029856.8286155-1.4041525,0-1.3002306-4.6443563.6005689-9.1895705,1.7390775-13.7889384,2.5917887-.8223575.152064-.4725513,1.4032162.3459627,1.255932Z"/><path class="cls-2" d="M51.3635171,40.799459c2.6083452-.8468967,5.2764122-1.5080743,7.963943-2.0547359.8204358-.1674379.4720585-1.4185902-.3457656-1.2511523-2.687038.5457253-5.3548586,1.2010884-7.963943,2.0547851-.7922995.2608148-.4527919,1.5129033.3457656,1.251103Z"/><path class="cls-2" d="M24.0260058,23.4347014c-.2201626,3.3068244-.7740183,6.5443675-1.457567,9.7761454-.3424149,1.6217034-.9626939,3.1634822-.1092436,4.7158551,1.4219408,2.5917394,5.9835145,4.178753,8.7497381,4.2971618.8377807.0346406.8341836-1.2617465,0-1.3012161-2.4291305-.1029856-7.9338849-1.9016864-7.9170328-4.8929017.0113333-2.0008286.9183953-4.2817386,1.2713552-6.2527555.3758236-2.0990345.6192935-4.2134429.7617487-6.342289.0555827-.8334445-1.2436624-.8276793-1.2989987,0Z"/><path class="cls-2" d="M52.8034928,44.155411c1.1055926-.6063341,2.250852-1.1337289,3.4384882-1.5572019.6137747-.2165162,1.2520885-.3945976,1.9043472-.4090353,1.1565927-.0298116.8156561,1.8776893.7442067,2.5619771-.0883016.8334445,1.2116333.8228503,1.2982595,0,.1898582-1.8131877-.0132058-3.9122222-2.2962839-3.8525497-1.9589937.0490783-4.0645324,1.2174479-5.7453664,2.1384548-.7338589.3984411-.07889,1.5225613.6563486,1.118355Z"/><path class="cls-2" d="M50.4939537,43.8204859c-.0122696,4.3606778-.1055972,8.7155905-.2952091,13.0675958-.1498958,3.419468,2.4957508,2.9757921,4.9703625,2.4050841.8161488-.1876901.469644-1.4387931-.3455148-1.2520885-1.1204783.2608148-3.231733,1.2126189-3.3299389-.6794588-.0545972-1.0596187.1371828-2.1288954.1700988-3.1884648.1083074-3.4444999.1190987-6.9082172.1290031-10.3526678.0019217-.8382735-1.2968798-.8382735-1.2988016,0Z"/><path class="cls-2" d="M63.0043428,63.4758116c1.0569578-.1328465,2.1105649-.2463771,3.1773778-.2165655,1.903411.0452348,1.2658363,1.380106.5928819,2.4888031-1.0536071,1.735234-2.705812,3.6119378-4.4797764,4.6416956-.7227719.423473-.0693305,1.5475439.6558559,1.1231347,2.3973478-1.3935582,4.7940058-4.1431761,5.7484707-6.7503388,1.2497232-3.40981-3.9148337-2.8035252-5.6948098-2.5869597-.8204358.1029856-.8307836,1.4041525,0,1.3002306Z"/><path class="cls-2" d="M44.5847466,41.4057931c3.2808561-2.8227426,7.0725506-5.4799691,10.858874-7.5934412,2.1798954-1.2212914,5.0141684,1.6755615,6.8328795,2.7698208,1.9426296,1.1674333,3.8489478,2.3348174,5.9535011,3.1923576.7761864.3156584,1.109638-.9412591.3459627-1.2511523-2.6781192-1.0942593-5.0451626-2.7649918-7.5524932-4.1788023-1.7407528-.9806795-2.9449949-2.724586-5.1486903-2.1384548-1.9630343.5273949-3.8399843,2.2029563-5.4962791,3.3308708-2.3016057,1.5677961-4.5981853,3.1297778-6.7121009,4.9477945-.6357022.5466123.2872757,1.4628395.918346.9210069Z"/><path class="cls-2" d="M63.1275313,47.7817865c-.7759401,1.7496224-1.7186282,3.4444506-3.0491631,4.8341654-.5764732.6063341-3.1189371,1.8622661-3.3013054.1818756-.1226958-1.1327434,2.2542027.9123837,2.4445044,1.1289492.8224068.9363809,1.7439065,2.4243015,3.0539921,2.7495686,1.8646805.4581136,3.7439958.0789392,5.6332155.0250319.8351246-.0298116.8382735-1.3261987,0-1.3011668-1.7063586.0539073-3.908083.6698501-5.519882-.0933769-1.3245233-.6264877-2.1709765-2.3405826-3.2349314-3.3116534-1.0100476-.9210069-3.4098099-1.3107755-3.6434247.5524268-.2629829,2.0990345,2.0852911,2.5474901,3.6357377,2.1432838,2.5503973-.6650211,4.1434224-4.090205,5.1034062-6.2527555.3354178-.7593343-.7831343-1.4195757-1.1221492-.6563486Z"/><path class="cls-2" d="M79.3263335,57.3221489c-1.6979325,1.5417787-3.6867378,9.1351707-6.7067791,7.2421075.0784465.3012699.1556611.5967254.2336148.893117,1.2248884-2.5426611,9.9768439,5.4694241,11.7411556,6.2085555.771845.3252671,1.1058338-.9316504.3460068-1.2521378-2.3528521-.9855085-10.9774799-10.239088-13.2086217-5.6117808-.1568437.3252671-.0853943.6890675.2329249.8863663,4.4694286,2.7996324,6.0525986-5.4251255,8.2798477-7.4500005.6207718-.5620848-.300038-1.4782627-.9181489-.9162272Z"/><path class="cls-2" d="M53.0024669,46.9839188c1.4340133-.413815,2.8521107-.8527112,4.3294371-1.0846506-.2449481-.3146729-.4889107-.6351602-.7338589-.9508186-.934262,1.6947789-2.9875688,2.2722376-3.5279231,4.2673009-.1184088.4388469.2102582.78343.6257979.8228503,1.5624744.1482205,2.8597977-.6005196,4.2853849-1.108697.7833807-.2761887.4453513-1.5321207-.346012-1.251103-1.3052566.4619571-2.5070842,1.197245-3.9401076,1.0586332.2085784.276238.4179497.5466615.6257979.8228503.4706251-1.7390775,2.5460611-2.4098638,3.3980332-3.9564715.2976236-.5379891-.1862163-1.0393665-.7326315-.9556476-1.4772771.2319394-2.8958673.6698501-4.3293878,1.0836651-.8031401.2319394-.4617107,1.4830917.34547,1.2520885Z"/><path class="cls-1" d="M17.7989722,56.0151676h1.7491789v.5283804h-1.7491789v-.5283804Z"/><path class="cls-1" d="M16.0517185,56.4290319c0,1.3064393-.8527146,1.8497501-1.641417,1.8497501-.9097228,0-1.6031266-.6664994-1.6031266-1.8030863,0-1.1794073.7254328-1.8507356,1.6538803-1.8507356.9607229,0,1.5906634.7290299,1.5906634,1.8040718ZM14.4362696,55.1769434c-.6303805,0-.8724213.6775371-.8724213,1.2823929,0,.6876385.3243308,1.2660334.8654735,1.2660334.5343954,0,.8649808-.5783949.8649808-1.2819001.0004435-.5788877-.241351-1.2665262-.8580329-1.2665262Z"/><path class="cls-1" d="M26.9882964,57.3740852c0,.2997917.006258.6049051.0507537.8325083h-.6679283l-.0507537-.4080498h-.0192174c-.1972988.2733308-.5406499.4802383-.9797395.4802383-.6554161,0-1.030747-.48556-1.030747-1.0225636,0-.8743431.7574125-1.3089031,1.95924-1.3089031,0-.2584003,0-.7800299-.705969-.7800299-.3118149,0-.6298877.0923914-.8524155.2430264l-.1525567-.491818c.2478098-.1592582.6616704-.2935337,1.1322506-.2935337,1.0304969,0,1.31659.6814298,1.31659,1.4268192l.0004928,1.322306ZM26.2691216,56.4444058c-.5791303,0-1.2470131.1078146-1.2470131.7338589,0,.3878469.2415481.5586847.5153716.5586847.4008063,0,.7316415-.3051134.7316415-.7140994v-.5784442h0Z"/><path class="cls-1" d="M28.9318668,56.0151676h1.7494253v.5283804h-1.7494253v-.5283804Z"/><path class="cls-1" d="M22.3330994,57.8909351c0,.7078415-.1207741,1.1423521-.4260846,1.4421438-.2800815.26998-.7256791.3825744-1.0882477.3825744l-.0757856-.5783949c.7634241-.0770175.8524648-.4504266.8524648-1.4792482v-2.9613051h.7381458l-.0004928,3.19423ZM21.9572758,54.1596523c-.2550003,0-.4260846-.1862118-.4260846-.4244092,0-.2473626.1780321-.4340672.4320998-.4340672.2617967,0,.4261302.1857683.4261302.4340672.0004928.2381974-.1643335.4244092-.4321454.4244092Z"/><path class="cls-1" d="M38.1715012,54.1596523c-.2547992,0-.4258875-.1862118-.4258875-.4244092,0-.2473626.1775886-.4340672.4321454-.4340672.2548032,0,.4260846.1857683.4260846.4340672,0,.2381974-.1652698.4244092-.4323426.4244092ZM38.5400813,58.207579h-.7376531v-3.5108739h.7376531v3.5108739Z"/><path class="cls-1" d="M43.6531455,58.207579h-.7374518v-2.0528634c0-.496105-.1657667-.9161779-.668376-.9161779-.3626178,0-.7509082.2949627-.7509082.8584764v2.1095794h-.7379487v-2.5176785c0-.3873541-.0127623-.6876385-.0255247-.9874302h.6426501l.0380406.5230586h.0192667c.1655161-.2997917.5340963-.5995833,1.0624808-.5995833.5473473,0,1.1572784.355128,1.1572784,1.4417003l.0004928,2.1409186Z"/><path class="cls-1" d="M33.3895186,55.1933028c.2100611-.3566062.5728761-.5683427,1.0625259-.5683427.8016618,0,1.3548277.7069052,1.3548277,1.7771181,0,1.2771204-.7442028,1.8767038-1.4695902,1.8767038-.4514121,0-.8017111-.1857683-1.0370013-.5995833h-.0192667l-.0375479.5283804h-.6303805c.0130087-.2339104.0255247-.6154993.0255247-.9374156v-4.1657935h.7381458v2.0879475h.0127623v.0009855ZM33.377249,56.8217077c0,.4436266.3180728.8632561.8014647.8632561.5663717,0,.8779402-.5014267.8779402-1.2506595,0-.6626066-.2860931-1.2160189-.8714358-1.2160189-.4641252,0-.8079691.4494904-.8079691.9162272v.6871951h0Z"/><path class="cls-1" d="M11.4581124,58.207579h-.7381458v-2.0480344c0-.500934-.1718201-.9195779-.6679283-.9195779-.3623715,0-.7514009.2944699-.7514009.8266938v2.1409186h-.737456v-5.1022237h.737456v2.0787823h.0132058c.2290847-.3676439.6234326-.558192,1.0050215-.558192.528134,0,1.138755.355128,1.138755,1.4628395l.0004928,2.1187939Z"/></g></svg>